<svg xmlns="http://www.w3.org/2000/svg">
<defs>
<font id="OldStamper" horiz-adv-x="1180" >
  <font-face 
    font-family="Old Stamper"
    font-weight="400"
    font-stretch="normal"
    units-per-em="2048"
    panose-1="2 0 5 0 0 0 0 0 0 0"
    ascent="1638"
    descent="-410"
    x-height="1725"
    cap-height="1734"
    bbox="-68.0049 -315.997 1836.01 1743"
    underline-thickness="150"
    underline-position="-142"
    unicode-range="U+0020-U+2212"
  />
<missing-glyph horiz-adv-x="1256" 
d="M102 1733l69 -22.999v11l47 -23l127 12h35c32.667 -31.333 63.667 -47 93 -47c0 29.333 38.667 48.666 116 57.999l127 -23l35 23l116 -11l93 11l127 -11c62 0 93 7.66699 93 23l11 -12h93l12 -58v-46c0 -15.333 -11.667 -23 -35 -23l-70 23h-58l-69 -23l-35 11l-69 -11
l-406 11h-104l-105 -11l-58 11l-58 -23l-69 23l-105 -11c-69.333 6 -104 17.667 -104 35v34c0.666992 10.667 51 34 151 70zM589 1478l46 -23.001l151 11c38.667 -5.33301 58 -16.666 58 -33.999l-35 -47l11 -35l-11 -11l-12 11h-46l-12 -11l-139 23l-127 -23l-47 11h-23
l-11 -11h-12l-12 11v35c0 15.333 19.333 23 58 23c0 46.667 54.333 70 163 70zM125 1466h162l23 -23l-69 -58v-35h-47l-69 -23c-85.333 0 -128 23.333 -128 70c16 46 58.667 69 128 69zM1133 1432l12 -11.999v-23l-12 -93l12 -139l-12 -220l12 -244l-12 -150l24 -105
l-24 -116h12l-12 -11l12 -197v-47c0 -40 -11.667 -63 -35 -69h-23l-162 23l-35 -12l-23 23l-151 -34l-35 11l-81 -11l-174 11l-174 -11l-231 11l-24 70l12 58l-12 69l12 81l-12 70l35 151l-35 58l12 58v92l-12 12l12 12v150l-12 12l12 11v198l-12 11l12 12v81
c36 0 63 7.66699 81 23h12l11 -11h12l-12 -12l23 -290l-23 -58c6 -46 13.667 -69 23 -69l-11 -58v-186l11 -69l-11 -35l11 -105l-11 -220h11l12 -11l151 11l104 -11l151 11h46l105 -11l11 11h12l35 -11l57 11l186 -11l23 69v23h-11l11 58v23l-11 47l11 35l-11 92l11 232v23
l-11 163l11 46l-11 93l11 58l-11 46l11 81l-11 70c0 41.333 38.333 91.666 115 150.999zM531 1304l23 0.000976562l-47 -139c0 -38.667 8 -58 24 -58c-40 -92.667 -86.333 -139 -139 -139h-12c-100.667 30.667 -151 57.667 -151 81v35c56 116 98.667 174 128 174

<glyph glyph-name=".notdef" horiz-adv-x="1256" 
d="M102 1733l69 -22.999v11l47 -23l127 12h35c32.667 -31.333 63.667 -47 93 -47c0 29.333 38.667 48.666 116 57.999l127 -23l35 23l116 -11l93 11l127 -11c62 0 93 7.66699 93 23l11 -12h93l12 -58v-46c0 -15.333 -11.667 -23 -35 -23l-70 23h-58l-69 -23l-35 11l-69 -11
l-406 11h-104l-105 -11l-58 11l-58 -23l-69 23l-105 -11c-69.333 6 -104 17.667 -104 35v34c0.666992 10.667 51 34 151 70zM589 1478l46 -23.001l151 11c38.667 -5.33301 58 -16.666 58 -33.999l-35 -47l11 -35l-11 -11l-12 11h-46l-12 -11l-139 23l-127 -23l-47 11h-23
l-11 -11h-12l-12 11v35c0 15.333 19.333 23 58 23c0 46.667 54.333 70 163 70zM125 1466h162l23 -23l-69 -58v-35h-47l-69 -23c-85.333 0 -128 23.333 -128 70c16 46 58.667 69 128 69zM1133 1432l12 -11.999v-23l-12 -93l12 -139l-12 -220l12 -244l-12 -150l24 -105
l-24 -116h12l-12 -11l12 -197v-47c0 -40 -11.667 -63 -35 -69h-23l-162 23l-35 -12l-23 23l-151 -34l-35 11l-81 -11l-174 11l-174 -11l-231 11l-24 70l12 58l-12 69l12 81l-12 70l35 151l-35 58l12 58v92l-12 12l12 12v150l-12 12l12 11v198l-12 11l12 12v81
c36 0 63 7.66699 81 23h12l11 -11h12l-12 -12l23 -290l-23 -58c6 -46 13.667 -69 23 -69l-11 -58v-186l11 -69l-11 -35l11 -105l-11 -220h11l12 -11l151 11l104 -11l151 11h46l105 -11l11 11h12l35 -11l57 11l186 -11l23 69v23h-11l11 58v23l-11 47l11 35l-11 92l11 232v23
l-11 163l11 46l-11 93l11 58l-11 46l11 81l-11 70c0 41.333 38.333 91.666 115 150.999zM531 1304l23 0.000976562l-47 -139c0 -38.667 8 -58 24 -58c-40 -92.667 -86.333 -139 -139 -139h-12c-100.667 30.667 -151 57.667 -151 81v35c56 116 98.667 174 128 174
c100 7.33301 158 22.666 174 45.999zM670 1292c146.667 -108 220.002 -188.999 220.002 -242.999l23 -116c-72.667 -178 -150 -267 -232 -267c0 -15.333 -19.333 -23 -58 -23v-11l-11 11h-47l-104 -116c-23.333 8 -35 31.333 -35 70v93l35 34l-35 58l12 12v12l-12 46
c131.333 35.333 197 77.666 197 126.999c31.333 0 50.666 50.333 57.999 151l-69 116c7.33301 30.667 26.666 46 57.999 46zM542.002 481.003l22.999 -0.00195312c56.667 -43.333 87.667 -89.666 93 -138.999l-81 -151h-46c-23.333 0 -42.666 34.667 -57.999 104l-93 -34
c-30.667 4.66699 -46 35.334 -46 92.001v12c0 20 69.333 58.667 208 116zM531.001 365.001l-12 -81v-23h23l23 69v12l-23 23h-11zM12.001 -160.999l93 -23l11 12l58 -12h58l12 -70h46l23 24v58h24l46 -24l35 24l197 -12h243c92.667 0 139 7.66699 139 23l47 -23l127 23
c77.333 -17.333 116 -32.666 116 -45.999v-58c-7.33301 -23.333 -30.333 -35 -69 -35l-139 12l-12 -12h-12l-46 12h-23l-12 -12l-35 12l-359 -12l-255 12l-35 -12l-58 12h-23l-46 -12l-47 12l-92 -12c-38.667 10.667 -58 37.667 -58 81c0 31.333 15.333 50.666 46 57.999z
" />
    <glyph glyph-name="space" unicode=" " horiz-adv-x="1416" 
d="M759 1692h12v23l46 -11h12l11 11l151 -23h23l23 23l232 -11c115.333 0 173 -31 173 -93l-46 -35l-162 24l-58 -12l-12 12l-104 -24l-370 24v-12h-24l-11 12l-47 -12l-81 12l-324 -24l-162 24h-70l-23 23v69l12 12c20.667 -15.333 70.667 -27 150 -35
c62 14 93 29.333 93 46c110 0 179.667 -15.333 209 -46h23c0 38.667 104 58 312 58zM365 -251c-23.333 0 -35.001 -7.66602 -35.001 -22.999l-128 12l-58 -12c-138.667 10.667 -208 26 -208 46v35l12 12l-12 11v23l35 12l243 -23l197 11l69 -11l47 23l46 -12h93l69 12
l301 -35l24 23h11l46 -11l47 11h35c162 0 243 -11.333 243 -34v-81l-23 -24h-12l-93 47c-25.333 0 -52.333 -11.667 -81 -35h-11l-35 23h-23c-15.333 -15.333 -65.666 -27 -150.999 -35l-92 24l-70 -12l-208 58v-23c0 -38.667 -42.667 -58 -128 -58
c0 25.333 -50 40.666 -150 45.999z" />
    <glyph glyph-name="space" unicode="&#xa0;" horiz-adv-x="1416" 
d="M759 1692h12v23l46 -11h12l11 11l151 -23h23l23 23l232 -11c115.333 0 173 -31 173 -93l-46 -35l-162 24l-58 -12l-12 12l-104 -24l-370 24v-12h-24l-11 12l-47 -12l-81 12l-324 -24l-162 24h-70l-23 23v69l12 12c20.667 -15.333 70.667 -27 150 -35
c62 14 93 29.333 93 46c110 0 179.667 -15.333 209 -46h23c0 38.667 104 58 312 58zM365 -251c-23.333 0 -35.001 -7.66602 -35.001 -22.999l-128 12l-58 -12c-138.667 10.667 -208 26 -208 46v35l12 12l-12 11v23l35 12l243 -23l197 11l69 -11l47 23l46 -12h93l69 12
l301 -35l24 23h11l46 -11l47 11h35c162 0 243 -11.333 243 -34v-81l-23 -24h-12l-93 47c-25.333 0 -52.333 -11.667 -81 -35h-11l-35 23h-23c-15.333 -15.333 -65.666 -27 -150.999 -35l-92 24l-70 -12l-208 58v-23c0 -38.667 -42.667 -58 -128 -58
c0 25.333 -50 40.666 -150 45.999z" />
    <glyph glyph-name="exclam" unicode="!" horiz-adv-x="539" 
d="M542 1731l23 -35v-81l-23 -23l-47 12l-46 -23l-81 11h-81l-57 -11c-170 12 -255 27.333 -255 46v35c0 34 77 53 231 57l47 -23zM224 1456c52 -22.667 98.332 -60.999 138.999 -114.999v-12l-23 -23h-58c0 -38.667 -34.667 -58 -104 -58v-11
c38.667 -32.667 58 -59.667 58 -81h11c0 30.667 23 46 69 46l35 12c0 38 15.333 57 46 57l12 -11v-116c0 -62 -46.333 -208.333 -139 -439v-46l12 -69c-19.333 -60 -42.666 -94.667 -69.999 -104h-23c-54 16 -84.667 127.667 -92 335c-69.333 92.667 -104 223.667 -104 393
c19.333 84.667 42.333 127 69 127c0 53.333 54 91.666 162 114.999zM131.999 428.001c53.333 -10.667 80 -22.333 80 -35l12 12h23c62 0 108.333 -38.667 139 -116c30.667 -12.667 46 -39.667 46 -81v-11c0 -52 -73.333 -117.667 -220 -197h-23
c-130.667 36.667 -196 94.667 -196 174c40.667 169.333 87 254 139 254zM154.999 -138.998h46l35 -23h104l23 23l57 -11l116 11l35 -58v-80h-23v-12l-312 23l-228 -23l-46 35c0 36.667 27 55.667 81 57l31 35v12z" />
    <glyph glyph-name="quotedbl" unicode="&#x22;" horiz-adv-x="699" 
d="M290 1719l23 -23h69l312 -12l35 35l23 -23v-81l-23 -23h-139l-46 11l-46 -11h-46l-46 11l-104 -23l-58 23l-81 -23l-127 12h-35l-23 23v92h23l23 -23zM521 1522h12c22.667 0 38 -46 46 -138c-38.667 -10 -58 -21.667 -58 -35c32.667 0 55.667 -80.667 69 -242l-11 -81
l11 -81c0 -25.333 -30.667 -56.333 -92 -93c-49.333 0 -80 69.333 -92 208l46 12v11l-46 58v23l11 12v11h-46v185c26.667 100 76.667 150 150 150zM174 1499l47 -46v-92l34 -174c-54 -77.333 -81 -150.333 -81 -219l12 -69c-12.667 -38.667 -35.667 -58 -69 -58l-81 115
l11 116v35l-46 173c0 69.333 38.667 127 116 173zM204 -136l127 -34c0 15.333 42.333 26.666 127 33.999l11 -11h12l11 11h35v-11l116 11h92l23 -23v-81c0 -15.333 -38.333 -26.666 -115 -33.999v-12l-139 12h-92l-104 -12l-35 23l-81 -11h-69
c-112.667 -12 -162 23 -148 105l78 -1l23 23l58 -12z" />
    <glyph glyph-name="numbersign" unicode="#" horiz-adv-x="1201" 
d="M526 1740c22.667 -21.333 245.333 -36.667 668 -46l23 23h23v-104l-23 -23l-81 12l-92 -12l-69 12l-127 -12l-207 12l-162 -23l-11 11v12l-173 -12h-57l-47 12l-46 -12h-69l-46 12l-34 -12l-12 12v80l115 12h92l35 23zM294.999 1648l138 -0.000976562
c32.667 22.667 63.667 34 93 34v12h-81c-100 -5.33301 -150 -20.666 -150 -45.999zM896.999 1447l91.9971 -22.998v-34l-35 -69l12 -69l-58 -139c42 -30.667 80.667 -46 116 -46l69 35h23v-12l-12 -46l12 -11v-12l-12 -46l12 -12v-11l-35 -127l-138 12h-115
c4.66699 -138.667 12.334 -208 23.001 -208l34 -23l58 35l23 -23l-35 -127l12 -58h-46v-23l11 -11v-12l-11 -11l-115 23l-46 -23l11 -81l-58 -115c-35.333 -130.667 -66 -196 -92 -196c-46 10.667 -69 30 -69 58c34 161.333 57 242 69 242l23 23v69h-11l-208 11
c-53.333 -10.667 -80 -49 -80 -115l11 -46l-11 -81l11 -34c-15.333 0 -34.333 -38.333 -57 -115h-23l-81 11l11 138l-11 35l46 23l12 150l-24 34l-34 -11l-173 34c24.667 115.333 63 173 115 173l35 -11c180.667 0 284.334 15.333 311.001 46l23 -23l127 34h46v12l23 184
l-150 12l-58 -23v-23l12 -58c-40.667 -54 -83 -81 -127 -81l-11 -11h-23l-23 23c24.667 0 40 50 46 150h-69c-60.667 0 -107 19 -139 57v35c23.333 32 35 70.333 35 115l-12 35l104 57c26 0 53 -11.333 81 -34h34c46.667 61.333 77.334 92 92.001 92v11
c-22.667 0 -34 11.667 -34 35l69 104l-11 69c0 15.333 38.333 30.666 115 45.999l11 -12h12l-92 -311c22.667 0 34 -15.333 34 -46h12c0 23.333 7.66699 35 23 35h34l35 -35c69.333 0 104 30.667 104 92l23 104l-12 12v11c0 45.333 27 83.666 81 114.999
c0 30.667 7.66699 46 23 46zM443.996 -149l104.001 -0.000976562l23 -23l-46 -46v-23h46c23.333 0 65.666 19 126.999 57c38.667 0 58 7.66699 58 23l219 -23c0 12.667 26.667 24.334 80 35.001l58 -12l46 12l69 -12v-103c0 -15.333 -11.667 -23 -35 -23l-57 11l-104 -11
l-57 11l-150 -23l-46 23l-127 -11h-35l-46 11l-46 -11l-11 34h-47l-46 -34h-34l-35 11l-57 -11h-185l-46 11l-46 -11h-23l-23 23v69l23 23h265l104 11l57 -11z" />
    <glyph glyph-name="dollar" unicode="$" horiz-adv-x="971" 
d="M141 1722l70 -12l153 12l130 -24l70 24c0 -62.667 51 -94 153 -94l248 12l11 35h36v-71l-12 -11v-12l-47 12l-83 -12l-47 12l-129 -12h-118l-70 12l-12 -12h-12l-176 12l-95 -12l-11 12h-12l-12 -12l-82 12h-12l-94 -24l-12 12v82c0 13.333 55 33 165 59zM694 1722h129
v-24h-129v24zM417 1442l23.999 -0.000976562c0 -83.333 47 -138 141 -164h12l35 11c110 -71.333 165 -169.333 165 -294c-38.667 -54.667 -82 -82 -130 -82h-35c-74.667 0 -117.667 62.667 -129 188l35 12v47l-59 59h-12l-23 -24l23 -188l-11 -12h-71l-24 24l12 47l-23 129
h-36c-25.333 0 -41 -51 -47 -153c4.66699 -18 106.667 -84.667 306 -200l118 -47c0 -16 43 -67 129 -153l24 -129l-12 -12l12 -59v-59c-57.333 -70.667 -100.666 -106 -129.999 -106v-23l12 -59c-177.333 -63.333 -267.333 -102.666 -270 -117.999l11 -59v-11
c-7.33301 -24 -30.666 -36 -69.999 -36h-36v12l12 94h-12c-235.333 58 -353 136.667 -353 236v94c24 0 36 -15.667 36 -47h11c133.333 0 200 27.333 200 82h12l36 -35c0 -78.667 -31.667 -133.667 -95 -165v-24h12l83 -47h35l12 12h11l-11 82v118
c0 12.667 27.333 32.334 82 59.001h12l23 -24l-23 -153v-35c8 -23.333 31.333 -35 70 -35h24l47 176v12l-94 106c46.667 8 70 27.667 70 59c47.333 0 71 19.667 71 59c-31.333 0 -47 19.667 -47 59h-24c0 -39.333 -43 -59 -129 -59c0 -55.333 -35.333 -83 -106 -83l-247 224
c-47.333 109.333 -71 187.666 -71 234.999c177.333 212 275.666 318 294.999 318l35 -23h23v11l-23 94zM63.999 853.999l47 -94h12c28 31.333 63.333 47 106 47v70l23 36v11h-70c-22.667 0 -62 -23.333 -118 -70zM181.999 535.999c0 -15.333 11.667 -23 35 -23v-24h-106v24z
M399.999 -140.001h153c66.667 -62.667 109.667 -94 129 -94l12 12l59 -12h47c15.333 15.333 66.333 27 153 35v12l-141 12c-5.33301 -24 -37 -36 -95 -36l-35 36c0 15.333 11.667 23 35 23l36 -12l141 24c78.667 -8 118 -19.667 118 -35v-71c0 -23.333 -82.333 -35 -247 -35
h-48l-47 12l-47 -12h-82l-130 12l-47 -24l-153 24l-200 -12l-29 3l-9 50l344 53c2 15.333 29.667 27 83 35z" />
    <glyph glyph-name="percent" unicode="%" horiz-adv-x="1640" 
d="M1443 1730l35 -35h11l104 12l35 -12l46 12l11 -12v-80c0 -16 -30.667 -27.667 -92 -35l-196 11l-231 -11l-196 11l-47 -11l-11 11h-12l-92 -11l-81 23l-46 -23l-58 11l-104 -11l-92 11l-58 -11l-11 11h-12l-46 -11l-127 11l-127 -11l-12 11h-11l-35 -11l-23 81l185 46
h150l46 11c64 -15.333 179.333 -23 346 -23l47 12l57 -12l46 12l104 -12h208l-11 12v11h46l58 -11zM1166 1695v-11h46v11h-46zM473 1441c153.333 0 245.668 -111.333 277.001 -334v-35c-74 -169.333 -174 -254 -300 -254h-12l-23 23v35c33.333 0 75.666 19 126.999 57
c52 0 86.667 19.333 104 58h-150l-23 23v127c0 110.667 -27 180 -81 208v23zM334.002 1418h35v-11l-104 -127l-11 -58l34 -127l-11 -127l11 -35l-46 -11v-46h35l81 11l11 -11v-35l-11 -12v-11c-34 0.666992 -72.667 16 -116 46h-115c-77.333 62 -116 146.667 -116 254
c-15.333 0 -23 30.667 -23 92l196 185zM1097 1418l34 -34c-54 -60 -88.667 -129.333 -104 -208h-69l-12 11h-11c26.667 138.667 72.667 208 138 208zM912.002 1164h11v-34l-34 -12l-12 12v11zM993.002 1130l10.999 0.000976562v-12
c-38.667 -61.333 -88.667 -180.666 -150 -357.999c-38.667 -14.667 -58 -49.334 -58 -104.001c-20.667 -8.66699 -47.667 -43.334 -81 -104.001c-30.667 0 -46 -11.333 -46 -34l-11 -12h-93c0 54 31 104 93 150c38 56.667 57 126 57 208c82.667 0 144.334 54 185.001 162
c0 30.667 19.333 46 58 46c2 38.667 13.667 58 35 58zM877.001 1095v-12l-23 -23l-23 23l11 12h35zM1247 645.001c76.667 -22.667 115.001 -64.999 115.001 -126.999l35 23h11c13.333 0 32.666 -23.333 57.999 -70c30.667 0 46 -26.667 46 -80l-34 -150l11 -12v-12
c-26 -60.667 -99 -137.334 -219 -230.001l-127 23v11c46 110 69 183.333 69 220l-12 34l12 58c0 42 -23 122.667 -69 242l81 47zM1120 622.002l0.000976562 -35c-23.333 -38.667 -54.333 -58 -93 -58v-11c8 -84.667 19.667 -127 35 -127l-12 -116v-150l58 -69v-35l-11 -11
v-12l-174 46l-11 -11h-12c-44.667 0 -87 50 -127 150l12 11v12l-23 219c21.333 0 82.666 50 183.999 150zM658.003 460.002l-0.000976562 -11.9971c0 -26.667 -38.667 -111.334 -116 -254.001c-7.33301 -88.667 -22.666 -146.334 -45.999 -173.001l-69 12l-81 -12l-12 12v11
c77.333 154 143 250.333 197 289c0 55.333 42.333 97.666 127 126.999zM1484 -143.995l92 -23.002l92 11l23 -35l-11 -11v-12l11 -46c0 -17.333 -19 -28.666 -57 -33.999l-47 11l-92 -11l-46 11l-243 -23l-46 23l-81 -11h-34l-93 23l-92 -23l-104 11l-35 -11l-127 11h-92
l-104 -11l-81 11l-34 -11l-12 11l-58 -11l-69 11v23c48 0 86.667 19.333 116 58c50.667 0 89 15.333 115 46h12l46 -11l34 11l35 -11l104 11h23l46 -23l127 12l93 -12l69 12l58 -12l46 12l35 -12l161 12l116 -24c42 2.66699 76.667 18.334 104 47.001zM156.002 -155.997v-23
l-93 -92h-46c-22.667 0 -38 30.667 -46 92z" />
    <glyph glyph-name="ampersand" unicode="&#x26;" horiz-adv-x="1470" 
d="M1263 1728l58 -12h69l46 12c46.667 -10 70 -21.667 70 -35v-81l-23 -23l-47 12l-46 -12l-46 12l-127 -23l-81 11l-81 -11l-104 23l-128 -23l-46 11l-116 -11l-11 11h-12l-11 -11h-12l-277 11h-24l-185 -11l-57 11l-35 -11c-46.667 10 -70 21.333 -70 34v35
c0.666992 12 43.334 35 128.001 69h185v-23l-58 -11v-12l35 -35h57l116 47c77.333 15.333 258.666 23 543.999 23l34 11l47 -23l162 12h23zM763 1441l23 -34.999v-69c-15.333 -30.667 -38.333 -46 -69 -46v-58c0 -115.333 57.667 -231 173 -347l151 -324l-12 -35h12
c28.667 0 71 -65.333 127 -196l104 -197c54 -22.667 81 -57.334 81 -104.001l-12 -12h-11l-81 12l-151 -23l-127 46l-104 -35c-40 0 -90 73.333 -150 220l-174 301v11l58 12l-81 69l23 35c-61.333 0 -92 34.667 -92 104c-100.667 103.333 -151 211.333 -151 324l35 23h197
c44 0 82.333 19.333 115 58c31.333 0 47 7.66699 47 23v35c-52.667 0 -106.667 -19.333 -162 -58l-116 -12h-23l-35 35c26.667 77.333 73 116 139 116c71.333 76.667 152.333 115 243 115l11 12h12zM902 1429h11l47 -46l-24 -23h-46l-23 23zM1017 1337l35 -46l-11 -35
l11 -127v-35c-33.333 -108 -64 -162 -92 -162h-24l-34 116c30.667 0 46 50 46 150v23c-30.667 0 -53.667 15.333 -69 46v35h115c0 23.333 7.66699 35 23 35zM1202 909.001l12 0.000976562c54 -48 81 -106 81 -174l-139 -231l-58 104l24 81l-12 58l12 35
c-31.333 11.333 -47 22.666 -47 33.999zM335 770.002l46.001 -69.002l-11 -47c36 -131.333 74.333 -239 115 -323c0 -23.333 31 -69.666 93 -138.999c43.333 0 89.666 -38.667 138.999 -116v-35l-266 -57l-12 34h-92l-81 -11l-93 92l-58 -11l-69 162
c-30.667 26.667 -46 65 -46 115c0 98.667 77 214.334 231 347.001h23c0 38.667 27 58 81 58zM312.001 654c0 -32.667 -23.333 -55.667 -70 -69v-23l24 -58h34c0 30.667 15.667 46 47 46v104h-35zM867.001 573v-57l23 -23h58v11c-38.667 0 -58 23 -58 69h-23zM28.001 -155
l23 -23l-11 -12h-53l-23 23l12 12h52zM826.001 -155l57.998 0.000976562l35 -46c104.667 7.33301 166.334 18.666 185.001 33.999l69 -11h23v23h24l46 -35h46v12h-35v23l116 -12h46l58 12l12 -12v-92c0 -17.333 -42.333 -29 -127 -35l-105 12l-34 -12l-58 23l-197 -23
l-69 12l-174 -12l-243 12l-173 -12l-93 12l-69 -12l-12 12h-11l-104 -12l-64 -3v70l75 -21c44.667 0 83.334 19.333 116.001 58l69 12l58 -12l255 23l185 -11z" />
    <glyph glyph-name="quotesingle" unicode="'" horiz-adv-x="346" 
d="M355 1728h11l23 -23v-69l-57 -46l-138 12h-58l-152 -12l-12 12v68c0 12 50.667 28.667 152 50l196 -15zM148 1423h11c20.667 0 43.667 -53.667 69 -161c-50.667 -268 -89 -402 -115 -402c-22.667 0 -53 84.333 -91 253l-12 11l-11 35c0 104.667 49.667 192.667 149 264z
M357 -150l23.001 -23v-80c-4.66699 -23.333 -35.334 -35 -92.001 -35l-92 12l-69 -12l-68 12l-69 -12l-12 12v11l-26 104h313v-23h-23v-23c14.667 -28 37.667 -47.333 69 -58l35 12v11l-12 81l12 11h11z" />
    <glyph glyph-name="parenleft" unicode="(" horiz-adv-x="675" 
d="M398 1724c91.333 0 137 -19 137 -57l35 23l11 -12h12l115 23v-103l-23 -23h-58l-46 11l-46 -11l-137 23l-69 -23l-92 11l-58 -11l-69 11l-80 -11l-61 34l11 12l-11 57v23h11l50 -11l23 23l149 -23h58c84 0 130 11.333 138 34zM547 1437l23.002 -23.001v-12
c-48 -47.333 -117 -146.666 -207 -297.999c-43.333 -49.333 -85.333 -187.333 -126 -414v-11c44 -253.333 93.667 -380 149 -380c20 -98 58.333 -170.667 115 -218l-12 -34l35 -35l-12 -11h-68l-253 241l-138 207v80l-46 161l11 12v11l-11 46c0 53.333 19 80 57 80l-11 12
v34c25.333 138 59.666 207 102.999 207c23.333 0 35 15.333 35 46c53.333 92 114.666 138 183.999 138zM-7.99805 -141.001l173 -23h92l34 23c76.667 -9.33301 115 -28.333 115 -57h12c0 22.667 7.66699 34 23 34l45 -23c46 8 69 19.667 69 35l58 -12l80 12l12 -12v-92
c0 -22.667 -57.667 -34 -173 -34l-46 23l-57 -23l-11 11h-12l-11 -11h-12l-172 23l-219 -23l12 57h-12l-22 23v46z" />
    <glyph glyph-name="parenright" unicode=")" horiz-adv-x="666" 
d="M548 1725l23 -23h46l79 12l12 -12v-79c0 -15.333 -11.333 -23 -34 -23l-205 -12l-160 12l-45 -12l-57 23l-57 -11h-159l-23 23v34c0 20.667 45.667 39.667 137 57l45 -12zM22 1444l11 -0.00195312c62 0 126.667 -38 194 -114l-12 -12v-11c54 -10.667 96 -41 126 -91
c0 -15.333 22.667 -26.666 68 -33.999c0 -42 41.667 -144.333 125 -307l23 -137l-12 -11v-12l23 -79c-93.333 -307.333 -245 -520 -455 -638h-91l-23 23v23c0 16 30.333 35 91 57c68.667 62 103 115 103 159c75.333 84.667 113 217.334 113 398.001
c23.333 27.333 35 65.333 35 114c-49.333 161.333 -87.333 252.333 -114 273l34 69v11c-28.667 0 -81.667 57 -159 171l-103 113v12zM290 -137.002l113 -34.001l92 23l34 -23h125l34 23l23 -23v-79c0 -23.333 -79.667 -38.666 -239 -45.999l-80 11l-11 -11h-12l-68 23h-57
l-68 -23l-91 11l-68 -11l-46 34c0 56.667 60.667 94.667 182 114h11l46 -11z" />
    <glyph glyph-name="plus" unicode="+" horiz-adv-x="953" 
d="M87 1722l12 -11h11l11 11l57 -11l354 -23l68 23l23 -23h23l125 23l23 -23l137 23l102 -12v-114h-159l-171 12l-194 -12h-171l-160 -11l-91 23l-91 -12l-23 23v11c0 15.333 19 23 57 23l-45 12v22c38 30.667 72 46 102 46zM53 1654v-12l57 -11h57l91 34v11h-137zM317 1163
c53.333 0 80.001 -15.333 80.001 -46l57 12c76 -6 114 -17.667 114 -35l-23 -102l11 -68l-11 -114c0 -46 30.333 -69 91 -69c53.333 0 80 7.66699 80 23c114 0 171 -30.333 171 -91l11 -91c-42.667 -38 -107.334 -57 -194.001 -57l-91 22h-68l11 -79v-12l-23 -194l12 -114
l-12 -11v-11l-159 22l-34 -11l-23 34l23 91v57l-23 183v45c-30.667 0 -46 11.667 -46 35l-171 -23v11c10 30.667 55.667 46 137 46l12 11c30 0 45 15.333 45 46c30.667 0 46 19 46 57l11 11l46 57h11c0 46 -19 69 -57 69v-57l12 -12v-11l-12 -12h-11l-23 23l11 57l-34 114
v12l34 45v11l-22 23l11 57v46zM214.001 764h45.999v-23c-9.33301 -40 -81.666 -85.667 -216.999 -137h-22l-23 23v91c0 18 72 33.333 216 46zM932 -136c68.667 -8 103 -19.668 103 -35.001v-79c0 -21.333 -34.333 -36.666 -103 -45.999l-182 23l-91 -12l-114 12l-69 -23
l-159 11h-34c-15.333 0 -23 11.667 -23 35h-46l-45 -35h-126c-39.333 0 -62 11.667 -68 35v34c0 12.667 53.333 31.667 160 57l34 -12l45 23l69 -11h34v-23l-57 -23v-11l23 -23h34c103.333 45.333 194.333 68 273 68c0 15.333 11.667 23 35 23l91 -34z" />
    <glyph glyph-name="comma" unicode="," horiz-adv-x="517" 
d="M518 1729l21.999 -22l23 22l34 -34v-79c-5.33301 -22 -35.666 -33 -90.999 -33h-101l-45 10l-45 -10h-45l-46 10l-11 -10h-11l-181 22l-33 -12l-12 12v57l113 55l68 -22l124 12l79 -23zM406.999 -182c82.667 8 131.666 19.334 146.999 34.001h11l23 -22v-91l-23 -22h-169
l-102 11l-11 -11l-56 11l-248 -11l-12 11v56c16.667 17.333 34.334 34.666 53.001 51.999l128 5zM2.99805 -118.999c18.667 18.667 30.999 36.668 36.999 54.001c75.333 0 147 41.667 215 125c0 39.333 -11.333 61.666 -34 66.999l-57 -34
c-91.333 0 -147.666 75.333 -168.999 226c54.667 0 100 45 136 135h11l22 -22c16 0 24 11.333 24 34l11 11h34l34 -23l33 23h22c0 -32.667 38 -93 114 -181v-33c-41.333 -218.667 -117 -335 -227 -349l-70 -31z" />
    <glyph glyph-name="hyphen" unicode="-" horiz-adv-x="666" 
d="M187 1731h46c44.667 0 67 -26.333 67 -79c28 38 50.667 57 68 57l46 -23l57 23l170 -23l22 23h34v-80c0 -22 -41.667 -33 -125 -33l-34 10l-67 -10h-12l-56 10l-69 -10h-34l-57 10l-67 -10h-182c-15.333 0 -23 11 -23 33l12 11v12l-12 34l91 23l91 -12h11
c0 22.667 7.66699 34 23 34zM368 835l34.999 -0.000976562c39.333 -52.667 81 -79 125 -79l34 -114c0 -43.333 -41.667 -69.666 -125 -78.999h-23l-114 22l-67 -11l-115 11h-10l-91 -22l-12 11v158c0 32 72 58.667 216 80l46 -34c32.667 0 66.334 19 101.001 57z
M470.999 731.999v-10l11 -12l-11 -57v-22h22l12 57v44h-34zM320.999 -144.001l272.999 -11.001l11 11h11c45.333 -10 68 -21.333 68 -34v-79l-22 -22h-46l-91 10l-67 -10l-46 10l-283 -22l-57 12l-11 -12h-12c-47.333 15.333 -73.666 34.333 -78.999 57v11
c10 34.667 85.333 57.334 226 68.001l46 -23z" />
    <glyph glyph-name="hyphen" unicode="&#xad;" horiz-adv-x="666" 
d="M187 1731h46c44.667 0 67 -26.333 67 -79c28 38 50.667 57 68 57l46 -23l57 23l170 -23l22 23h34v-80c0 -22 -41.667 -33 -125 -33l-34 10l-67 -10h-12l-56 10l-69 -10h-34l-57 10l-67 -10h-182c-15.333 0 -23 11 -23 33l12 11v12l-12 34l91 23l91 -12h11
c0 22.667 7.66699 34 23 34zM368 835l34.999 -0.000976562c39.333 -52.667 81 -79 125 -79l34 -114c0 -43.333 -41.667 -69.666 -125 -78.999h-23l-114 22l-67 -11l-115 11h-10l-91 -22l-12 11v158c0 32 72 58.667 216 80l46 -34c32.667 0 66.334 19 101.001 57z
M470.999 731.999v-10l11 -12l-11 -57v-22h22l12 57v44h-34zM320.999 -144.001l272.999 -11.001l11 11h11c45.333 -10 68 -21.333 68 -34v-79l-22 -22h-46l-91 10l-67 -10l-46 10l-283 -22l-57 12l-11 -12h-12c-47.333 15.333 -73.666 34.333 -78.999 57v11
c10 34.667 85.333 57.334 226 68.001l46 -23z" />
    <glyph glyph-name="period" unicode="." horiz-adv-x="520" 
d="M-21 1707h129c14.667 0 22 -19 22 -57l12 11h22l34 -23l80 46h69l102 11l34 -11l69 23v-115l-12 -11v-11l-34 11l-193 -11l-115 11l-68 -11l-68 11l-12 -11h-12c-37.333 10 -56 21.333 -56 34v12zM152 383l46 -0.000976562l35 -22l45 11
c91.333 -45.333 137 -106.333 137 -183c-12 -33.333 -69 -101.666 -171 -204.999c-167.333 57.333 -251 118.333 -251 183l69 11l-24 34v23c0 14.667 26.667 26 80 34l24 -148h56c30.667 12 46 38.667 46 80v22c-45.333 0 -83.333 23 -114 69c-30.667 0 -46 7.66699 -46 23z
M192 -143.001l103 -34l68 12l69 -12l57 23l57 -11v-92l-23 -22h-11l-125 -12l-149 12h-57l-45 -12l-92 22l-57 -10l-11 10v92l22 23h68z" />
    <glyph glyph-name="slash" unicode="/" horiz-adv-x="660" 
d="M-13 1731l10 -0.000976562c116 -7.33301 189 -18.666 219 -33.999l104 12h10l47 -12l35 12l68 -12l46 12l81 -12l80 12v-93l-22 -22h-24l-34 11l-58 -11h-57l-35 11l-57 -11h-310l-46 -12l-11 12h-12l-34 -12l-12 12v11l22 92zM675 1490
c0 -96 -37.999 -203.001 -113.999 -321.001c-38.667 -150.667 -100 -303.667 -184 -459l-11 -116l11 -34l-115 -207c-30.667 -34 -46 -76 -46 -126l12 -46c-28 0 -55 -69 -81 -207l-46 -23c-69.333 25.333 -104 48.333 -104 69l36 68l-12 47
c53.333 59.333 80 105.333 80 138v92c54 56.667 81 98.667 81 126l34 34v115c9.33301 61.333 32.666 92 69.999 92l-12 80v24c9.33301 60.667 32 91 68 91v12c0 66 19.333 127.333 58 184c0 72.667 34.333 145.334 103 218.001l-11 57v12c0 45.333 30.333 68 91 68z
M296.001 846.998v-35h24v12zM348.001 -159.002l115 -23l103 23l47 -12l68 12v-92l-34 -34l-58 10l-34 -10l-58 10l-298 -10l-104 10l-114 -22l-12 12v92l218 22l93 -11z" />
    <glyph glyph-name="zero" unicode="0" horiz-adv-x="1262" 
d="M507 1734h81l24 -23l11 11h35l69 -23l116 23l24 -23l150 12l116 -12l58 12l58 -12l23 23l23 -23v-81l-23 -23h-81l-185 -12l-35 23l-81 -11h-429l-70 11l-58 -11h-139l-104 11l-93 -23l-23 35v70l243 34l24 -23l220 12h11zM504 1453
c23.333 -28.667 34.998 -55.668 34.998 -81.001l-81 -70l-23 -116l11 -93l-11 -185l23 -162l-58 -128l35 -69l-12 -47c0 -170 27 -289.667 81 -359l-46 -93l23 -46l-35 -12c-54 26 -96.333 61 -127 105c-52 0 -137 81 -255 243c0 54.667 -11.667 93.334 -35 116.001l12 11
v12l-47 139c16.667 54 40 81 70 81c-5.33301 58.667 -28.666 116.667 -69.999 174c78.667 247.333 144.334 371 197.001 371c42.667 100.667 124 151 244 151zM677.998 1441l103.999 -0.000976562l128 -127l12 -81h34l35 23c92.667 -91.333 139 -188 139 -290l12 -12
l-12 -69l47 -58l-24 -151l24 -104l-82 -162c0 -46 -38.333 -77 -115 -93c0 -23.333 -19.333 -35 -58 -35c-47.333 -46.667 -86 -70 -116 -70h-47l-35 24l12 34c-6 93.333 -13.667 140 -23 140l11 57v93l24 232l-12 93c15.333 0 23 23 23 69c33.333 16 95.333 24 186 24h116
v11l-35 12l-46 -12v23c0 10.667 30.667 26.334 92 47.001v23h-162c-71.333 0 -117.666 -15.667 -138.999 -47h-23l-12 116l12 35c0 92.667 -31 139 -93 139l-23 93zM132.997 1035l-23 -69l58 -58l58 12v58c0 15.333 27 23 81 23v11zM364.997 953.998
c0 -22.667 -31 -34 -93 -34v-12h93l12 35v11h-12zM1084 316.998l11 -12c0 -31.333 -100.333 -120 -301 -266c0 -16 -38.667 -24 -116 -24h-81v35c84.667 38.667 142.667 58 174 58c0 34.667 38.667 54 116 58zM402.997 -127.002c15.333 -18 23 -45 23 -81l46 35l12 -12h12
c0 13.333 27 25 81 35l11 -11l35 11l128 -11l69 11l58 -11l58 11c0 -15.333 11.667 -23 35 -23l93 12l69 -12l70 12l46 -12l23 23l23 -23v-70c0 -15.333 -34.667 -26.666 -104 -33.999l-127 23l-139 -23l-82 11l-475 -23l-116 23l-69 -11l-12 11h-12l-69 -11h-81l-35 34
c0 57.333 11.667 88.333 35 93l46 -35l93 35l127 -23c0 25.333 42.667 40.666 128 45.999z" />
    <glyph glyph-name="one" unicode="1" horiz-adv-x="720" 
d="M549 1740l23 0.000976562c22 -23.333 53 -39 93 -47l58 35l24 -23v-81c0 -20.667 -70 -36.334 -210 -47.001l-140 35c-30 -15.333 -72.667 -23 -128 -23l-35 11l-70 -11l-81 11l-108 -11l-12 11v82c0 15.333 32.333 27 97 35l81 -12l47 12l58 -24l233 35l46 -11z
M118 1449l23.001 0.000976562c46.667 -46.667 105 -70 175 -70l163 47h70v-117l-12 -46l12 -47l-35 -140l46 -140l-11 -104v-12l23 -82l-23 -139l11 -70l-23 -93v-117c0 -78.667 31 -144.667 93 -198v-11l-23 -70l-47 11l-139 -35h-24l-128 35l-244 -58l-12 12v70
c66 54 112.667 81 140 81v93l-35 70l81 58v12c-54 0 -81 7.66699 -81 23v140l23 93v93l-35 47v12c0 70 39 105 117 105l81 11v35c0 46.667 -38.667 70 -116 70h-59l12 116v35c-23.333 20.667 -35 52 -35 94c-77.333 9.33301 -116 24.666 -116 45.999
c19.333 85.333 42.666 128 69.999 128l34 -23c16 0 24 11.667 24 35zM374.001 -134.998l105 -81l128 46l93 -12l23 24l24 -24v-81c-8 -23.333 -31.333 -35 -70 -35h-35l-70 12l-47 -12l-139 23l-70 -23l-82 12l-70 -12l-70 12l-108 -16c-15.333 18.667 -22 58.667 -20 120
l94 24l139 -24h70c23.333 0 58.333 15.667 105 47z" />
    <glyph glyph-name="two" unicode="2" horiz-adv-x="1107" 
d="M31 1721l69 -11l80 11l57 -23l251 23l183 -23l228 12h126l114 11v-103l-12 -11v-12l-57 12l-34 -12l-46 12l-68 -12l-46 12l-68 -12l-80 12l-103 -23l-23 23l-148 -12l-115 12l-57 -23c-205.333 6 -308 21.333 -308 46v45c0 15.333 15.333 23 46 23l11 12v11zM362 1414
l23 -0.000976562l23 -23v-23c0 -28.667 -19 -63 -57 -103v-22c60.667 -58 91 -138 91 -240c-80 -99.333 -129.333 -149 -148 -149c-137.333 30.667 -206 57.334 -206 80.001c-38 55.333 -57 97.333 -57 126c0 136.667 42 205 126 205l194 115zM579 1403
c117.333 0 227.667 -53.333 331 -160l12 -35l-149 -57c0 -30 -30.333 -45 -91 -45c-4.66699 -38 -23.667 -57 -57 -57l-23 -69l34 -46h35c0 53.333 19 80 57 80c0 34 34 53 102 57c0 38 30.667 57 92 57l23 23l34 -160c-46 -174.667 -84 -262 -114 -262
c-20 0 -54.333 -34.333 -103 -103h-103c0 -40.667 -68.333 -75 -205 -103c0 -13.333 -42 -28.333 -126 -45l-11 11h-12l-103 -46l-11 12v11c205.333 103.333 308 183.333 308 240c30.667 114 53.667 171 69 171l-23 137v149l-69 102c0 92 26.667 138 80 138h23z
M968.001 454.999c14.667 0 29.667 -42 45 -126c0 -114 -106.667 -232 -320 -354l-102 23l-92 -12l-125 46l-46 -11c0 12.667 -57 27.667 -171 45l-69 -22h-68l-35 34c0 12 26.667 31 80 57c0 68.667 23 118 69 148c0 30.667 26.667 46 80 46c5.33301 38 16.666 57 33.999 57
h23l103 -34l125 23c61.333 -18.667 92 -53 92 -103c-47.333 -15.333 -85.666 -38.333 -114.999 -69c-68 -16.667 -102 -35.667 -102 -57h205c0 18 38 56.333 114 115c0 22.667 49.667 37.667 149 45zM328.001 248.999v-11h46v11h-46zM221.001 -148.001l160 -12.001h80
l206 -34l91 34c84 -5.33301 126 -16.666 126 -33.999l114 12h80l34 22l23 -22v-80l-23 -23h-137l-69 -23l-159 23h-58l-45 -12l-12 12h-11l-274 -12l-80 12l-12 -12h-11l-126 12h-125l-23 23v45c0 14 34.333 29.333 103 46l57 -11z" />
    <glyph glyph-name="three" unicode="3" horiz-adv-x="1135" 
d="M-17 1731l148 -23.001l12 12h11l34 -12l46 12l103 -12l159 23c20.667 -15.333 74 -26.666 160 -33.999l46 11l45 -23l160 12h12l34 23h125l46 -12l34 12l12 -12v-103l-23 -22l-217 11l-91 -11l-35 11l-182 -11h-114c0 14.667 11.333 22 34 22v12h-91l-12 -34l-182 22
l-103 -34c0 30.667 -22.667 49.667 -68 57v35h22v11h-102c0 -30.667 -7.66699 -46 -23 -46l-23 23v57zM394 1434l45.001 -56.999v-23c0 -16.667 -34 -28 -102 -34l-12 -11v-12c6.66699 -33.333 48.667 -98 126 -194v-11c-53.333 -102.667 -110.333 -163.667 -171 -183
c-144.667 44.667 -217 102 -217 172l11 114l-11 34c65.333 27.333 114.666 61.666 147.999 102.999c96 68 157 102 183 102zM508.001 1434h23.001l45 -34l69 23c182.667 -46.667 274 -100 274 -160c34 0 64.333 -87.333 91 -262c-12 0 -46.333 -45.667 -103 -137
c-98.667 -87.333 -148 -140.666 -148 -159.999l45 -34c-22.667 -10 -45.334 -44.333 -68.001 -103v-34h57c0 37.333 30.333 75.333 91 114h12c24.667 -12 58.667 -57.667 102 -137c35.333 -14.667 54.333 -30 57 -46v-34c-9.33301 -110 -77.666 -228 -204.999 -354
c0 -20.667 -110.333 -43.334 -331 -68.001l-23 68v12c42 0 76.333 22.667 103 68c22.667 0 34 7.66699 34 23c-32 0 -51 80 -57 240c15.333 29.333 23 71 23 125v57c-20 46 -84.667 84 -194 114v23c0 15.333 23 23 69 23l114 68l-12 69c15.333 18 26.666 79 33.999 183
l-34 34l12 34l-12 46l12 102l-80 69v68zM245.002 521h11.999c86.667 -26.667 132.334 -53 137.001 -79l22 -115l-34 -91l12 -34c-61.333 -26 -92 -45 -92 -57c0 -22.667 30.667 -34 92 -34l22 -35c0 -53.333 -34 -80 -102 -80c0 10.667 -68.667 45 -206 103l-125 160
c20.667 98.667 58.667 148 114 148c0 41.333 49.333 79.333 148 114zM702.001 225v-35h91v23h-68l-12 12h-11zM428.001 -140c53.333 -7.33301 80 -18.667 80 -34l80 23l45 -11l35 11c52.667 -5.33301 79 -13 79 -23l57 12h35l102 -23c82 12.667 131.667 27.667 149 45h57
l23 -22v-92c-8 -22.667 -31 -34 -69 -34l-137 11l-114 -11l-46 11l-34 -11l-171 23l-46 -23l-45 11l-57 -11l-240 23l-125 -23l-58 11l-11 -11h-11l-46 34v34c0 28.667 61 48 183 58l22 -23c34.667 0 69 11.333 103 34l91 -34c0 14.667 23 29.667 69 45z" />
    <glyph glyph-name="four" unicode="4" horiz-adv-x="1213" 
d="M189 1730l80 -35l174 23l11 -11l58 11h23c54 -2 81 -9.66699 81 -23l57 12l139 -12c0 23.333 7.66699 35 23 35l46 -12l11 12h12c30.667 0 46 -27 46 -81h12c0 30.667 15.333 53.667 46 69l58 -23l46 23l92 -11l23 23l23 -23v-81c-7.33301 -22.667 -30.333 -34 -69 -34
h-439l-69 11l-46 -23l-184 12h-24l-126 -12l-47 23l-57 -23l-104 12h-84l-35 34v35c4.66699 25.333 75 44.333 211 57zM950 1453l12.001 -34.999l-23 -69c22.667 0 38 -53.667 46 -161l-35 -300l35 -58v-196l-12 -46l12 -12v-11l-12 -104
c0 -21.333 42.333 -36.666 127 -45.999l23 -35v-11l-23 -24l-115 12l-12 -12v-126c0 -32.667 15.333 -71.334 46 -116.001l12 12h11l24 -23v-12c0 -20 -69.333 -39.333 -208 -58l-104 12l-92 -35h-12c-154 0 -231 23.333 -231 70c0 13.333 42.333 28.666 127 45.999
c23.333 84.667 65.666 127 126.999 127c0 38 65.333 57 196 57v70c0 15.333 11.667 23 35 23v11h-81l-184 -81c0 -22.667 -7.66699 -34 -23 -34h-24c-22.667 0 -34 73 -34 219l23 115c0 62 -7.66699 93 -23 93l11 69l12 311l-12 35l116 150l-12 46
c0 68 92.333 110.333 277 127zM696.001 1338v-23h35v23h-35zM396.001 969.001l58 -58c0 22.667 7.66699 34 23 34h12v-11c-57.333 -120.667 -115 -205.334 -173 -254.001c0 -33.333 -46.333 -102.666 -139 -207.999v-23l23 -23h12l46 12c37.333 -23.333 87.333 -35 150 -35
h11l47 35c16.667 0 32 -34.667 46 -104l-12 -12l-57 12h-289l-35 -23c-76.667 21.333 -115 44.333 -115 69c23.333 69.333 42.666 104 57.999 104l34 -35v12l-11 34l69 81c69.333 30.667 104 77 104 139c72.667 48 130.334 101.667 173.001 161v23h-35l-57 -57
c-15.333 0 -23 11.333 -23 34c17.333 62 44 93 80 93zM-15.999 -157.999l147 -34.001l150 23l92 -23l162 11l69 -23l150 23l173 -11h69c0 22.667 7.66699 34 23 34h81l104 -11l35 11l11 -11v-115l-196 -12h-185l-219 12l-34 -12l-93 12l-46 -12l-11 12h-12l-127 -12l-81 12
l-161 -12c-75.333 4.66699 -113 16.334 -113 35.001v80l12 12v11z" />
    <glyph glyph-name="five" unicode="5" horiz-adv-x="1104" 
d="M172 1733l34.001 0.00292969c16 0 24 -23 24 -69l11 11h23l35 -23c41.333 15.333 64.666 34.666 69.999 57.999l92 -23l324 34h47c15.333 0 23 -11.333 23 -34h11c0 22.667 7.66699 34 23 34h47l34 -34c66 7.33301 112.333 22.666 139 45.999l35 -35v-81
c0 -22.667 -15.333 -34 -46 -34l-162 11l-197 -11l-116 11l-81 -11l-81 11l-92 -11l-163 11l-11 -11h-12l-11 11h-12l-35 -11c-100 5.33301 -150 16.666 -150 33.999v58c0 18 61.667 33.333 185 46zM149.001 1467l68.999 -58h12l139 23l162 -23l104 23l81 -35
c0 13.333 27 25 81 35l35 -12l34 12v-23l-11 -12v-11l46 -12l12 12h23c-26.667 -54 -46 -81 -58 -81l-12 46l-23 -23l12 -58c-102 -84.667 -164 -127 -186 -127l-81 -70h-57l-81 23l-174 -23c-146.667 18.667 -220 42 -220 70c0 46.667 31 77.334 93 92.001
c0 23.333 15.333 46.666 46 69.999l23 58c-5.33301 22.667 -20.666 38 -45.999 46c0 -35.333 -27 -62.333 -81 -81l-12 11v12l23 46l-11 58l11 12h47zM160 1039c30.667 -16 46.001 -35.333 46.001 -58l-11 -116h23v-12l-23 -34v-12l23 -23h12c22.667 0 72.667 30.667 150 92
h12c0 -64 -62 -114 -186 -150c-38.667 -46 -69.334 -69 -92.001 -69l-58 34c0 128 27 240 81 336l12 12h11zM658.001 900.003l11 -0.000976562l116 -58v-58l12 11h35l11 -11l12 11h11c92.667 -151.333 139 -247.666 139 -288.999v-162
c-60 -127.333 -152.667 -231.333 -278 -312l-104 11c-46 -30.667 -80.667 -46 -104 -46h-35l-34 35v11c26.667 69.333 65 104 115 104v12l-23 104l23 174l-11 324c-54 26 -81 45.333 -81 58v57l69 12l12 -12h11zM172.001 784.002l-12 -58h23v58h-11zM774.001 738.002
l23 -162h11v46l-11 116h-23zM727.001 541.002l-23 -81l35 -47l23 24v34c0 40 -11.667 63.333 -35 70zM149.001 518.002h46c28 0 59 -15.667 93 -47l23 24c46 -24.667 69 -67.334 69 -128.001c-15.333 -123.333 -38.333 -185 -69 -185l-35 -46
c77.333 -23.333 116 -42.666 116 -57.999v-46l-23 -24l-174 35l-46 -11c-100.667 99.333 -151 161 -151 185l46 11c0 27.333 -15.333 54.333 -46 81c0 69.333 50.333 139 151 209zM646.001 367.002l23 -81h12l23 23v23l-23 81c-11.333 0 -23 -15.333 -35 -46z
M172.001 275.002l11 -12v-12l12 12h11c14 0 25.667 -34.667 35 -104c32 10.667 55.333 30 70 58c-26.667 6 -50 29 -70 69zM273.001 -145.998c84.667 -17.333 126.999 -32.667 126.999 -46l151 23l115 -23l151 23l69 -11l47 11l46 -23c58.667 8 97.334 19.667 116.001 35h23
l23 -23v-70l-35 -34h-69l-58 -12l-69 12h-12l-162 -12l-93 12l-104 -12l-116 12l-46 -12l-46 12l-58 -12l-116 12l-173 -12l-12 12v92c4.66699 23.333 35.667 35 93 35h162z" />
    <glyph glyph-name="six" unicode="6" horiz-adv-x="1219" 
d="M71 1722l22.999 -34l274 23l81 -12l126 12l57 -35l149 23l103 -11h11c65.333 0 111.333 11.333 138 34l114 -11l92 11l23 -34v-81l-23 -22h-115l-148 11l-92 -11l-80 11l-35 -11l-80 11l-80 -11l-69 11l-160 -23l-57 12h-103l-46 -12l-12 12h-11l-46 -12l-130 20l12 57
l-23 23v12c4.66699 22.667 40.334 35 107.001 37zM493.999 1431h12.002c15.333 0 26.666 -26.667 33.999 -80c-16.667 0 -58.667 -30.667 -126 -92h-11l46 -240l-46 -126l11 -69l-11 -195l46 -183l-35 -126c0 -130 38.333 -195 115 -195l11 -114l-11 -12h-103
c-176 90 -290.667 204.667 -344 344c-46 72 -69 133 -69 183l35 12v114c-38.667 0 -58 11.667 -58 35l23 68v69l-11 46c36 84.667 62.667 187.667 80 309c35.333 0 92.666 46 171.999 138h11l-11 57l46 34h160zM609.001 1431l57.001 -46.001h46
c24.667 18.667 59 30.334 103 35.001c65.333 -24 122.666 -104.333 171.999 -241c22.667 0 34 -7.66699 34 -23v-80c-74 -91.333 -146.333 -137 -217 -137c-114.667 14 -172 44.333 -172 91c-15.333 30 -23 72 -23 126l80 80v81c-68.667 0 -103 34.333 -103 103l12 11h11z
M666.002 857.999l23.001 0.00195312l12 -11l91 -57l103 11c52.667 -14.667 98.667 -75.667 138 -183c45.333 -57.333 68 -103.333 68 -138l-11 -11h-69c0 -30.667 -15 -46 -45 -46c-90 -124.667 -159 -197 -207 -217c0 -30.667 -34.333 -46 -103 -46
c-15.333 34 -23 83.667 -23 149v34c0 37.333 11.667 75.666 35 114.999c-18.667 144.667 -41.667 217 -69 217l-57 -11l-35 46v11c0 13.333 19.333 24.666 58 33.999c3.33301 68.667 33.666 103 90.999 103zM1079 366.001v-23c-31.333 -80 -69.666 -141 -114.999 -183
c0 -76.667 -95.333 -134 -286 -172c-46 7.33301 -69 18.666 -69 33.999v12c0 12.667 26.667 24 80 34c10.667 30.667 45 46 103 46h23c0 46 26.667 69 80 69c0 30 11.667 45 35 45c21.333 38.667 51.666 69.334 90.999 92.001c0 30.667 19.333 46 58 46zM343.003 -152.999
l22 -23l12 11h11l12 -11l103 23l11 -34l69 11l126 -11l46 11l137 -11l58 11l57 -11l80 22l103 -11l23 23l46 -46v-57l-35 -35h-80l-103 -11l-80 23l-11 -12v-11l-138 11h-57l-160 -11l-46 23l-126 -12l-35 12l-57 -12h-195l-45 12l-46 -12h-46l-34 35v46
c0 20 64.667 35 194 45l35 -11z" />
    <glyph glyph-name="seven" unicode="7" horiz-adv-x="1095" 
d="M205 1739l128 -23.001l104 11c116 -5.33301 174 -16.666 174 -33.999c-21.333 -2 -52.333 -29.333 -93 -82l-104 -11h-139l-46 11l-47 -11l-209 -3v23c0 15.333 11.333 23 34 23l12 12v11l-58 12v23zM1110 1727l22.999 -23v-93l-23 -23h-46l-151 12l-93 -12l-46 12
l-12 -12h-12l-69 12h-23l-58 -12l-12 12v11c46.667 8 85.334 27.333 116.001 58l81 35l116 -11l163 11h11zM471.999 1446l150.999 -34.998l93 11l150 -46c0 18 15.667 37.333 47 58v12h23l35 -35v-12c-45.333 -63.333 -72.333 -136.666 -81 -219.999
c-63.333 -60.667 -140.666 -95.334 -231.999 -104.001c-120.667 30.667 -229 46 -325 46l-12 -12h-11l-128 47l-93 -105l24 -58l-12 -11h-70l-34 35c22.667 147.333 49.667 247.666 81 300.999l-12 70c31.333 3.33301 47 14.666 47 33.999h23c15.333 0 23 -23 23 -69l58 -12
h12c27.333 35.333 108.333 70.333 243 105zM738.998 993.001h23v-11l-93 -174v-81l-35 -174l24 -105v-23l-47 -12l12 -69c15.333 0 23 11.667 23 35l12 11h11l23 -69v-93c-32 -146.667 -59 -220 -81 -220l-11 11h-12l-70 -23c-177.333 0 -266 38.667 -266 116
c-31.333 12.667 -47 39.667 -47 81v93l35 58l-11 93c54 12 81 31.333 81 58l-12 46c102.667 84.667 164.667 158 186 220c21.333 0 36.666 42.667 45.999 128c20.667 0 90.334 34.667 209.001 104zM564.998 355.001c-51.333 -84.667 -86.001 -127 -104.001 -127v-23l46 -47
c20.667 0 36 23.333 46 70c28 0 51.333 27 70 81c-3.33301 16 -22.666 31.333 -57.999 46zM436.997 158.001l-23 -46v-35l23 -23h35v35c0 40 -11.667 63 -35 69zM146.997 -145.999c85.333 -6 128.001 -21.667 128.001 -47v-23h-23v-35l11 12h35l12 -12h11
c32.667 54.667 90.667 82 174 82l70 -12h46l81 35c75.333 0 125.666 -19.333 150.999 -58c100.667 0 189.667 19.333 267 58l23 -23v-93l-23 -23h-371l-70 11l-46 -23l-151 12l-46 -12l-35 12l-116 -12l-23 23l-70 -23l-104 12h-70l-35 34v35c0 15.333 19.333 23 58 23
c0 16 31 24 93 24z" />
    <glyph glyph-name="eight" unicode="8" horiz-adv-x="1168" 
d="M1037 1728l11 -12v-11l116 11h23v-104c0 -15.333 -27 -23 -81 -23v-12l-58 12h-81v23l81 35v11h-336l11 -58l-371 -23l-70 12l-162 -12c-100.667 6 -151 17.667 -151 35v70l186 34l92 -34h12v34h174l35 -23l162 23h24l46 -11l12 11h34v-11zM920 1612v-23l-81 -12v23z
M677 1450c155.333 -66.667 248.001 -117.001 278.001 -151.001c0 -26 -11.667 -53.333 -35 -82v-23l47 -46l35 35c23.333 -5.33301 35 -36.333 35 -93c0 -105.333 -85.333 -213.666 -256 -324.999h-35v-23h47c69.333 0 104 -35 104 -105l12 12h35
c77.333 -58.667 116 -147.667 116 -267c-32 -134 -63 -207.333 -93 -220v-24h-23v24l23 34v35h-35c0 -46 -15.333 -69 -46 -69c0 -28.667 -46.667 -52 -140 -70l-11 -12v-23h81c28 0 59 15.667 93 47h11v-12c0 -40.667 -96.667 -64 -290 -70
c-48.667 0 -79.334 42.667 -92.001 128l116 46v24l-12 11v12l23 127l-35 105l24 174c-68 28.667 -103 52 -105 70v11c51.333 46.667 97.666 70 138.999 70v23c-3.33301 16 -22.666 31.333 -57.999 46l12 116l-35 140c15.333 34.667 23 84.667 23 150
c0 60.667 -30.667 95.667 -92 105l-12 46zM445.001 1426h23.001l-46 -220l11 -93l-11 -12v-11l11 -35l-23 -162l23 -47l-11 -11l-12 11h-12c-36.667 -46 -71.334 -69 -104.001 -69v-35h-23c0 15.333 -77.333 85 -232 209v34h81c0 28 15.333 63 46 105
c-92.667 0 -139 11.667 -139 35c38.667 131.333 89 197 151 197l151 93l58 -12h23zM445.002 799.999l23 -0.000976562l23 -23v-12l-81 -267c22 -234.667 41.333 -354.667 58 -360l12 -11v-47c0 -62 -31 -93 -93 -93c-8 31.333 -27.333 47 -58 47v23h58l35 35l-58 12h-221
c-92.667 68 -139 149 -139 243c38.667 5.33301 58 24.666 58 57.999c46 15.333 69 42.333 69 81c31.333 0 47 11.667 47 35c0 12.667 23 28.334 69 47.001c0 24.667 23.333 59.334 70 104.001l23 58c70 0 105 23.333 105 70zM178.002 683.998l23 -24v-11l-128 -128
c0 -30.667 -23 -46 -69 -46v11c38.667 116 85 174 139 174zM65.002 -146.002l35 -23h11l35 23h23c26 0 53 -11.667 81 -35l93 23l302 -23l70 12l11 -12h12l185 35l82 -12l46 12l12 -12v-11l-35 -47v-23c23.333 0 35 -7.66699 35 -23v-12l-140 -11h-81l-93 11l-92 -11l-70 11
l-139 -23l-47 23l-116 -11h-58l-46 11l-47 -11l-58 11l-92 -11l-12 11v47l23 23l12 46l11 12h47zM1179 -193.002l11 -11v-58l-23 -23h-69v34c21.333 0 48.333 19.333 81 58z" />
    <glyph glyph-name="nine" unicode="9" horiz-adv-x="1204" 
d="M-12 1727l11 -11h12l34 11l11 -56l11 11h12l57 -11c38 9.33301 57 20.666 57 33.999l136 -12l114 23l23 -23l147 12l148 -12l12 12l57 -12h125c30 22.667 75.333 34 136 34c0 -45.333 30.333 -68 91 -68h23v34h34l11 -34c0 -49.333 -30.333 -75.666 -91 -78.999l-34 11
l-68 -11l-91 11l-45 -23l-69 23l-45 -11l-80 11l-102 -23l-57 34l-57 -11h-102l-57 -11l-68 11h-228l-45 11l-35 -11l-11 11v103zM451 1426l57.001 -11.999v-91h-57l23 -250l-34 -23l11 -113l-11 -103c0 -55.333 41.667 -93.333 125 -114l11 -45
c-75.333 -53.333 -162.333 -80 -261 -80c0 25.333 -53.333 52 -160 80l-22 34l11 11v12l-34 34c38 0 57 19 57 57l57 23l-12 11v11l69 46c0 30 22.667 45 68 45l68 80v34h-23c-62.667 0 -134.667 -53 -216 -159c-34.667 -30.667 -53.667 -57.334 -57 -80.001l-79 -11
c-30.667 52 -46 97.333 -46 136v46l91 205c103.333 75.333 171.666 113 204.999 113v69zM656.001 1403c56.667 0 151.333 -56.999 284 -170.999c0 -22.667 -60.667 -41.334 -182 -56.001c0 -30.667 -30.333 -46 -91 -46l-11 11v114l-80 68v35zM952 1164l11.001 -0.000976562
c37.333 0 75.333 -140.333 114 -421c15.333 0 23 -22.667 23 -68c-60.667 -137.333 -91 -220.666 -91 -249.999v-91l-126 -194c-41.333 0 -136 -53 -284 -159l-34 34v34c83.333 67.333 125 124.333 125 171l46 11l-23 69l34 34c-68 0 -102 11.333 -102 34l34 125l-23 171
l23 91l-23 307c102.667 14.667 167 41 193 79c53.333 0 87.666 7.66699 102.999 23zM679.001 675.001l22 -23h12v23h-34zM861.001 641.001v-34l57 -23h68c45.333 0 68 19 68 57h-193zM337.001 527.001c98.667 -51.333 148 -104.334 148 -159.001l-91 -262v-11l34 -34l80 22
l11 -11v-45l-22 -23l-91 45l-91 -11c0 18.667 -34.333 41.334 -103 68.001c-68 66 -102 115.333 -102 148v46c0 77.333 75.667 153 227 227zM1187 -153l11 -34l34 23l12 -12v-11l-12 -46l12 -34c-29.333 -15.333 -75 -23 -137 -23l-136 12l-80 -12l-114 12l-11 -12h-11
l-57 12l-91 -12l-34 12l-182 -12h-69l-45 12l-46 -12h-79l-125 12l-69 -23l-11 11v12l68 68h114c106 0 159 11.333 159 34l57 -11h23l193 11l12 -11l22 23l46 -12l80 12c10 -31.333 28.667 -54.333 56 -69c0 28 136.667 54.667 410 80z" />
    <glyph glyph-name="colon" unicode=":" horiz-adv-x="469" 
d="M176 1717l80 -33.998l80 34l11 -12l57 12h34l23 -23v-23c0 -22.667 -19 -34 -57 -34v-11c0 -22.667 26.667 -34 80 -34l-12 -12v-11l-193 23l-12 -12h-11l-11 12h-12l-113 -23c-91.333 5.33301 -137 16.666 -137 33.999v11c0 53.333 45.667 83.666 137 90.999z
M188 945.002c28 0 69.667 -34 125 -102v-171c0 -22.667 -60.667 -41.667 -182 -57c0 17.333 -34 36.333 -102 57l-12 136c17.333 0 70.333 45.667 159 137h12zM154 422.002l34 0.000976562c22.667 0 34 -19 34 -57l11 11h23c30.667 -13.333 61 -55 91 -125
c-16.667 -60.667 -47 -91 -91 -91c-46 0 -91.333 -22.667 -136 -68h-12c-60.667 47.333 -91 92.666 -91 135.999v103c43.333 0 89 30.333 137 91zM355 -155.997l23 -23h46l34 23h11l23 -23v-23l-11 -45l11 -34l-11 -12h-23l-125 12l-12 -12l-57 12l-273 -12l-11 12v68l68 46
l46 -23l114 23l79 -12z" />
    <glyph glyph-name="semicolon" unicode=";" horiz-adv-x="472" 
d="M165 1743l37.001 -10.999v-12l-13 -12v-12l13 -11h258c16 0 24 11.667 24 35l11 12h12l12 -12v-94c0 -18.667 -27.667 -30.334 -83 -35.001l-212 23l-234 -23l-13 11v59c5.33301 23.333 36.666 35 93.999 35h83zM130.001 991.001l13 -0.000976562l35 -23l70 11l106 -141
c-12.667 -125.333 -44 -188 -94 -188c-56.667 -31.333 -100 -47 -130 -47c-77.333 40.667 -116 103.334 -116 188.001v35l116 118h-22v24zM213.001 415l11.001 0.000976562c57.333 0 116.333 -62.667 177 -188c-68.667 -92.667 -111.667 -171.334 -129 -236.001l-153 -105
l-118 -12l-11 12v24c0 15.333 19.667 23 59 23c86 38 129 65.333 129 82v83l-59 -13c-78.667 46 -118 120.667 -118 224c33.333 0 64.666 15.667 93.999 47zM178.002 309.001v-12h94v24l-24 24c-26 -24 -49.333 -36 -70 -36zM52.002 -140.999l70 -34.999l199 35
c71.333 -17.333 107 -33 107 -47c0 -15.333 -11.667 -23 -35 -23l-48 -12l-11 -12v-35h35c43.333 0 90.333 23.333 141 70l12 -11v-47c0 -18 -47.333 -30 -142 -36l-212 24l-188 -24l-11 12v12c0 57.333 23.333 96.666 70 117.999z" />
    <glyph glyph-name="semicolon" unicode="&#x37e;" horiz-adv-x="472" 
d="M165 1743l37.001 -10.999v-12l-13 -12v-12l13 -11h258c16 0 24 11.667 24 35l11 12h12l12 -12v-94c0 -18.667 -27.667 -30.334 -83 -35.001l-212 23l-234 -23l-13 11v59c5.33301 23.333 36.666 35 93.999 35h83zM130.001 991.001l13 -0.000976562l35 -23l70 11l106 -141
c-12.667 -125.333 -44 -188 -94 -188c-56.667 -31.333 -100 -47 -130 -47c-77.333 40.667 -116 103.334 -116 188.001v35l116 118h-22v24zM213.001 415l11.001 0.000976562c57.333 0 116.333 -62.667 177 -188c-68.667 -92.667 -111.667 -171.334 -129 -236.001l-153 -105
l-118 -12l-11 12v24c0 15.333 19.667 23 59 23c86 38 129 65.333 129 82v83l-59 -13c-78.667 46 -118 120.667 -118 224c33.333 0 64.666 15.667 93.999 47zM178.002 309.001v-12h94v24l-24 24c-26 -24 -49.333 -36 -70 -36zM52.002 -140.999l70 -34.999l199 35
c71.333 -17.333 107 -33 107 -47c0 -15.333 -11.667 -23 -35 -23l-48 -12l-11 -12v-35h35c43.333 0 90.333 23.333 141 70l12 -11v-47c0 -18 -47.333 -30 -142 -36l-212 24l-188 -24l-11 12v12c0 57.333 23.333 96.666 70 117.999z" />
    <glyph glyph-name="less" unicode="&#x3c;" horiz-adv-x="874" 
d="M99 1726c60.667 -4.66699 91 -16 91 -34v-11l-23 -34v-12l23 -22h34c0 45.333 30.333 68 91 68l23 23h46l159 11l68 -23h23l114 23l68 -23h23l34 23h22v-91l-34 -34h-68l-125 -11l-57 11l-34 -11l-68 22h-57l-68 -22l-91 11l-57 -11l-80 11l-159 -11l-23 34v34zM754 972
l22 -23.001c-10 -106 -36.333 -159 -79 -159c-22.667 0 -41.667 -15 -57 -45l-80 11h-57c-14.667 0 -22 -15.333 -22 -46c-30.667 0 -46 -22.667 -46 -68c-126 -43.333 -201.667 -77.333 -227 -102c0 -11.333 15 -22.666 45 -33.999l57 11c54.667 -14 104 -48 148 -102
c34 0 109.667 -41.667 227 -125h12l57 11l34 -46c-30 -92 -53 -141 -69 -147c-51.333 0 -161 53 -329 159l-12 34h-45c-175.333 73.333 -289.333 130.333 -342 171v125c0 11.333 34.333 26.333 103 45c127.333 45.333 214.333 98.333 261 159zM472 -149.001l148 -34.001
l80 23l159 -23l23 23l22 -23v-68c0 -15.333 -30.333 -26.666 -91 -33.999l-11 11h-11l-160 -23h-34l-45 12l-46 -12h-11c-76 0 -114 7.66699 -114 23l-79 -11h-126l-45 11l-46 -11h-79l-23 23v56c0 23.333 41.667 35 125 35l205 -12l23 23h91c14.667 0 22 -11.333 22 -34h12
z" />
    <glyph glyph-name="equal" unicode="=" horiz-adv-x="896" 
d="M262 1722c30.667 -12 46 -23.667 46 -35l80 12h58l57 -12l11 12l35 11v12l195 -23l46 11l68 -23l35 23h34v-103l-23 -23l-91 11l-104 -11l-46 11l-11 -11h-11l-35 11l-103 -23l-241 23l-114 -11h-35c-98 -2 -147 8.33301 -147 31v35c0 15.333 11.333 23 34 23l-11 11v23
h11l56 -8zM683 875c76.667 -48.667 115 -90.667 115 -126c-20 -49.333 -39 -76 -57 -80l-35 11l-206 -23l-103 23l-161 -34c-152.667 0 -229 57.333 -229 172l229 34l69 -23h23l57 12l69 -12h12c114.667 0 187 15.333 217 46zM454 508
c59.333 -20.667 93.668 -43.666 103.001 -68.999l58 12h80l34 23c27.333 0 42.666 -49.667 45.999 -149l-172 -35c-120.667 8 -201 19.667 -241 35l-206 -46l-149 46c0 114.667 11.333 172 34 172h35v-35h23l80 12l11 -12l23 23l92 -23c0 25.333 49.667 40.666 149 45.999z
M443.002 485.001v-46h11v46h-11zM-6.99805 -154.999l211.999 -20l69 23l23 -23h57c64.667 0 114.334 7.66699 149.001 23l80 -23l35 12l11 -12l12 12v11c48 -4 86 -19.333 114 -46l138 46h11l23 -23v-92l-11 -11v-12l-115 12h-23l-23 -23l-103 23l-69 -12l-69 12l-68 -12
l-58 12l-11 -12l-80 12l-241 -23c-56 0 -79 26.667 -69 80v23z" />
    <glyph glyph-name="greater" unicode="&#x3e;" horiz-adv-x="853" 
d="M874 1736l11 -11v-104l-23 -23h-11l-46 12l-80 -23l-46 11l-195 -11l-12 11h-11l-46 -11l-46 11l-11 -11l-35 11l-344 -23l-11 12v92c0 18 30.667 29.333 92 34l91 -11l81 23l126 -12l46 12l68 -23h35zM438 1679v-12l80 -11h104v11l-115 12h-69zM14 1019h22.998
c24.667 0 120 -53.667 286 -161l344 -137c0 -15.333 19.333 -23 58 -23l11 -12v-57l-23 -35l35 -114c-109.333 -62 -254.666 -127 -435.999 -195c-23.333 -26 -122.666 -75.667 -297.999 -149l-12 11v23c32.667 50 63.334 76.667 92.001 80l12 12c0 30.667 22.667 46 68 46
c0 36.667 27 55.667 81 57c43.333 46 100.666 69 171.999 69c68.667 77.333 103 127 103 149c-31.333 46 -192 118.667 -482 218c0 15.333 -11.333 23 -34 23l-12 11v12l12 11h252v12c-137.333 14.667 -206 29.667 -206 45v12c0 15.333 11.333 23 34 23l12 11v12
c-76.667 0 -115 7.66699 -115 23zM24.998 342l12 -11v-12l-12 -11h-23v11zM675.998 -150l11 -10.999l58 11h46l11 -11c15.333 0 23 -19.333 23 -58l11 -11h12l11 11h12l11 -11v-35l-23 -23l-57 23l-126 -34l-195 23l-321 -23l-80 23l-104 -12l-11 12v69
c0 17.333 49.667 32.666 149 45.999l57 -23l287 23l92 -12h46z" />
    <glyph glyph-name="question" unicode="?" horiz-adv-x="947" 
d="M-11 1721h160.999v-34l-69 -46c-11.333 -30.667 -22.666 -46 -33.999 -46h-58l-34 34v23c4.66699 46 16 69 34 69zM607.999 1721l58 -34l218 23l46 -12l22 23h12l23 -23v-80c0 -17.333 -53.667 -29 -161 -35l-80 12l-115 -12l-149 12l-11 -12l-80 12h-172l-92 -23l-12 11
v12c42.667 4.66699 104 43 184 115l92 -12l34 12l69 -12h11zM390.999 1423h22.998v-34c0 -32.667 -19.333 -71 -58 -115v-57l23 -35v-11c-30 -130 -95 -195 -195 -195h-11c-87.333 42.667 -144.666 80.667 -171.999 114v58c38 30.667 76 84 114 160l150 58l11 -12h11
c32.667 0 67.334 23 104.001 69zM516.997 1423h22.998l149 -138c66.667 0 116.334 -72.667 149.001 -218l-35 -34h-217l11 -11v-12l11 12h12l34 -35c0 -30.667 -22.667 -46 -68 -46v-11h206c15.333 0 23 11.333 23 34l11 12h35v-12c-56 -144.667 -105.667 -240 -149 -286
c-130 -69.333 -210.333 -104 -241 -104l-46 12c-24.667 0 -63 -49.667 -115 -149h-11c-38 19.333 -57 50 -57 92v34l11 69l-11 34l23 69l-46 46v46c24.667 30 112.334 68 263.001 114v23l35 23v23l-12 35h35v11l11 138c-8 38 -38.667 83.667 -92 137
c20.667 61.333 40 92 58 92zM527.995 1343c0 -44.667 15.333 -83 46 -115l69 11c0 48 -19 82.667 -57 104h-58zM424.995 402c35.333 0 77.333 -68.667 126 -206c-29.333 -12 -60 -65.333 -92 -160l-194 -35c-65.333 0 -115.333 69 -150 207c0 59.333 103.333 124 310 194z
M206.995 -149c92 0 138 -19 138 -57h23l68 11l12 -11l436 46l23 -23l68 23l12 -12v-103l-12 -12v-11l-57 11l-115 -11l-68 11l-12 -11h-11l-69 23l-80 -12l-58 12l-80 -12l-46 12l-103 -12h-11l-58 12l-69 -12h-183l-12 12h-11c0 68.667 30.667 103 92 103l103 -11z" />
    <glyph glyph-name="at" unicode="@" horiz-adv-x="1573" 
d="M1085 1728h149l160 -11l35 11l80 -23l80 23l11 -11v-92l-34 -34l-69 11l-80 -11l-23 23l-68 -23l-161 11l-34 -11l-11 11v12l11 11h126c4 30.667 15.333 46 34 46l58 -12v23h-138c-76 0 -137 -22.667 -183 -68c-160 -3.33301 -240 -11 -240 -23l-57 11l-321 -11l-91 11
l-12 -11h-11l-12 11l-57 -11h-68l-46 11l-46 -23c-68.667 8 -103 19.667 -103 35v34h11l12 -12h11l58 58l251 -12h149c56.667 0 110 11.667 160 35l69 -12zM905 1425h46.001c145.333 0 305.666 -110.333 480.999 -331v-138l11 -103l-91 -194l11 -69v-23
c-110.667 -104.667 -229 -184.667 -355 -240c0 33.333 -72.333 63.666 -217 90.999l-34 46v57h-23c-63.333 -98.667 -151.333 -148 -264 -148h-45l-92 91l12 69l-12 114c17.333 0 32.666 26.667 45.999 80c12.667 0 24 23 34 69c28.667 0 70.667 23 126 69
c22.667 0 34 15 34 45c26 0 60.333 42 103 126c42.667 30.667 130.667 65 264 103h11c82 0 139.333 -30.333 172 -91l-80 -286l-12 -46l12 -80l-35 -126l69 -57h11c80 0 145 61 195 183l11 11l-23 23l23 195c53.333 0 80 19 80 57c23.333 0 35 19 35 57h-46l-80 -11l-46 114
l12 46c-54 24 -81 62 -81 114c-35.333 35.333 -138 77.333 -308 126c-244.667 -28 -367 -70 -367 -126c-80.667 -35.333 -141.667 -81 -183 -137l-91 -183c0 -61.333 -11.667 -114.666 -35 -159.999l12 -92l-23 -68c17.333 0 36.333 -61.333 57 -184
c70 -106.667 119.667 -160 149 -160l114 -103c28.667 0 59.334 -11.333 92.001 -34c0 15.333 42 23 126 23l46 23l11 -12h11l12 12h11l92 -35h46c44.667 0 120.667 53.667 228 161h23l35 -35c-47.333 -30 -101 -79.667 -161 -149l-228 -114h-58l-206 12l-80 -12
c-132 32.667 -223.333 86 -274 160c-85.333 114.667 -135 172 -149 172c0 112 -23 180.667 -69 206v23l92 457c238.667 229.333 376 344 412 344l171 57h35v-46h11c40.667 38 101.667 57 183 57zM722.001 1013c0 -54 -34.333 -130 -103 -228v-35l23 -206h46
c42 0 80 76.333 114 229l35 115l11 11v69l-46 45h-80zM53.001 -148l57 -12l149 12l22 -23h126l46 -12l229 23l23 -23l46 12l11 -12v-11l57 11h46c103.333 0 187.333 7.66699 252 23l45 -23l206 12l46 -12l80 23l12 -11h11l69 11l11 -11v-92l-23 -23h-194l-69 12l-137 -23
l-149 23l-68 -23l-126 11h-12l-80 -11l-103 11h-91l-92 -11l-80 11l-149 -11l-114 11l-138 -11l-11 11v69l11 12c54 24 81 43 81 57z" />
    <glyph glyph-name="A" unicode="A" horiz-adv-x="1416" 
d="M643 1727c208 0 312 -19.333 312 -58h23c29.333 30.667 99 46 209 46c0 -16.667 31 -32 93 -46c79.333 8 129.333 19.667 150 35l12 -12v-69l-23 -23h-70l-162 -24l-324 24l-81 -12l-47 12l-11 -12h-24v12l-370 -24l-104 24l-12 -12l-58 12l-162 -24l-46 35
c0 62 57.667 93 173 93l232 11l23 -23h23l151 23l11 -11h12l46 11v-23h12zM921 1440l10.998 -11l-11 -81c4 -46 27 -92.333 69 -139v-174l116 -359v-12l-12 -34l70 -209l-12 -69c21.333 0 37 -38.667 47 -116l-12 -70h12c61.333 -22 92 -56.667 92 -104v-23l-35 -12l-57 12
c-51.333 -23.333 -105.666 -35 -162.999 -35h-34l-81 23l-209 -23c-35.333 15.333 -54.666 30.666 -57.999 45.999c38.667 48.667 58 87.334 58 116.001l-23 81l11 12v12l-23 69l12 46h-12l-139 -11c-77.333 6 -116 17.667 -116 35v69l24 23l11 -11l-11 -12v-58h34v12
l-11 34h11l35 -11l35 11l46 -11l35 23l-93 510l-11 69l23 23v35c-46.667 0 -70 38.667 -70 116v116c0 15.333 23.333 27 70 35v11l46 -11zM456.998 1128l0.000976562 -58l12 -93l-70 -255l-69 -301l11 -58c-15.333 0 -23 -30.667 -23 -92l-185 -82h-12l-23 24
c94.667 122.667 148.667 226.667 162 312l-11 12v12c0 54 23 81 69 81v34h-23v24l35 46l-23 35c34.667 78.667 61.667 175 81 289c19.333 0 30.666 19.333 33.999 58l12 12h23zM699.999 1058c0 -15.333 -15.333 -23 -46 -23l-11 -12v-11h23l139 23v23h-105zM781.999 966v-12
l57 -12h128v24l-35 34zM282.999 201h12.001c0 -40.667 46.333 -71.667 139 -93v-23c0 -42 -19.333 -72.667 -58 -92h-116l-81 23l-139 -23c-30.667 32 -46 62.667 -46 92v12c100.667 30.667 178 46 232 46h23c5.33301 38.667 16.666 58 33.999 58zM515 -135
c85.333 0 128.001 -19.332 128.001 -57.999v-23l208 58l70 -12l92 24c85.333 -8 135.666 -19.667 150.999 -35h23l35 23h11c28.667 -23.333 55.667 -35 81 -35l93 47h12l23 -24v-81c0 -22.667 -81 -34 -243 -34h-35l-47 11l-46 -11h-11l-24 23l-301 -35l-69 12h-93l-46 -12
l-47 23l-69 -11l-197 11l-243 -23l-35 12v23l12 11l-12 12v35c0 20 69.333 35.333 208 46l58 -12l128 12c0 -15.333 11.667 -23 35 -23c100 5.33301 150 20.666 150 45.999z" />
    <glyph glyph-name="B" unicode="B" horiz-adv-x="1389" 
d="M231 1726l70 -23h115l220 11l58 -23l243 23l46 -11l58 11l69 -23h35l92 23l81 -11l104 23l12 -12v-92l-23 -23l-12 11h-12l-196 -23h-46l-47 -11l-115 34l-81 -23l-127 23l-81 -23l-93 23l-34 -23l-139 12h-185l-69 11l-58 -23l-35 12l-58 -23c-46 18 -69 33.333 -69 46
v46c0 18 92.333 37.333 277 58zM234 1444l35 0.000976562l35 -23h23l69 12l93 -35l46 11l12 -11h11l-35 -139c23.333 -50.667 35 -104.667 35 -162l-11 -277l46 -289c-30.667 -78 -46 -170.667 -46 -278c22.667 -7.33301 34 -30.333 34 -69v-23
c0 -84.667 -54 -127 -162 -127c-58 7.33301 -96.333 18.666 -115 33.999l-12 -11l-58 11h-34l-127 -80h-35v23c9.33301 20.667 78.666 70.667 207.999 150v23c-30.667 0 -46 19.333 -46 58h-23c0 -30.667 -7.66699 -46 -23 -46h-24c-15.333 0 -26.666 34.667 -33.999 104
l23 162v11c0 65.333 -7.66699 115.333 -23 150l11 104l-23 81l23 93l-11 81l46 11l-12 81l24 35c-38.667 10 -58 21.667 -58 35l11 34l-11 70l11 11h12c0 28.667 -38.667 52 -116 70v11c0 42 77 76.667 231 104zM755 1444h81l138 -23v-35l-185 -46l-46 -46l-116 23
c0 84.667 42.667 127 128 127zM1044 1375l10.998 0.00292969c68.667 0 134.334 -108 197.001 -324c0 -108 -100.333 -200.333 -301 -277v-12c95.333 0 161 -42.333 197 -127c61.333 -22.667 92 -61.334 92 -116.001l23 -208c-15.333 0 -34.666 -42.333 -57.999 -127
c0 -42 -73 -88.333 -219 -139l-139 23l-173 -11l-23 35v11c0 15.333 30.667 30.666 92 45.999c38.667 50.667 58 185.667 58 405c0 26 -50 83.667 -150 173l-24 58c108 0 162 42.333 162 127l12 93c-23.333 39.333 -35 77.666 -35 114.999c0 90 23.333 144 70 162
c0 23.333 77 35 231 35l-23 35v23zM199.998 1213l0.000976562 -23c61.333 0 92 -19.333 92 -58h70c3.33301 30.667 14.666 46 33.999 46h104l12 58h-289zM823.999 277.004l-0.000976562 -12h58c0 38.667 23 58 69 58l12 11c0 28 23 47.333 69 58c0 38.667 50 58 150 58
l12 12l11 57l-11 35c-26 0 -72.333 -19.333 -139 -58c-61.333 0 -92 -19.333 -92 -58c-21.333 0 -63.666 -30.667 -126.999 -92zM603.998 -150.996l104 -45.9971c124.667 7.33301 202 18.666 232 33.999l127 -11h23l69 11l70 -23h23l69 12l58 -12l23 23h12l23 -23v-92
l-12 -12v-11l-81 11h-115l-47 12l-69 -23l-58 11l-127 -11l-277 11h-47c-90 0 -151.667 -7.66699 -185 -23l-69 23h-231l-46 -11c-77.333 7.33301 -116 18.666 -116 33.999v46c0 18 54 33.667 162 47l35 -12l23 23h104l11 -11h12l-12 -58v-12l12 12h11l47 -12l69 47
c89.333 7.33301 147 22.666 173 45.999z" />
    <glyph glyph-name="C" unicode="C" horiz-adv-x="1250" 
d="M1048 1737l68 -34h23c40 0 74.333 11.333 103 34h11l23 -23v-91l-23 -23h-68l-46 12l-45 -12c-30.667 0 -46 7.66699 -46 23l-285 -34l-68 11h-80l-68 -11l-34 23l-80 -12l-205 12l-216 -23l-35 11v80c0 18 34.333 29.333 103 34l11 -11h12l68 23l68 -12l126 12l22 -23
h12l182 23h80l91 -23l125 23l69 -12zM582 1437l22.001 -22v-91l-102 -103l-11 -171l22 -91c-38 -87.333 -57 -152 -57 -194l46 -148l-11 -125l22 -148l-34 -102c45.333 -58.667 68 -112 68 -160l35 23h11l23 -23c-8 -45.333 -19.333 -68 -34 -68
c-53.333 10 -80 21.333 -80 34l-80 -11h-34l-251 159l12 11v12l-12 34h183l57 34v23h-23l-34 -23c-76 5.33301 -114 28 -114 68h-57c0 -22.667 -7.66699 -34 -23 -34h-23c-17.333 4 -43.666 61 -78.999 171c30 4 56.333 30.667 79 80l-11 45c60.667 0 91 19 91 57
c61.333 0 110.666 23 147.999 69h80v34l-12 11v12c-98.667 0 -159.334 -19 -182.001 -57c-37.333 0 -75.333 -23 -114 -69h-34l12 -57h-35c-14.667 0 -29.667 72.333 -45 217c0 66 38 130.333 114 193v23l-12 80c36 0 97 53 183 159l102 35v22h-23v12
c15.333 30 38.333 45 69 45l34 -11c47.333 4 85.333 19 114 45zM775.001 1415l148 -80h12c68 11.333 102 34 102 68h23c22.667 -7.33301 34 -30 34 -68l-11 -46l23 -170l-12 -126l23 -79c-18 -46 -44.667 -69 -80 -69c-2.66699 20.667 -21.667 36 -57 46
c-43.333 212.667 -104 319 -182 319c0 52.667 -26.667 79 -80 79l-45 35v22l79 46zM1083 424l23 -23c0 -119.333 -34.333 -191.333 -103 -216c0 -40.667 -64.667 -82.667 -194 -126l-68 -68h-45c-30.667 12 -46 38.667 -46 80l239 114c41.333 71.333 106 151 194 239z
M277.001 -161l22 -23h114l171 11l11 -34l57 23l69 -11l11 11v11l148 -22l194 11h34l34 23h34c15.333 0 23 -11.333 23 -34h23l34 22h23v-102l-23 -23l-68 11l-160 -11h-34l-57 11l-68 -11h-34l-69 11l-11 -11h-12l-68 11h-11l-46 -11l-80 11h-148l-102 -11l-46 11l-148 -11
c-83.333 0 -125 15.333 -125 46l11 34l-11 11c45.333 10 68 21.333 68 34l80 -11z" />
    <glyph glyph-name="D" unicode="D" horiz-adv-x="1380" 
d="M265 1725c76 -7.33301 114 -18.665 114 -33.998s-11.333 -23 -34 -23v-11l22 -23h12c75.333 0 113 11.333 113 34c0 30.667 7.66699 46 23 46h34c15.333 0 23 -11.333 23 -34h56l12 34l68 -12l113 12l57 -34c130 7.33301 209.667 18.666 239 33.999l102 -12h22l103 12
c45.333 -10 68 -21.333 68 -34v-69c0 -14.667 -45.333 -26 -136 -34l-57 12l-114 -12l-306 12h-12c-88 0 -148.333 -7.66699 -181 -23l-68 23h-171c-14.667 0 -22 11.333 -22 34h-12l-56 -46l-137 23l-102 -11h-45l-23 22v46l170 57l68 -23c38 5.33301 57 16.666 57 33.999z
M129 1433l11 -11v-12c-3.33301 -20.667 -37.333 -51 -102 -91h-11l-46 46c0 23.333 49.333 46 148 68zM538 1433l11 -0.000976562l23 -23v-11l-34 -57l11 -284l-34 -91v-11l45 -136l-45 -125l45 -79l-34 -262l34 -56v-23l-11 -68l11 -12v-11l-11 -68v-23l11 -56l-193 -35
l-204 12l-79 -12c-53.333 6 -80 32.667 -80 80l136 68h12c-33.333 40.667 -60 101.334 -80 182.001l12 181v68l-23 103c50.667 0 96 22.667 136 68c76 0 114 18.667 114 56c64 0 105.333 19 124 57c46 0 69 22.667 69 68h-12c-65.333 0 -114.333 -22.667 -147 -68
c-38.667 0 -73 -19 -103 -57c-61.333 0 -110.333 -18.667 -147 -56h-34v11l45 261l-11 80l11 34l-22 159h11c38 0 83.333 26.333 136 79l57 34h11l80 -23c68.667 0 121.667 15.333 159 46zM708 1433l22.999 0.000976562c92.667 -76 168.334 -114 227.001 -114v-22h-23v-23
h11l57 11c63.333 -59.333 116.333 -150 159 -272c35.333 0 58 -56.667 68 -170l-11 -125l11 -12v-11l-11 -45l11 -46c-34.667 -163.333 -87.667 -288 -159 -374c0 -16.667 -34 -43.334 -102 -80.001c-38.667 -68 -103 -102 -193 -102l-91 -34c-38 0 -57 34 -57 102
c0 20.667 38 35.667 114 45v23h11l-11 57v136l-11 114c48 48 78 93.333 90 136c23.333 0 35 7.66699 35 23c-14.667 34 -30 52.667 -46 56l-34 -34l11 -45h-45v57c0 37.333 -7.66699 56 -23 56l12 57v46h11l11 -12h12l11 12v11l-34 57l23 159l-80 261
c-30 0 -45 7.33301 -45 22v23zM991.999 1206l-12 -12v-11h57v11zM412.999 161.001v-56l22 -23h12v23l-12 56h-22zM378.999 -148.999l11.001 -34h23l34 22h23l34 -22h147l46 11l34 -11v11l22 23h91c27.333 -32.667 76.666 -67 147.999 -103h56v23c0 15.333 -18.667 23 -56 23
v57l91 -12l124 12l69 -23h45l79 11l12 -11v-91l-23 -34l-57 11h-215l-69 12l-56 -12l-57 12l-11 -12v-11l-171 23l-56 -23l-125 11h-46l-56 -11l-69 11h-147l-57 -11l-68 11h-34l-114 -11l-11 11v80l23 23h79l68 11l34 -11l103 11l34 -11c0 14.667 22.667 26 68 34z
M935 -160.999l23 -22l-12 -12h-11l-23 23l12 11h11zM1117 -182.999v-35h22v12z" />
    <glyph glyph-name="E" unicode="E" horiz-adv-x="1204" 
d="M1064 1742l103 -11h34l23 -23v-81c0 -14.667 -30.333 -26 -91 -34v12c0 18.667 15.333 30 46 34v57l-172 -69c-84 0 -126 -11.333 -126 -34l-138 12h-91l-69 -23l-103 23l-206 -23l-35 23l-80 -12h-11l-46 12l-34 -12c-76.667 4.66699 -115 16 -115 34v35l23 23l11 -35
h12c22.667 30.667 64.667 46 126 46v12l114 -12h264l160 23l103 -11zM723 1452l11.999 -12.001v-11l-23 -69v-12l23 -22h23c0 32 15.333 62.333 46 91l114 -11l126 11l12 -11v-92l11 -252c-39.333 -38 -73.666 -57 -102.999 -57l-80 114l11 35l-126 114v12h-34l-46 -12
c-38 10.667 -57 37.334 -57 80.001v58c0 20 30.333 35.333 91 46zM287.999 1429l183.001 -58l58 35l57 -69v-57c0 -26 -11.333 -52.667 -34 -80v-46l11 -115c0 -62.667 -30.667 -104.667 -92 -126l-68 -46c-68.667 0 -114.667 -19 -138 -57l-80 -11v-12
c38 -32 57 -58.667 57 -80h12c0 34 34.333 53 103 57c0 30.667 26.667 46 80 46l103 69h12l57 -126l-80 -275l11 -46l-11 -11v-12l23 -80l-12 -11v-12l12 -11v-35h-12l12 -80v-137c0 -18 -69 -33.333 -207 -46l-103 57h-11l-138 -46c-48.667 20 -75.334 39.333 -80.001 58
v34c0 20 26.667 35.333 80 46l-11 57l34 103l-34 115c15.333 29.333 23 71.333 23 126v68l-23 172l23 126l-23 126l23 161c-0.666992 26 -42.667 75.333 -126 148c86.667 54 189.667 81 309 81zM792 1028l34.999 -0.000976562
c22.667 -93.333 45.334 -257.666 68.001 -492.999v-46l-57 -57h-11c-56 40 -105.667 108.667 -149 206l-46 46v12c0 42 30.333 76.333 91 103l23 45l-11 12v11zM1033 454.998c20 0 39 -53.334 57 -160.001l-23 -69v-183l-34 -35l-184 35l-206 -23v11
c9.33301 68.667 21 103 35 103l57 -11c0 30.667 15.333 46 46 46l34 -12c46 36.667 92 109.334 138 218.001zM1188 -144.003h11l34 -34v-92l-23 -23h-91l-103 11l-12 -11l-114 11h-12l-297 -11l-12 11h-11l-58 -11l-114 23l-92 -23l-80 11l-69 -11l-46 11l-91 -11l-46 34
l11 12v34l-11 35h11l58 22h46c76 0 114 -11.333 114 -34v-11h23v11l-11 12v11l34 11l126 -11l11 11h12l137 -22l92 22l11 -11l58 11h11l34 -22l46 11l12 -11h11l12 11h11l69 -23c34 15.333 83.667 23 149 23h114z" />
    <glyph glyph-name="F" unicode="F" 
d="M1 1727l136 -34.001l137 11l80 -11l11 11h12l68 -23l216 12h91l69 11l57 -11l45 11l91 -23h57v12h-34v11l12 12v11c113.333 -5.33301 170 -16.666 170 -33.999v-91l-11 -12v-11l-34 11l-125 -11l-126 11l-193 -11l-114 11l-80 -11l-68 11l-114 -11l-148 11l-12 -11h-11
l-11 11h-12l-45 -11c-84 0 -126 15.333 -126 46l23 45l-34 34zM932 1436c76 -8 114 -19.333 114 -34v-12l-12 -57l23 -330l-34 -23c-53.333 0 -80 26.667 -80 80l34 34v11h-57l-79 103c-136.667 57.333 -205 114.333 -205 171l125 34l91 -11c53.333 12 80 23.333 80 34z
M169 1424l112.999 -22l12 11h11c82 -5.33301 131.333 -16.666 148 -33.999h46l11 45h34l12 -79l-12 -148c20.667 -25.333 36 -90 46 -194c-22.667 0 -41.667 -79.667 -57 -239l11 -34l-11 -103v-11c2.66699 -53.333 10.334 -80 23.001 -80l-12 -57v-137l12 -68
c-10 -53.333 -21.333 -80 -34 -80h-160c-27.333 -22.667 -54 -34 -80 -34v-11l160 -12l171 12l45 -69c-12.667 -34 -35.334 -60.333 -68.001 -79h-68c-46 30 -91.667 45 -137 45h-91l-171 -45c-83.333 0 -125 41.667 -125 125c60.667 0 91 22.667 91 68l57 12v11
c-30.667 0 -46 11.333 -46 34v12c0 17.333 19 28.666 57 33.999l12 -12v23c-49.333 0 -80 68.333 -92 205l23 103l-11 79l11 12v11l-11 46l23 34l-23 68c12.667 0 24 23 34 69h34v34l-57 102l34 69c-14.667 16 -22 57.667 -22 125c-29.333 30 -63.666 45 -102.999 45l-11 12
v34zM407.999 1288c0 -23.333 -19 -35 -57 -35v-11h57l23 23h68v23h-91zM817.999 1026h23c15.333 -3.33301 30.333 -22.333 45 -57h11l-11 -80v-11l11 -148l-11 -46l11 -148l-68 -57h-34c-16 3.33301 -31.333 22.333 -46 57l12 46l-91 113l34 46c-45.333 0 -68 19 -68 57
c83.333 20 125 58 125 114c0 53.333 15 80 45 80zM225.999 991.999v-23h34l-23 23h-11zM407.999 865.999v-23h34l-23 23h-11zM225.999 250.999v-23h79v23h-79zM911.999 -140.001c68 -7.33301 102 -30.001 102 -68.001l46 34l11 -11h12c29.333 15.333 71 23 125 23l11 -12
v-102h-11l-91 -12l-228 23l-137 -23l-57 12l-11 -12l-57 12h-148c-38 -2 -57 -9.66699 -57 -23l-193 23h-183l-57 -12l-11 12v68c0 18.667 34 30 102 34l103 -11l80 34c90.667 -7.33301 136 -18.666 136 -33.999l114 11h160l125 12l68 -23z" />
    <glyph glyph-name="G" unicode="G" horiz-adv-x="1310" 
d="M186 1735l92 0.000976562c22.667 0 34 -19 34 -57l12 11h57l34 -23h12v12l-12 34l35 23c60.667 0 91 -15.333 91 -46l80 35l57 -23l81 11l125 -11c126 0 202.333 11.333 229 34h23l46 -11l34 11c0 -61.333 34.333 -92 103 -92l23 -22
c0 -18.667 -34.333 -30.334 -103 -35.001l-57 23c-46 -5.33301 -69 -13 -69 -23l-114 12h-172l-183 11l-34 -11l-103 11l-35 -11l-45 11l-103 -11l-69 11l-149 -11h-34c-56 0 -86.667 11.333 -92 34v46c0 18 30.667 29.333 92 34l92 -11c0 22.667 7.33301 34 22 34z
M472 1441l12 -0.000976562l91 -46v-23c-68.667 -102.667 -103 -175 -103 -217l12 -46l-12 -80l12 -149l-12 -91l12 -35l-23 -91v-252c0 -17.333 -45.667 -32.666 -137 -45.999c0 -22.667 -7.66699 -34 -23 -34h-57l-138 -12c-6.66699 38 -41 87.667 -103 149l23 160l-23 23
v92l35 114h11l-11 46c0 94 68.667 212.333 206 355c0 12 38 38.667 114 80v80l57 11l12 -34h11c4 30.667 15.333 46 34 46zM1079 1441l46.001 -46v-126l34 -137c-15.333 -145.333 -38.333 -218 -69 -218h-45c-21.333 0 -48 72.667 -80 218l-206 183
c-41.333 0 -68.333 15.333 -81 46v23l23 22h115c27.333 0 57.666 -15 90.999 -45h46c52.667 53.333 94.667 80 126 80zM850.001 1269v-11h46v11h-46zM129.001 811v-10.999c6 -68.667 25 -103 57 -103c30.667 0 50 23 58 69c38 9.33301 57 20.666 57 33.999v11h-172z
M1067 777.001c40.667 0 82.667 -30.332 126 -90.999l-45 -126l11 -46l-23 -103v-114l12 -46c0 -84 -42 -126 -126 -126c-66 -58.667 -180.667 -104.334 -344 -137.001c-34.667 14.667 -53.667 29.667 -57 45v12l126 91l-11 321l11 80c-32.667 76 -74.667 114 -126 114v23
c0 18 72.667 33.333 218 46l23 23l183 -23c0 38 7.33301 57 22 57zM484.001 342.002l34 -137l-11 -46l68 -68c0 -53.333 -26.667 -80 -80 -80c-228.667 53.333 -343 129.333 -343 228l46 35h23v-12l80 12h80c36 45.333 70.333 68 103 68zM183.001 -149.998l12 -12l80 12
c76 -2 114 -9.66699 114 -23l218 23h91l-114 -92h-172l12 -11v-35l-58 -11l-205 23l-172 -23l-23 34c0 53.333 23 80 69 80l11 12v11l80 -11h23zM996.001 -149.998h91.002l23 -23v-57h80c39.333 0 77.666 22.667 114.999 68h11l23 -23v-68
c0 -13.333 -49.667 -28.666 -149 -45.999l-331 23l-46 -12l-149 12h-11l-23 23c15.333 15.333 64.666 26.666 147.999 33.999c0 18 30.667 33.333 92 46l69 -12h11z" />
    <glyph glyph-name="H" unicode="H" horiz-adv-x="1501" 
d="M163 1728l103 0.000976562l23 -23l-115 -12c0 -28 46 -54.667 138 -80c0 15.333 57.667 30.666 173 45.999c0 22.667 107.333 41.667 322 57l12 12h11l23 -35l230 12h58v23h12c84 0 126 -11.667 126 -35v-57c71.333 0 121.333 23 150 69l92 11l11 -11v-92l-23 -23h-391
l-104 11l-69 -11l-11 11l-58 -11h-57l-104 11l-57 -23l-139 23l-46 -11h-46l-57 11l-69 -11h-92l-184 11l-46 -11l-12 11v23c34 54 76.333 81 127 81l69 -12v35zM876 1451l127 -33.999l103 11l70 -23l184 35l23 -35c0 -47.333 -34.667 -85.666 -104 -114.999l-11 -92
l23 -149l-23 -185l23 -92l-23 -126l23 -104l-23 -34l11 -46l-11 -115l23 -47l-12 -46l12 -80l-12 -81h46l12 12h11l12 -12v-23l-35 -34l-115 23l-81 -12l-115 23c-4 -30.667 -92 -49.667 -264 -57l-23 34c8.66699 61.333 24 92 46 92l11 -34h23l12 34l-12 115l23 162l58 -12
c15.333 0 23 30.667 23 92l69 12v11c-107.333 0 -161 15.333 -161 46l23 104v11h-127c-53.333 0 -80 27 -80 81v11c0 23.333 49.667 38.666 149 45.999l12 -11c0 46 7.66699 69 23 69c22.667 -28 34 -58.667 34 -92c18 0 29.667 26.667 35 80
c-15.333 35.333 -30.666 54.666 -45.999 57.999l-12 -11l-11 11l11 12v115l-34 115l57 80c-12.667 41.333 -66.334 95 -161.001 161c0 18 61.333 33.333 184 46zM220 1440l414.997 -0.000976562l34 -35v-34l-115 -115l23 -276v-69c-23.333 -28.667 -35 -55.667 -35 -81v-12
c0 -25.333 11.667 -52 35 -80l-23 -127l35 -149c-23.333 -8 -35 -31 -35 -69v-23l23 -127v-23l-23 -35v-23c30.667 0 73 -38.333 127 -115c-3.33301 -15.333 -22.666 -30.666 -57.999 -45.999l-276 58l-299 -46c-30.667 32 -46 62.667 -46 92c22.667 0 34 15.333 34 46
l46 23v138l-23 81c25.333 0 52.333 134 81 402l-12 35c40.667 0 71.334 27 92.001 81l-11 46h-23c-15.333 0 -30.666 -23.333 -45.999 -70h-35c-15.333 0 -23 11.667 -23 35l12 104c-15.333 0 -23 11.333 -23 34l46 138l-46 127v11h23v23l-23 35l23 23l34 -12zM242.997 1313
c30.667 -41.333 46 -75.667 46 -103h12c44.667 53.333 90.667 80 138 80c0 30.667 34.333 46 103 46c0 15.333 11.667 23 35 23l12 12v11l-208 12c-48.667 0 -94.667 -27 -138 -81zM231.997 1095l-12 -12v-34l12 -81h23l11 81zM910.997 1037l-23 -34v-23l23 -69l46 57
c0 38.667 -15.333 61.667 -46 69zM196.997 393l0.000976562 -23l46 -35c46 8 69 27.333 69 58c59.333 10.667 101.666 33.667 126.999 69c68.667 8.66699 103 20 103 34v58h-34l-150 -46c0 -30.667 -26.667 -46 -80 -46c0 -40 -27 -63 -81 -69zM150.998 300v-11l23 -23
l35 34l-12 35h-11zM308.998 -141c8 -22.667 31 -34 69 -34l150 23l11 -12h12l35 12l11 -46l35 23h11l35 -23h46c0 22.667 7.66699 34 23 34l46 -23l230 12c0 15.333 11.333 23 34 23l12 -12h11l46 12h12l23 -23l-11 -69h34c14 46 83 69 207 69h69l35 23h11l23 -23v-81
c0 -22.667 -111 -38 -333 -46l-70 23l-115 -11l-161 11l-11 -11v-12l-104 23l-92 -11l-57 11l-58 -11l-69 11l-12 -11h-11l-69 11h-92v12l11 11v12l-23 23l23 34l-23 23v12zM44.998 -152h23c37.333 -38.667 87 -58 149 -58l12 -11v-69l-81 -12l-103 35l-46 -12l-23 23
c0 15.333 15.333 23 46 23v35l-12 11v12z" />
    <glyph glyph-name="I" unicode="I" horiz-adv-x="772" 
d="M337 1734l161 -46.001l162 23l58 -12l70 23l11 -11v-93c0 -15.333 -11.667 -23 -35 -23l-115 12l-12 -12h-11l-70 12l-92 -12l-35 12l-185 -12h-69l-47 12l-161 -23l-12 11v81c0 18.667 38.667 30.334 116 35.001l208 -12c0 13.333 19.333 25 58 35zM368 1447
l80.999 0.000976562l35 -23l11 12h12l12 -12h11l81 23c46 -40 69 -74.667 69 -104c-76.667 0 -115 -46 -115 -138l-23 -81v-93c0 -58.667 15.333 -93.334 46 -104.001l-12 -58v-115l12 -104l-46 -128l58 -242l-12 -104c54 -38.667 81 -69.667 81 -93
c-25.333 -61.333 -52.333 -92 -81 -92l-116 57l-115 -23l-104 23l-116 -34c-65.333 0 -111.666 23 -138.999 69v12l23 23h58c30.667 103.333 46 219 46 347h47l-12 57c0 23.333 27 35 81 35v12c-92.667 0 -139 27 -139 81v127l-11 127l23 116l-12 46l12 104v69l-104 104v12
c0 23.333 111.667 46.333 335 69zM298.999 511c0 -23.333 -11.667 -35 -35 -35v-11c74 0 128 -8 162 -24l69 12h24v58h-220zM284.999 -155c15.333 0 23 -11.333 23 -34h35l46 34l115 -11l81 11l104 -11l105 11l11 -11v-58c0 -15.333 -42.333 -27 -127 -35l11 -11v-12
l-11 -11h-35l-69 11l-35 -23l-81 12h-81l-58 -12l-289 35l-57 -23l-12 11v23c0 55.333 54 90 162 104h162z" />
    <glyph glyph-name="J" unicode="J" horiz-adv-x="1119" 
d="M75 1728l111.999 -33l223 33l66 -22h12l345 22v-45h45l-12 12v22l56 11c37.333 -14.667 93 -22 167 -22l23 22h11l22 -22v-89l-22 -23h-78l-179 11l-11 -11h-11l-44 11l-45 -11l-11 11l-56 -11h-200l-90 23l-89 -23h-22l-67 11l-56 -11l-33 11l-67 -11h-44
c-15.333 0 -26.666 33.667 -33.999 101zM902.999 1442c82 -12.667 123 -46.333 123 -101c-60 -40.667 -90 -77.667 -90 -111h-11l11 -89l-22 -335l11 -78l11 -423c-55.333 -98 -170.333 -176 -345 -234c-26.667 -22.667 -64 -34 -112 -34c0 12.667 -22 24 -66 34l-12 56v22
c67.333 47.333 101 118 101 212l11 11v11l-11 33l11 11v12l-11 44l11 11h167l56 11v67c0 16.667 -33.667 28 -101 34l-144 -11l-23 66l45 491l-112 212v11c0 17.333 59.667 32 179 44l11 11l167 -44c50 0 98.333 18.667 145 56zM300.999 572.001
c66.667 -30.667 100 -78.999 100 -144.999v-33c-36 -36 -58 -80.667 -66 -134c-15.333 0 -30.333 -18.333 -45 -55v-12c44.667 -4.66699 67 -15.667 67 -33v-45c0 -22 -37.333 -36.667 -112 -44c-152 137.333 -233.667 222.666 -245 255.999c0 68.667 55.667 143 167 223z
M653.999 -150.998l56 -10.999l78 11l133 -22h56l89 22l11 -11h12l33 11l11 -11v-101c0 -14.667 -11 -22 -33 -22l-45 11l-100 -11h-11l-45 11l-45 -11l-100 11l-44 -11l-90 11l-33 -22l-134 11h-89l-100 -11l-34 22l-55 -11h-78l-134 11v23c62.667 59.333 125.667 89 189 89
l246 -23l66 12l56 -12c76 9.33301 120.667 20.666 134 33.999z" />
    <glyph glyph-name="K" unicode="K" horiz-adv-x="1437" 
d="M1351 1731l10.999 -45h11c0 22.667 7.66699 34 23 34h45l22 -23v-101h-79l-78 11l-23 -23h-11l-34 12l-68 -12l-237 12l-146 -12l-12 12l-56 -12h-147l-124 -11l-124 23l-102 -12l-90 12l-158 -23l-11 11v91l79 45c38.667 -22.667 76.334 -34 113.001 -34h67
c56 0 86.333 11.333 91 34c90 -8 135 -19.333 135 -34l169 11h57l101 -11l68 22l34 -22h34l90 22h11l45 -22zM216.999 1421l102 -56.001l180 11h68l34 22h22l23 -22v-45l-79 -91v-609l11 -214c-14.667 -34 -22 -83 -22 -147v-22c0 -59.333 33.667 -116 101 -170l11 -33
l-112 -34l-68 11l-169 -11l-79 11l-45 -11l-34 11l-57 -23l-124 57v11c40 52.667 74 79 102 79l22 -22v11l-11 56c6 60.667 25 91 57 91c-6 74.667 -17.333 112 -34 112l11 34l-34 215l11 11v11l-11 34l11 147l-22 56l22 102l-22 259c-46 16.667 -72.333 39.334 -79 68.001z
M1300 1398l34 -56.002c0 -24.667 -56.333 -54.667 -169 -90l-102 -91c0 -16 -33.667 -64.667 -101 -146v-11c30 -52 45 -97.333 45 -136c0 -18.667 -37.667 -48.667 -113 -90c0 -15.333 -37.667 -26.666 -113 -33.999c0 -30 -22.333 -45 -67 -45l-46 -23
c0 -30 -7.33301 -45 -22 -45l-23 23v34c42.667 90 125.667 187.667 249 293l45 203v23l-113 112v23c0 22.667 165.333 41.334 496 56.001zM1029 788.997l23 -22v-79c0 -28 26.333 -80.667 79 -158l135 -361c15.333 0 23 -11.333 23 -34c0 -30 -18.667 -45 -56 -45l-12 -45
h45c40.667 30 74.667 45 102 45l11 -12v-11c0 -22 -60 -44.667 -180 -68l-192 23h-11l-237 -11c-34.667 14.667 -53.667 29.667 -57 45v22c0 15.333 15 23 45 23v90c0 90.667 -37.333 215 -112 373v11l33 11l12 -11h11c14 0 32.667 22.667 56 68
c44.667 0 78.667 18.667 102 56c51.333 0 111.333 30 180 90zM205.999 506.997v-79h11v79h-11zM216.999 -158.003h79l226 -11v-11c-57.333 -75.333 -106.333 -113 -147 -113l-79 11l-68 -11l-11 11h-11l-11 -11h-12l-158 11h-33l-23 23v45c0 15.333 37.667 30.333 113 45h45
l34 -22h34c0 22 7.33301 33 22 33zM1063 -158.003l45 -45.001l350 34l11 -11v-90c0 -15.333 -11 -23 -33 -23l-12 11l-56 -11h-45l-136 11l-101 -11l-124 11l-215 -11l-90 11l-101 -11l-12 11v12c0 14.667 45.333 33.334 136 56.001l34 34h101l45 11l34 -11z
M329.999 -180.004v-23h56v12z" />
    <glyph glyph-name="L" unicode="L" 
d="M1069 1736c61.333 0 92 -19 92 -57h11c0 30.667 7.66699 46 23 46l12 -12v-91c0 -23.333 -15.333 -35 -46 -35l-57 12l-103 -12l-92 12l-34 -12l-80 12l-57 -12l-80 12c-30.667 -2 -46 -9.66699 -46 -23l-138 11h-91l-114 -11l-12 11v12l-80 -12h-80
c-84 0 -126 11.667 -126 35v34c0 28 65 47 195 57l11 12c12 -14 96 -25.667 252 -35l68 12l80 -12c0 23.333 7.66699 35 23 35h46c15.333 0 23 -19.333 23 -58l80 -11c0 15.333 11.333 23 34 23c0 15.333 19.333 23 58 23v11l80 -11h80zM57 1399h22.999v-11l114 11h81
c96 -14.667 164.333 -33.667 205 -57c66.667 15.333 112.667 34.333 138 57c40 0 62.667 -38 68 -114l-22 -23h-58c-22.667 -56.667 -34 -117.667 -34 -183l34 -275v-11l-34 -34l11 -35l-11 -34l23 -240c-29.333 -137.333 -56 -206 -80 -206
c-31.333 0 -69.666 -46 -114.999 -138v-34h58c0 33.333 15 60 45 80l35 57h23l34 -148l-149 -57l-91 34l-103 -23l-172 23l-46 -12l-23 35c0 15.333 34.333 30.333 103 45l12 12v126l-23 103l46 160v23l-23 69l11 251l-23 126l12 12h11l-11 80v23h11
c15.333 0 23 -11.667 23 -35h69v12c-38 0 -57 7.66699 -57 23v22c0 15.333 11.333 23 34 23l11 12v11c-76 0 -114 38.333 -114 115c-68.667 20 -103 35 -103 45v12zM296.999 1102v-23h35v23h-35zM159.999 690l-10.999 -34c11.333 -30.667 22.666 -46 33.999 -46l34 11
c0 46 -19 69 -57 69zM961 484c42 0 76.332 -22.999 102.999 -68.999v-91c0 -15.333 -11.333 -23 -34 -23l-12 -34l46 -229c-5.33301 -38 -16.666 -57 -33.999 -57h-12l-80 57l-252 -23l-34 46v11l126 57c7.33301 28.667 45.333 70.667 114 126l23 57h-34
c36 111.333 62.667 168.666 80 171.999zM190.999 -156.999h81l45 -34h23l34 23h115c56 0 86.333 -11.333 91 -34l172 22l160 -11l252 34h23l23 -23v-80c0 -22.667 -49.667 -34 -149 -34h-240l-183 11l-35 -11l-91 11l-46 -11l-69 11l-91 -11l-57 11l-161 -11l-114 11v69
l80 46l80 -23zM362.999 -247.999v-12h69v12h-69z" />
    <glyph glyph-name="M" unicode="M" horiz-adv-x="1561" 
d="M-4 1728l10.999 -11h12l11 11h11l34 -11l12 11h11l57 -23l114 12l262 -23l159 34h45l23 -23l-11 -45c28.667 -22.667 62.667 -34 102 -34h12c0 37.333 15 56 45 56c0 23.333 7.66699 35 23 35h45l35 -23c80.667 22.667 148.667 34 204 34h160v-34l-137 -12h-34v-11
c4.66699 -18 31.334 -37 80.001 -57c38.667 0 141 30.333 307 91v-79c-8 -23.333 -30.667 -35 -68 -35h-57l-57 12l-68 -12h-12l-159 12l-91 -12l-125 12l-205 -12l-114 12l-80 -12l-68 12l-91 -12l-159 12l-12 -12h-11l-11 12h-12l-34 -12l-125 12h-46l12 79l-23 23z
M200.999 1434c121.333 -30.667 181.999 -57.333 181.999 -80v-11h45v11c-22.667 0 -34 7.66699 -34 23l125 34c10 0 32.667 -53 68 -159l-22 -23v-45l34 22c0 -22.667 15 -34 45 -34l-11 -91c38 -61.333 57 -114.333 57 -159v-57h34c0 45.333 26.667 98.333 80 159l45 -170
c-8 -69.333 -42 -149 -102 -239c0 -33.333 -19 -90.333 -57 -171l11 -57v-80l-45 -113l11 -46c-28 -15.333 -58.333 -61 -91 -137h-11c-34.667 0 -76.334 95 -125.001 285c-13.333 2.66699 -40 55.667 -80 159l11 80c-63.333 100 -108.666 225 -135.999 375
c-18.667 0 -34 49.333 -46 148c-10.667 0 -37 68.333 -79 205c-40 0 -74.333 22.667 -103 68v23c12.667 30.667 39.334 46 80.001 46l34 -23h11c0 38 23 57 69 57zM1156 1400c58 -19.333 92.333 -46 103 -80l-23 -34c30.667 -41.333 46 -75.333 46 -102
c98.667 92 148 152.667 148 182h22l12 -46c-68.667 -48.667 -106.667 -82.667 -114 -102v-46l11 -102l-11 -103l11 -148l-45 -102l68 -125c-22.667 -20.667 -37.667 -66.334 -45 -137.001c-61.333 -4 -92 -26.667 -92 -68l-56 -11v-23l45 -34c38 0 64.667 22.667 80 68
l34 11l34 -102l-11 -68v-46l79 -114c-18 -45.333 -40.667 -68 -68 -68l-148 23l-11 -12h-12l-91 23l-136 -45c-136.667 33.333 -205 56 -205 68v11c0 12.667 45.333 43 136 91l-11 160l11 364c74 8 123.333 30.667 148 68c58.667 0 108 49.333 148 148l-11 34h-23
c-86.667 -98.667 -151 -148 -193 -148c0 -17.333 -19 -28.666 -57 -33.999l-23 91v273l-23 46c0 98.667 11.333 148 34 148h126c0 60.667 37.667 91 113 91zM1350 1400c53.333 -8 80 -19.333 80 -34h-114v22zM803.998 1093h34v-12l-23 -23l-11 12v23zM1225 1070l-12 -12v-34
l12 -79h11l23 22v34c0 40 -11.333 63 -34 69zM165.998 842.001c25.333 -32.667 44.334 -89.667 57.001 -171v-79c22.667 -28 34 -81 34 -159l-22 -171h11l91 -114c27.333 0 57.666 -22.667 90.999 -68v-12c0 -16 -41.667 -38.667 -125 -68h-91l-34 23h-80l-79 -12l-12 12v57
l137 114l-12 56v35c0 53.333 7.66699 95 23 125l-23 296l12 11v11l-12 69v11zM1145 285.001v-12l23 -23l34 35l-11 34h-12zM29.999 -157.999l113.999 -11l79 11v-34c-31.333 0 -61.666 -22.667 -90.999 -68h-136l-23 22v34zM552.998 -157.999
c53.333 0 80.002 -22.667 80.002 -68c0 -15.333 15.333 -23 46 -23c35.333 0 114.666 30.333 237.999 91l35 -11l182 11h22v-34h-56v-12c35.333 0 61.666 -7.33301 78.999 -22l34 11l12 -11v-69h-12l-91 12l-11 -12h-11l-35 12l-136 -12l-103 12l-56 -23l-137 23l-91 -12
l-57 12l-102 -12h-80c-98.667 0 -148 11.667 -148 35c114 9.33301 171 32 171 68h159zM1270 -157.999l125 -34l91 34h69l34 -34v-80l-12 -11v-12h-22v12l-114 -12h-148l-46 57l12 46l-23 23l11 11h23z" />
    <glyph glyph-name="N" unicode="N" horiz-adv-x="1410" 
d="M46 1733l81 -23l12 12h11c46 -11.333 69 -23 69 -35l231 23l70 -11l92 11l104 -11l104 11l46 -11l58 23c46 -23.333 92 -35 138 -35l69 23l70 -11l23 34c84.667 0 127 -15.333 127 -46l-12 -34h12l69 11l11 -11v-46l-23 -24l-69 24l-138 -24l-58 24l-116 -35l-277 35
l-196 -24h-23l-138 24l-116 -24l-58 12l-57 -12l-104 12l-69 -12l-12 12v81c0 15.333 15.333 23 46 23c0 22.667 7.66699 34 23 34zM93 1445l34.001 0.000976562l139 -46l23 34c254 0 381 -42.333 381 -127c0 -26.667 38.333 -72.667 115 -138l127 -346
c146 -158 219 -273.667 219 -347l-11 -11l11 -58v-81c23.333 -30.667 35 -69 35 -115c-11.333 -115.333 -38.333 -173 -81 -173h-23c0 -23.333 -7.66699 -35 -23 -35c-134.667 27.333 -219.334 66 -254.001 116v23h23v23h-23v-23l-46 57l11 12v11
c-15.333 0 -30.666 23.333 -45.999 70c-34.667 30.667 -61.667 80.667 -81 150c-42 19.333 -95.667 115.333 -161 288c38.667 0 58 15.333 58 46c76.667 4 115 35 115 93v34l-35 12c-22.667 0 -34 -19.333 -34 -58l-162 -23c-76.667 100 -134.334 211.667 -173.001 335
c-108 123.333 -185 188.666 -231 195.999v35c62 4 93 19.333 93 46zM1039 1422c30.667 -15.333 73 -23.001 127 -23.001l23 23h23c58 -8 88.667 -23.333 92 -46v-35c-100 -69.333 -150 -123.333 -150 -162v-103l12 -70c-26.667 -207.333 -49.667 -311 -69 -311
c-38.667 30.667 -58 65.334 -58 104.001l23 115l-35 150l24 81l-70 81c0 84.667 -15.333 127 -46 127l-11 11v35h23zM196.001 1064c62 -96 93.001 -180.666 93.001 -253.999l-12 -150l35 -150l-35 -219c23.333 -38.667 35 -81 35 -127h34c42.667 0 69.667 -15.333 81 -46
v-35c0 -38.667 -11.333 -61.667 -34 -69l-220 11l-34 -11c-77.333 7.33301 -116 22.666 -116 45.999c0 15.333 15.333 23 46 23c19.333 38.667 42.666 61.667 69.999 69l-12 12v11c15.333 119.333 42.333 200.333 81 243l11 46l-69 265v127h58v12
c-30.667 0 -46 7.66699 -46 23v35l23 34v12l-23 34v23zM658.002 972.001v-46h12v46h-12zM739.002 452.001l0.000976562 -11l58 -46l34 23h243v23l-12 11v12l-115 -12h-12l-23 23c0 19.333 15.333 31 46 35v12l-81 11c-22.667 0 -53.334 -19.333 -92.001 -58
c-30.667 0 -46 -7.66699 -46 -23zM-10.9971 -132.999h10.999l35 -35l11 12l173 -24c0 23.333 42.333 39 127 47l12 -35h12l34 23h46c77.333 0 116 -7.66699 116 -23l265 23l12 -11v-12c0 -23.333 -19.333 -35 -58 -35v-46h81l127 81h81l161 23l81 -35l104 12l11 -12v-80
l-11 -12v-11l-81 11l-138 -23c-131.333 15.333 -320 23 -566 23h-81l-46 -11l-11 11h-12l-12 -11h-11l-69 23c-31.333 -15.333 -73.666 -23 -126.999 -23l-70 11l-69 -11l-11 11h-12l-46 -11h-23c-54 0 -81 42.333 -81 127z" />
    <glyph glyph-name="O" unicode="O" horiz-adv-x="1386" 
d="M75 1727h47c46.667 0 70 -15.333 70 -46l92 23l12 -12l244 35l69 -35l128 35l197 -23l47 11l174 -11l46 11l70 -23h70l46 35l35 -35v-69c0 -19.333 -19.333 -31 -58 -35l-70 11l-336 -23l-163 23h-46l-105 -23l-185 23l-12 -11h-12l-35 11l-46 -11l-46 11l-58 -11l-58 11
l-70 -11l-81 11l-58 -11l-12 11v35l12 12c0 11.333 23 19 69 23c0 38.667 7.66699 58 23 58zM563 1448l12 -10.999v-12c0 -42.667 -81.333 -127.667 -244 -255c0 -8 -50.333 -15.667 -151 -23c-62 7.33301 -93 18.666 -93 33.999c46.667 62 151 131.667 313 209
c74 38.667 128.333 58 163 58zM842 1425c42 0 88.333 -30.999 139 -92.999c77.333 0 127.666 -50.333 150.999 -151c42.667 0 89 -123.667 139 -371c0 -100.667 -27 -151 -81 -151c-38.667 0 -58 -19.333 -58 -58l-116 -12h-140v-23c46.667 0 70 -7.66699 70 -23
c0 -30.667 -23.333 -46 -70 -46v-12l117 -12c88.667 0 154.334 23.333 197.001 70h23c0 23.333 7.66699 35 23 35h12v-81c0 -19.333 -19.333 -58.333 -58 -117c0 -119.333 -116 -231.333 -348 -336c-42.667 0 -104.667 -15.667 -186 -47h-12v58
c77.333 62 116 104.667 116 128l35 128v81l-23 128v23h35v12c-38.667 3.33301 -58 14.666 -58 33.999v35c19.333 104.667 46.333 162.667 81 174l35 -11l69 11l-11 12v12c0 46 27 69 81 69v12h-186v-23l12 -12v-12l-12 -11h-11c-31.333 50 -47 88.667 -47 116l24 139
c-12 15.333 -23.667 81.333 -35 198l-70 69v23zM482 1205l23.001 0.000976562v-174c-15.333 -19.333 -27 -58.333 -35 -117l23 -139l-23 -69l23 -24l-23 -418l139 -185c-11.333 -54.667 -26.666 -82 -45.999 -82c-294 85.333 -441 197.666 -441 336.999l-12 12v11l35 35v12
c-62 0 -104.667 42.333 -128 127l-34 35v23c22.667 31.333 34 66.333 34 105l-11 104c15.333 23.333 34.666 101 57.999 233c127.333 15.333 208.666 38.333 243.999 69c84.667 0 127 19.333 127 58c31.333 0 47 15.667 47 47zM934.001 -152.997
c8 -46.667 27.668 -70 59.001 -70c92.667 26.667 139 46 139 58l139 -12l47 12l11 -12h12l46 12l23 -35v-81l-11 -12v-11l-70 11l-93 -11l-69 23h-58l-70 -23l-46 11l-47 -11l-244 23l-116 -23l-58 11h-244c-38.667 0 -58 -7.66699 -58 -23l-162 23h-70l-23 23v58l93 47h46
l93 -12l93 12l12 -12v-11l-35 -35c7.33301 -31.333 26.666 -47 57.999 -47c26.667 62 111.667 93 255 93l12 12h11l24 -23h81l35 23l58 -12z" />
    <glyph glyph-name="P" unicode="P" horiz-adv-x="1343" 
d="M312 1725l11 -12l-11 -57v-23h23l11 46l12 -12h11l185 46l58 -11l81 11l23 -23l265 12l58 23l69 -23l127 23l92 -23l35 11l11 -11v-92l-23 -23h-80v23h57v34h-92l-23 -23l23 -34h-23l-219 11l-243 -23l-92 12l-127 -12l-35 23l-127 -23l-138 23l-242 -23l-23 35v80l23 23
l23 -23l11 12h12l57 -12c84.667 23.333 158 35 220 35zM889 1448c42 0 76.668 -22.999 104.001 -68.999l-12 -116l12 -34h11c11.333 0 23 27 35 81l46 23c92 -50 138 -142.333 138 -277l-11 -12v-11c23.333 -62 35 -127.667 35 -197
c-188.667 -200 -373.334 -300 -554.001 -300l-24 23l12 104v12c46 0 80.667 80.667 104 242c92 0 138 19.333 138 58h197v58c-54 0 -81 19 -81 57h-104c0 -38 -46.333 -57 -139 -57h-23l-23 23c12 30.667 35.333 46 70 46c0 76.667 -58 165 -174 265v12
c0 11.333 23.333 22.666 70 33.999l57 -11zM543.001 1436l11.002 0.000976562l12 -11h11l-11 -58c7.33301 -192 18.666 -288 33.999 -288c0 -115.333 -34.667 -200 -104 -254l-23 -46v-23l35 -35l58 35v-23l-12 -47l23 -69v-58l-23 -92l46 -115v-127l-11 -81
c61.333 -8 92 -38.667 92 -92l-185 -46l-196 34h-57c-27.333 0 -54.333 -11.333 -81 -34c-108 11.333 -162 30.333 -162 57v23h35c76.667 0 115 31 115 93v23l-23 127v23l116 11v23c-50.667 0 -104.667 46.333 -162 139l23 173l-12 11v12l24 58l-12 69l12 58l-12 92v12
c0 18.667 46.333 37.667 139 57c0 23.333 92 42.666 276 57.999l-11 11v12l23 69h-196c-30.667 0 -69.334 -15.333 -116.001 -46l-34 -11c-38.667 0 -65.667 30.667 -81 92l-115 127l23 23c46 0 69 -15.333 69 -46h115c0 38 61.667 57 185 57l127 -11zM889.003 1206v-23h46
l-12 34zM450.003 398.002v-12c8 -22.667 31 -34 69 -34h35v46c-30.667 22.667 -46 45.667 -46 69h-23c-23.333 -7.33301 -35 -30.333 -35 -69zM1267 -147.998h81.001l34 -35v-34c-18.667 -54 -49.334 -81 -92.001 -81l-485 23l-80 -11l-150 23l-162 -23l-11 11h-12l-46 -11
l-35 11l-69 -23l-162 12h-80l-35 34c0 54 54 81 162 81l161 -12l196 23l23 -23v-57h23v11l-11 35l35 11l11 -11h12l46 23l46 -12l219 12h12l57 -12l197 23l23 -23h69c0 23.333 7.66699 35 23 35z" />
    <glyph glyph-name="Q" unicode="Q" horiz-adv-x="1383" 
d="M-13 1725l117 -12l71 12l106 -24l47 12l12 -35h24l82 23l12 -11h12l12 11l70 -11c63.333 0 118.333 11.667 165 35l106 -35l36 23h71l70 -12l59 12l36 -12l23 24h83c15.333 0 23 -11.667 23 -35h12c0 23.333 8 35 24 35l94 -47v12l23 23l24 -23v-83l-24 -23l-58 11
l-307 -23l-165 23l-71 -11h-35l-106 11l-71 -23l-177 12h-176l-236 11v12l23 35c-23.333 0 -35 8 -35 24v35zM433 1439h128l24 -23c-85.333 -93.333 -128 -202 -128 -326l23 -163c-100.667 -108.667 -190 -163 -268 -163c-34.667 0 -61.667 -15.333 -81 -46l-105 -12l-12 12
v46c0 112.667 35 205.667 105 279l35 94v34l-12 59l222 139zM782 1439c116.667 -27.333 175.001 -58.333 175.001 -93c46.667 0 97 -42.667 151 -128c35.333 -15.333 54.666 -31 57.999 -47v-23c-77.333 0 -116 -23.333 -116 -70c0 -19.333 -19.333 -31 -58 -35v-11h151
c0 23.333 7.66699 35 23 35c62.667 -50.667 94 -140 94 -268v-46c0 -248.667 -81.667 -431 -245 -547v-24c0 -19.333 46.667 -38.666 140 -57.999c54 15.333 81 38.666 81 69.999h12l23 -23v-12c0 -96.667 -100.667 -154.667 -302 -174l-82 -12c0 27.333 -27 54.333 -81 81
l-117 -35l-11 12v93c0 15.333 19.333 23 58 23v47c0 11.333 -58.333 38.333 -175 81v35c0 27.333 54.333 47 163 59l24 -24h23l-23 221l34 245l-34 221v23c0 62 15.333 93 46 93v35l-23 35c0 15.333 15.333 23 46 23v24c-46 0 -92.333 27 -139 81l-12 70v11zM992.001 1137
v-12h46v12h-46zM457.001 846l23 -23.999v-104l35 -93l-35 -222l23 -81l-11 -12l11 -58v-23l-23 -35l-12 12h-198l-46 -12c-147.333 85.333 -221 236.666 -221 453.999l11 11l47 -11c70 0 139.667 23.333 209 70c70 0 105 19.333 105 58c46.667 0 70 23.333 70 70h12z
M1085 636.001v-46c23.333 0 35 -15.667 35 -47h23c0 31.333 15.667 47 47 47l35 93l-24 23h-11c-35.333 -46.667 -70.333 -70 -105 -70zM294.001 159.001l11 -12h117l139 12c31.333 -38.667 47 -69.667 47 -93h-12l-58 12l-151 -24l-105 93zM123.001 -148.999
c55.333 0 98.668 -11.667 130.001 -35c23.333 15.333 70.666 27 141.999 35l35 -35l23 23l59 -23l154 23l70 -23h59l95 23l11 -11l59 11h83l12 -11l11 11h36l35 -23l118 12l71 -12l70 23l24 -23v-94l-12 -12v-12l-59 12h-59l-141 -12l-118 12l-82 -12l-130 24l-24 -24
l-259 24l-271 -12h-259l-24 23v24c0 23.333 47 35 141 35l-23 36z" />
    <glyph glyph-name="R" unicode="R" horiz-adv-x="1452" 
d="M350 1727l23 -23.002h34l35 12l57 -12h58l92 23l46 -34l103 11h23v-11l81 11h184l69 23c95.333 -7.33301 149 -18.666 161 -33.999l46 34c84 -7.33301 126 -18.666 126 -33.999v-104h-11l-92 12l-115 -23l-69 11h-12l-80 -11l-357 23l-103 -12l-115 12l-46 -12l-115 12
l-92 -12l-35 12l-69 -23l-103 11h-58l-34 35v34c0 26.667 76.667 46 230 58l57 -12zM459 1451l69 0.000976562l34 -35v-34c-11.333 -23.333 -65 -50.333 -161 -81c0 -22.667 -42 -34 -126 -34h-161l-58 11v35h23v11c-53.333 0 -80 27 -80 81l34 11l207 -23
c146 15.333 219 34.666 219 57.999zM700 1428l34.999 -35l-12 -80l23 -81h23l12 58l-35 80l12 12h11l46 -35c42.667 38.667 85 58 127 58c168.667 -84.667 253 -176.667 253 -276l-12 -219l-138 -138h-46l-34 12l-58 -12h-149l-35 23l35 184l-23 150l11 46
c-7.33301 61.333 -41.666 115 -102.999 161v23zM561.999 1313l11.999 -12v-172l-35 -173c30.667 -57.333 46 -114.666 46 -171.999c-18.667 -149.333 -37.667 -249 -57 -299l11 -69l-11 -35c15.333 0 38.333 -84.333 69 -253c22.667 0 41.667 -15.333 57 -46v-23l-34 -34
h-35l-149 -12l-115 23l-276 -34c-38.667 11.333 -58 22.666 -58 33.999v12c0 46 34.667 80.333 104 103c34.667 92 61.334 138 80.001 138v35l-46 11l12 58v11c-30.667 0 -46 30.667 -46 92l11 58l-11 149l11 81l-11 11v12l23 161v172l-12 81h334
c30.667 0 72.667 30.667 126 92zM699.998 760.999l23.002 -0.000976562c19.333 -23.333 38.666 -35 57.999 -35v-11c0 -15.333 -11.667 -23 -35 -23l-11 -12v-11h138l80 69l12 -12v-11l-35 -35v-11c149.333 0 241.333 -50 276 -150l12 -57l-12 -35l12 -34l-23 -92v-58
l34 -34h23c26.667 0 53.667 11.333 81 34h23l11 -46c-34.667 -76.667 -111.334 -145.667 -230.001 -207l-34 12l-58 -12c-184 42.667 -276 123.334 -276 242.001l12 46c-11.333 46 -23 69 -35 69l12 115c0 107.333 -30.667 161 -92 161l-12 57v12zM873 208.998v-69h11
c0 68.667 53.667 103 161 103c0 30.667 27 46 81 46c22.667 0 34 7.66699 34 23v35h-138c-42 0 -65 -19.333 -69 -58c-34 0 -60.667 -26.667 -80 -80zM981 -152.002h46c15.333 0 23 -11.333 23 -34h46l-12 11v12l12 11l322 -34l23 23h11l23 -23v-81l-23 -23h-34l-46 12
l-92 -23l-483 23l-69 -12l-161 12l-150 -12l-34 12l-12 -12h-11l-35 12l-103 -23c-69.333 4 -104 11.667 -104 23l-57 -12h-69l-23 23v46c46 38.667 118.667 58 218 58v-12c0 -30.667 19.333 -46 58 -46l241 46l69 -11l81 11l46 -11l264 23l12 -12z" />
    <glyph glyph-name="S" unicode="S" horiz-adv-x="1107" 
d="M159 1725l103.001 -10.998l58 11l11 -34l12 11h11l34 -11l230 23l91 -23c84 7.33301 133.667 18.666 149 33.999l69 -34c103.333 7.33301 160.666 18.666 171.999 33.999h11l23 -23v-92l-23 -22h-160l-126 -12l-103 23l-69 -11l-12 11l-57 -11h-91l-46 11l-35 -11l-34 11
l-34 -11l-103 11l-253 -11l-11 11v57c0 11.333 61 34.333 183 69zM423.001 1461l34 -34.001l35 12l11 -12v-23c0 -42 -42 -87.667 -126 -137l-23 -92c53.333 -122 141.333 -183 264 -183l80 -46v-23c-11.333 -46 -38 -69 -80 -69l-104 -11l-45 11v-23
c45.333 0 68 -22.667 68 -68l-11 -12h103c0 30.667 26.667 46 80 46l69 69c53.333 0 114.333 -38.333 183 -115v-57c23.333 0 35 -7.66699 35 -23l-12 -34c23.333 -38.667 35 -77 35 -115v-11c-15.333 -145.333 -53.666 -244.666 -114.999 -297.999
c-61.333 -114.667 -134 -172 -218 -172c-64.667 -22.667 -125.667 -34 -183 -34l-23 57c0 30.667 61 65 183 103v126c0 122 -76.333 190.667 -229 206l-309 172l-126 275c19.333 0 30.666 26.667 33.999 80l-23 80l115 115h-46v11c22.667 42 103 99.333 241 172h46
c0 38 19 57 57 57zM915.001 1450l34.999 -0.000976562l23 -92v-57l-23 -114l34 -149c-11.333 -34.667 -34.333 -61.667 -69 -81h-22c-15.333 0 -27 46 -35 138c-53.333 95.333 -152.666 179.333 -297.999 252v23c0 22.667 38.333 41.667 115 57c61.333 -4 111 -23 149 -57
h23c45.333 30.667 68 57.334 68 80.001zM91 556c45.333 -38 68 -95.001 68 -171.001c15.333 0 46 -57.333 92 -172c38 0 99 -42 183 -126v-35c-7.33301 -22.667 -30 -34 -68 -34h-23l-69 46l-12 -12h-11l-57 35h-12c-34 0 -68.333 -23 -103 -69h-11
c-19.333 0 -42.333 72.667 -69 218l11 126v91c0 38.667 23 69.334 69 92.001zM927 533.999c0 -30.667 -26.667 -50.001 -80 -58.001v-23l68 -46c46 30.667 69 61.334 69 92.001l-11 35h-46zM113 223.998c0 -22.667 -26.667 -41.667 -80 -57v-12l35 -34h80v80l11 12v11h-46z
M10 -144.002l12 -11.999h11l35 12l172 -34c60.667 3.33301 91 14.666 91 33.999l35 -12l91 12l241 -23l252 23l11 -12v-11c0 -34.667 -22.667 -57.667 -68 -69v-11l11 -12v-11l-57 -23l-138 23l-46 -23l-297 23l-115 -12l-11 12l-58 -12h-183l-23 23v92
c0 15.333 11.333 23 34 23zM1099 -167.001h34v-92c0 -18.667 -49.667 -30 -149 -34v46l12 11c0 15.333 26.667 23 80 23c0 30.667 7.66699 46 23 46z" />
    <glyph glyph-name="T" unicode="T" horiz-adv-x="1358" 
d="M71 1725h12l113 -11l-11 -57h11l285 11c0 30.667 7.66699 46 23 46h91l34 -23h12l79 11l23 -23l69 23h113l69 12l57 -12l91 23h91c38 0 72.333 -11.333 103 -34l34 23l22 -23v-80l-22 -23l-160 12l-262 -23l-114 23l-125 -23l-114 23l-114 -12l-114 23l-136 -23l-148 12
h-103v68c0 15.333 19 23 57 23zM45 1454l160 -10.999l45 11c61.333 -30.667 92 -72.334 92 -125.001c-76 -30.667 -114 -87.667 -114 -171c-19.333 0 -38.333 -68.333 -57 -205l-46 -34h-34c-26.667 0 -45.667 41.667 -57 125v91c0 15.333 11.333 23 34 23v45
c-22.667 0 -34 7.66699 -34 23s15.333 23 46 23v34c-53.333 4 -80 53.333 -80 148zM809 1431c37.333 -11.333 56 -30.333 56 -57c0 -114 -22.667 -171 -68 -171c-38 -38 -98.667 -57 -182 -57c-114 0 -171 15.333 -171 46l-11 137c34 0 125 30.333 273 91zM991 1431v-23
l-34 -11l-12 11v12l12 11h34zM1184 1431c30.667 -56.667 46 -113.668 46 -171.001l-23 -102l12 -103c-23.333 -90.667 -42.333 -136 -57 -136h-35c-11.333 0 -26.333 26.333 -45 79l11 103c0 56.667 -30.333 121.334 -91 194.001l-11 34l136 91zM831 1146l34 0.000976562
c0 -37.333 -7.33301 -56 -22 -56l22 -160l-22 -80l11 -34l-23 -45l12 -46l-12 -182l34 -217l-22 -148h11l103 -68v-23l-69 -68l-57 11l-125 -23l-80 23l-102 -23l-91 46l-91 -11l-35 11v23c60.667 45.333 91 117.333 91 216v103c23.333 45.333 46.333 68 69 68
c0 11.333 -19 22.666 -57 33.999v23l23 46c-8 60.667 -27 110 -57 148l34 45l-23 274c30.667 7.33301 61 26.333 91 57h23v-12l-11 -11v-12h170c23.333 30.667 73 46 149 46zM649 -127.999c22.667 -15.333 53 -22.998 91 -22.998c0 -26.667 -11.333 -53.334 -34 -80.001
l11 -34l-11 -11h-68l-46 11l-11 -11h-12l-11 11h-11l-80 -11l-46 11l-102 -11h-34l-103 11l-68 -23c-91.333 8 -137 19.667 -137 35v45c0 15.333 34.333 30.666 103 45.999l91 -12l45 12l80 -12l91 34l68 -34c91.333 4 156 19.333 194 46zM1298 -139.997l91.001 -34v-102
h-22c-53.333 0 -95.333 -7.66699 -126 -23l-68 11l-68 -11l-80 11l-80 -11c0 15.333 -11.333 23 -34 23l-11 -12l-57 12l-80 -12l-11 12v11c0 30.667 19 46 57 46l34 11c11.333 30.667 22.666 46 33.999 46h102l126 -23h34c18.667 15.333 71.667 30.333 159 45z" />
    <glyph glyph-name="U" unicode="U" horiz-adv-x="1316" 
d="M-31 1728c53.333 0 80 -7.66699 80 -23l57 12h92l34 -23c80 0 133.333 11.333 160 34h92l23 -23l11 12h58c15.333 0 23 -11.667 23 -35l194 35l69 -23l103 23l34 -23h23l80 23l69 -12l23 23l69 -11l34 11l46 -34v-80l-23 -23h-149l-263 11l-218 -11l-46 11l-57 -11
l-23 23l-297 -35l-69 12h-92l-46 -12l-68 23l-35 -11l-11 11v103zM553 1455c0 -61.333 -26.668 -99.667 -80.001 -115c-15.333 0 -34.666 -15.333 -57.999 -46h-114l-172 -11v11c0 15.333 11.667 23 35 23v35h-69c-57.333 0 -88 11.333 -92 34c11.333 30.667 23 46 35 46h34
l286 -12zM1091 1443c38 -30.667 76 -45.998 114 -45.998l12 -11v-11c-99.333 -122.667 -149 -233.334 -149 -332.001l-23 -35l34 -137l-34 -218c22.667 -38 34 -76 34 -114c0 -187.333 -57 -351.333 -171 -492l-35 -12c-99.333 4 -149 15.333 -149 34v35l184 103l68 206v11
l-34 229c4 160.667 19.333 241 46 241l-23 206c38 0 68.333 19 91 57v46h-11l-34 -23h-35c-18.667 11.333 -49 53.333 -91 126c-42 0 -68.667 15.333 -80 46c0 15.333 95.333 45.666 286 90.999zM598.999 1375h11v-23l-46 -35v23zM529.999 1306l23 -0.000976562v-12
c-23.333 -45.333 -42.333 -125.333 -57 -240l22 -126l-11 -103l11 -69l-22 -80l11 -149l-160 -91c-61.333 0 -103.333 -19 -126 -57c-53.333 -4 -80 -11.667 -80 -23c3.33301 -19.333 22.333 -34.666 57 -45.999v-34h11c0 30 26.667 45 80 45l12 12l23 46
c72.667 0 130 22.667 172 68h22v-80c0 -144.667 42 -224.667 126 -240v-69c0 -11.333 -64.667 -26.666 -194 -45.999h-12c-84 61.333 -168 99.666 -252 114.999c-68.667 49.333 -103 137 -103 263l12 229c-19.333 0 -31 26.667 -35 80l23 321l-34 148c0 54 30.667 81 92 81
l263 -12c49.333 0 91.333 23 126 69zM598.999 -143l45.001 -0.000976562l35 -23l68 11c19.333 -15.333 80.666 -26.666 183.999 -33.999l114 34l34 -11l12 11h11l69 -23h103l34 23h12l23 -23v-80c0 -15.333 -11.667 -23 -35 -23l-137 -11l-229 11h-11l-252 -11l-149 11
l-46 -11l-57 23l-57 -12h-92l-126 -11l-11 11h-12l-34 -11l-12 11l-57 -11h-11c-38.667 0 -61.667 11.333 -69 34v69l149 23l103 -12h103l23 23l103 -23c38 23.333 95.333 35 172 35z" />
    <glyph glyph-name="V" unicode="V" horiz-adv-x="1316" 
d="M221 1725l136 -22.999h57v-34c-72 0 -117.333 -22.667 -136 -68l-228 -34c-52.667 18.667 -79 33.667 -79 45v23c4 11.333 87.333 41.666 250 90.999zM754 1725l57 -22.999l114 12c60.667 -4 91 -15.333 91 -34l79 11h159l34 23h46v-91c-19.333 -30.667 -65 -46 -137 -46
l-340 12l-12 11v11l34 46h-79v-11l23 -35c-38 -22.667 -79.667 -34 -125 -34l-12 12l-136 -23l-170 23v22h79c83.333 0 136.333 26.667 159 80c0 11.333 45.333 22.666 136 33.999zM1072 1452l33.998 -11.001l46 11c34 -14.667 53 -29.667 57 -45v-23
c-11.333 -68 -45.666 -102 -102.999 -102c-68 -64 -102 -124.333 -102 -181c0 -38 -22.667 -114 -68 -228c0 -79.333 -19 -189 -57 -329h-34v12l23 68c-30 41.333 -45 83 -45 125v158c52.667 30.667 79 129.334 79 296.001v22l34 12v22
c-41.333 0 -86.666 34.333 -135.999 103v11l45 57h46zM367.998 1430l273 -11.999l11 -11v-57l-68 -79v-23l23 -23l-12 -79c26.667 -178 68.334 -299 125.001 -363c26.667 -64.667 49.667 -182 69 -352l22 -34c-18.667 -166.667 -52.667 -280.334 -102 -341.001
c-18.667 -18.667 -75.334 -33.667 -170.001 -45l-114 34v79c0 45.333 -15 87 -45 125v23h91v11c-34.667 0 -65 11.333 -91 34l34 57c-53.333 0 -80 19 -80 57l-125 352c49.333 37.333 95 56 137 56v23h-114c-75.333 128.667 -113 253.667 -113 375l-125 102v11
c0 15.333 18.667 23 56 23l12 34l79 -11zM856.998 1350v-22l34 11v11h-34zM322.998 771.002v-11h148l68 45h-114c-34 -22.667 -68 -34 -102 -34zM560.998 692.002h34v22h-11zM140.998 -149.998l91.001 -12.001l68 12l125 -12l91 12l11 -12v-11
c-41.333 -30.667 -75.333 -46 -102 -46v-34h68c30.667 0 102.667 30.333 216 91l102 -11l114 11l57 -22l249 34c68.667 -11.333 103 -26.666 103 -45.999v-91h-80l-45 12l-46 -23l-125 11l-91 -11l-227 23l-283 -12h-23l-23 23c-90.667 -15.333 -204.334 -23 -341.001 -23
h-68v34h34v23c0 15.333 -11.333 23 -34 23v23zM61.999 -195.999v-34h79v23z" />
    <glyph glyph-name="W" unicode="W" horiz-adv-x="1812" 
d="M739 1728l92.001 -23.001h162l23 -23c-108 -19.333 -162 -34.666 -162 -45.999c0 -19.333 -57.667 -38.666 -173 -57.999v-11l-81 11l-69 -11l-46 11l-162 -11l-92 11l-47 -11l-46 11l-92 -11c-54 11.333 -81 26.666 -81 45.999v81l23 23h23l35 -35l11 12l162 -23l243 34
h115c15.333 0 23 -11.333 23 -34c27.333 0 73.666 19 138.999 57zM1801 1694h34.999v-93c0 -15.333 -11.667 -23 -35 -23l-242 -11l-150 11l-35 -11l-104 11h-23l-277 -11l-47 11v23l255 12h381c30.667 0 111.334 27 242.001 81zM1027 1440
c27.333 0 73.667 -92.3311 139 -276.998l46 -47l-23 -127c0 -34.667 27 -111.667 81 -231l23 -92l-12 -12v-11l35 -150l-11 -69l11 -197c0 -61.333 -61.667 -142 -185 -242c-122.667 22.667 -184 84 -184 184c-27.333 42.667 -46.666 116 -57.999 220l11 46
c-84.667 134.667 -127 231 -127 289c131.333 19.333 197 34.666 197 45.999s57.667 30.666 173 57.999c0 22.667 15.333 34 46 34v47h-81c-15.333 -38.667 -77 -58 -185 -58c0 -38.667 -34.333 -58 -103 -58h-35l-23 23v220l69 288c61.333 77.333 126.666 116 195.999 116z
M1663 1428l34 -33.998v-12c-11.333 -26.667 -57.333 -61.334 -138 -104.001c-92.667 -238.667 -139 -404 -139 -496l-58 -70l-69 150l12 12h69v23l11 81l-46 11l23 104l-11 35c46 0 69 23 69 69c0 69.333 -54 119.333 -162 150v12c0 11.333 31 26.666 93 45.999l69 -11
l46 11l70 -23c42 0 84.333 15.333 127 46zM369.001 1417c65.333 0 111.67 -11.666 139.003 -34.999h34c38.667 0 58 11.667 58 35h23c15.333 0 30.666 -27 45.999 -81c-34.667 0 -61.334 -42.333 -80.001 -127c38 -119.333 84 -323.333 138 -612l35 -70
c-30.667 -169.333 -69.334 -319.333 -116.001 -450c0 -46 -11.333 -69 -34 -69c-134.667 0 -215.667 42.333 -243 127v23l12 81c-62 72.667 -93 122.667 -93 150l-11 69l11 93v11c23.333 0 35 11.667 35 35l58 81c-84.667 0 -127 11.333 -127 34l-93 173v12l35 46v35
c-54 0 -81 50 -81 150c-19.333 15.333 -31 65.333 -35 150v35c-53.333 15.333 -80 30.666 -80 45.999v11l23 24l11 -12l58 12h35l57 -12c0 23.333 61.667 35 185 35zM508.005 770.004v-23c61.333 0 92 -19.333 92 -58h58l11 58l-11 46h-127zM1801 -141.996l35.001 -35v-58
c-8 -22.667 -35 -41.667 -81 -57l-127 11l-127 -11l-12 11h-11l-104 -11h-12l-46 11l-35 -11l-150 11l-11 -11h-12l-46 11h-46l-23 -23l-139 12h-92l-104 -12l-35 23l-81 -11h-46v34h-81l-69 -46l-219 23l-162 -11v92l23 23h162l69 23l46 -11l93 11
c34.667 -38.667 80.667 -61.667 138 -69l35 11v12c-69.333 0 -104 7.66699 -104 23l46 23l162 -11l34 11c81.333 -7.33301 127.666 -19 138.999 -35c69.333 23.333 146.333 35 231 35h23c23.333 0 35 -15.333 35 -46l11 11h12l369 24l58 -12l231 12z" />
    <glyph glyph-name="X" unicode="X" horiz-adv-x="1364" 
d="M557 1728l35 -35.001h92l35 23l92 -23l127 23l35 -11l69 11l23 -23l-57 -23v-46h69c0 34.667 100 61.667 300 81l12 -12v-92l-23 -23l-81 11l-81 -11l-69 23h-58l-58 -12l-23 23c-46 -3.33301 -69 -14.666 -69 -33.999l-254 23l-81 -12l-12 12l-58 -12h-265
c-38.667 0 -58 -7.66699 -58 -23l-196 23h-12l-23 23v58l69 46c81.333 -7.33301 131.333 -18.666 150 -33.999c69.333 7.33301 112 18.666 128 33.999h69l69 -11zM407 1451l114.998 -57.999h24c26.667 0 53.334 11.667 80.001 35h12l23 -23v-35
c-23.333 -30.667 -35 -65.334 -35 -104.001l104 -231c0 -62 27 -116 81 -162l127 -300c38.667 -73.333 73.334 -112 104.001 -116c46.667 -157.333 112.334 -269 197.001 -335l-58 -92l-81 11h-35c-26.667 -22.667 -53.334 -34 -80.001 -34c-31.333 0 -47 7.66699 -47 23
l12 46l-35 46h-127l23 -23l35 12l11 -12v-34l-46 -47h-104c-57.333 0 -111 23.333 -161 70c0 15.333 19 23 57 23v104c0 57.333 -38.333 122.666 -115 195.999c-27.333 38.667 -62 127.334 -104 266.001c-11.333 0 -38.333 42.333 -81 127l23 23v12
c-46 26.667 -88.333 99.667 -127 219c-54 50 -81 92.333 -81 127v104c-76.667 11.333 -115 46 -115 104c46 11.333 69 23 69 35l81 -12h23zM914.998 1439l57.999 -23.002l81 12l69 -12l12 12h11c30.667 -12 46 -23.667 46 -35v-12c0 -57.333 -46 -95.666 -138 -114.999
c-23.333 -15.333 -65.666 -80.666 -126.999 -195.999l-81 -70h-12l-46 46v12l23 46l-11 46l34 58v81l-57 69v23c0 12 46 31.333 138 58zM337.997 491.998l11.002 -0.00292969c23.333 0 42.666 -34.667 57.999 -104c-65.333 -69.333 -100 -134.666 -104 -195.999
c92.667 -69.333 139 -111.666 139 -126.999c-12 -31.333 -31.333 -54.666 -58 -69.999c-42.667 23.333 -85 35 -127 35l-127 -12c-69.333 8 -104 23.667 -104 47v11c146 80.667 219 154 219 220c54 15.333 81 38.333 81 69c-38.667 11.333 -58 23 -58 35
c27.333 57.333 50.666 88 69.999 92zM360.999 -161.005l115.001 -35l116 23l58 -11h150l92 23l69 -23h12l139 23l208 -12l57 12l12 -12v-104l-23 -23l-12 12l-81 -12h-11c-27.333 0 -54.333 11.667 -81 35h-12c0 -23.333 -7.66699 -35 -23 -35h-69l-139 12l-104 -12l-127 12
l-196 -12l-116 12l-80 -12l-70 12l-104 -12c-115.333 0 -173 11.667 -173 35v46l23 23h231c15.333 15.333 61.666 27 138.999 35zM1204 -208.005c4 -38 11.667 -57 23 -57c84.667 0 127 19 127 57h-150z" />
    <glyph glyph-name="Y" unicode="Y" horiz-adv-x="1374" 
d="M1035 1727c34.667 -15.333 54 -30.666 58 -45.999l242 46l58 -35l-11 -46l11 -57l-11 -12h-12l-115 12l-47 -12l-103 12l-104 -12l-12 12h-11l-69 -24l-104 12l-127 -12l-185 24l-219 -24l-69 12l-58 -12c-115.333 4 -173 15.667 -173 35v46
c0 27.333 104 46.666 312 57.999c0 -19.333 19 -31 57 -35l104 23l58 -11l80 23l70 -23h34v23h58v-12l-12 -11v-12h70v12h-23v34l57 -11h116zM615 1439l11.001 -0.000976562c15.333 0 27 -38.667 35 -116l-46 -23c0 -96 65.333 -280.667 196 -554
c7.33301 -122.667 26.333 -241.667 57 -357l-34 -139v-11c0 -38.667 38.333 -81 115 -127c-22.667 -69.333 -42 -104 -58 -104l-230 23l-116 -35c-46 0 -69 15.667 -69 47h-104l-80 -12l-12 12v34c0 15.333 15.333 23 46 23l58 46l11 35l-23 138c0 77.333 27 116 81 116
l-12 58v11l24 35c-46.667 0 -70 26.667 -70 80c-38 0 -68.667 34.667 -92 104c-11.333 4 -57.333 131 -138 381v12c26.667 0 45.667 19 57 57c62 0 93 15.333 93 46c3.33301 38.667 22.333 58 57 58v12h-92c-34.667 -15.333 -77 -57.666 -127 -126.999h-23
c-15.333 0 -50 53.667 -104 161l-34 35l23 23l11 -12h12l11 12h12l92 -12c69.333 38.667 115.666 58 138.999 58l115 -23c126.667 4 196 15.667 208 35zM1191 1439l35 0.000976562c15.333 0 27 -23.333 35 -70c-12 -34.667 -66 -77 -162 -127l-161 -392
c-23.333 0 -35 -15.333 -35 -46h-35v81l-23 46c69.333 150 104 250 104 300c0 26.667 -42.333 69 -127 127v11c0 15.333 80.667 34.666 242 57.999l58 -12zM626.001 262c-15.333 -19.333 -23 -46.333 -23 -81c-30.667 0 -46 -15.333 -46 -46l-69 -58v-23h34
c38.667 0 77.334 30.667 116.001 92c3.33301 31.333 18.666 47 45.999 47c-8 34 -27.333 57 -58 69zM9.00098 -163l81 -22.999l208 23l34 -34l35 23l23 -23l150 23l150 -12l127 12l69 -12l138 23l58 -23l104 12l138 -12l81 12v-92l-11 -12v-11l-162 11l-196 -11l-35 11
l-427 -23l-115 12l-35 -12l-103 12h-162l-46 -12c-84.667 11.333 -127 30.666 -127 57.999v57z" />
    <glyph glyph-name="Z" unicode="Z" horiz-adv-x="1156" 
d="M313 1730l81 0.000976562c15.333 0 23 -15.333 23 -46l58 34l34 -23l197 12h69l104 -12l92 23l115 -11l23 23h58l23 -23v-81l-23 -34l-115 11h-46l-47 -11l-11 11l-58 -11h-46l-127 11l-150 -11h-104l-46 -12l-115 23l-104 -11l-127 11l-92 -11l-12 11v46
c0 23.333 38.333 42.666 115 57.999h197zM134 1441l300 -46v-12l-92 -92h-254c-15.333 0 -23 19.333 -23 58c-38.667 0 -58 11.333 -58 34c0 34.667 42.333 54 127 58zM630 1406l104.001 -34.001l196 34h47l34 -23l-81 -300c-76.667 -100 -119 -211.333 -127 -334
c-46 0 -88.333 -73.333 -127 -220c-26.667 -18.667 -72.667 -122.334 -138 -311.001c-19.333 -8 -46.333 -81 -81 -219h-23l-346 34l-46 -11c-30.667 0 -50 30.667 -58 92c8 54 19.667 81 35 81h11v-23h12c0 53.333 11.333 80 34 80h58c0 31.333 27 58.333 81 81
c0 23.333 30.667 35 92 35c50 46 96.333 69 139 69c0 46 19 69 57 69l23 70v11l-46 23c-50 -57.333 -123 -119 -219 -185h-81l-23 24v11c8 34.667 65.667 142.334 173 323.001c27.333 130.667 69.666 242.334 126.999 335.001l12 35l-12 11v12c15.333 84.667 50 150 104 196
zM284.001 1279h23v-11c-69.333 -61.333 -104 -111.333 -104 -150l-138 -139h-23l-35 24c0 153.333 27 230 81 230l35 12l11 -12h12c57.333 0 103.333 15.333 138 46zM607.001 1026v-12l23 -23h70c0 46 38.333 69 115 69c0 38.667 30.667 58 92 58l23 58h-11
c-100 0 -177 -23.333 -231 -70c-23.333 0 -50.333 -26.667 -81 -80zM573.001 899l11 -35h35v69l-12 58c-22.667 -4 -34 -34.667 -34 -92zM526.001 714l-11 -46l11 -58h12l23 23l-23 81h-12zM930.001 460c27.333 0 54.333 -11.667 81 -35l-23 -138l46 -254l-138 -34h-35
l-46 11l-92 -23c-131.333 8 -197 23.333 -197 46v23c31.333 30.667 120 77 266 139c54 30.667 81 92 81 184c22.667 54 41.667 81 57 81zM564.001 -155l23 -22.999l58 11c38.667 0 58 -7.66699 58 -23l115 12h208l69 -12l69 23l12 -11v-92l-23 -23h-12l-81 11l-104 -11h-34
l-208 11l-150 -23l-11 12v11l-174 -11h-57l-46 11l-47 -11h-103c-100 0 -150 11.333 -150 34v35c0 15.333 38.333 30.666 115 45.999l58 -12l11 12h12l69 -23h46v11h-46v23h12z" />
    <glyph glyph-name="bracketleft" unicode="[" horiz-adv-x="236" 
d="M250 1728l23 -23v-91c0 -15.333 -11.333 -23 -34 -23l-11 11h-12l-68 -11l11 -46c0 -38 -45.667 -57 -137 -57l-23 23c0 76 23 114 69 114c0 38 49.333 61 148 69zM125 1419h11v-91l12 -92l-12 -45l12 -160l-12 -57l12 -126v-160l11 -69l-11 -57v-46l11 -68l-23 -92
l12 -137l-12 -299c4 -53.333 11.667 -80 23 -80l103 12l11 -12v-91c0 -23.333 -38 -35 -114 -35c-99.333 0 -149 11.667 -149 35l46 103v11h-11l-12 -11h-11l-12 11l12 57l-23 208l23 80l-12 57l12 11v12l-12 34l12 126v45c0 15.333 19 23 57 23v35l-23 68
c-30.667 0 -46 7.66699 -46 23v23l12 114l-12 46l12 69l-12 91l58 23v11c-38.667 0 -58 30.667 -58 92l-11 11l23 23l-12 80v137h23v-34h23c0 22.667 23 53 69 91zM159 -206v-22h23l57 11v11h-80z" />
    <glyph glyph-name="backslash" unicode="\" horiz-adv-x="596" 
d="M451 1728c122 -4 183 -19.333 183 -46v-68l-23 -23h-46l-23 23v11c0 15.333 11.667 23 35 23v23h-92l12 -80l-12 -12l-80 23l-91 -23h-115l-171 12c0 22.667 84 38 252 46c0 60.667 57 91 171 91zM-29 1717h46l45 -12l35 12v-35c-76.667 0 -115 -22.667 -115 -68h-11
l-23 23v57zM159 1513h11.998c22.667 0 45.334 -102.667 68.001 -308c11.333 0 23 -38.333 35 -115c30 0 49 -76 57 -228l-12 -46l115 -343v-23l-12 -57c38 -19.333 72.333 -76.333 103 -171l-11 -46c7.33301 -57.333 26.333 -103 57 -137l-12 -12v-11l12 -57l-92 -35
c-22.667 0 -49.334 26.667 -80.001 80l12 103c-53.333 80 -103 217.333 -149 412c-15.333 3.33301 -30.666 22.333 -45.999 57c0 76 23 114 69 114v12c0 11.333 -23 26.333 -69 45v12l23 34c-68.667 0 -103 49.667 -103 149l-23 80l12 91l-114 343l-12 12v11h23
c64.667 0 110.334 11.333 137.001 34zM-35.002 -146l80 -23l80 23l91 -11v-12c0 -11.333 -30.333 -34 -91 -68v-46h-114c-38.667 0 -61.667 11.333 -69 34v80zM604.998 -157l23 -23v-92l-12 -11v-12l-57 12l-57 -23l-68 23l-46 -12l-80 12l-103 -23l-46 34v12h23l194 80h195
z" />
    <glyph glyph-name="bracketright" unicode="]" horiz-adv-x="260" 
d="M151 1734l11.0029 0.000976562c19.333 0 30.666 -38 33.999 -114l-11 -12v-11l11 -57l-11 -92l11 -11h12l-23 -217l23 -115l-23 -68v-92l11 -114l-11 -91l11 -81l-11 -45l11 -35l-11 -102v-35l11 -91l-11 -69l11 -274l-11 -69l11 -68l-11 -160h-11l-138 -12
c-60.667 4 -91 15.667 -91 35v45c4 23.333 34.333 35 91 35h35v34h-12l12 69l-23 377c15.333 0 23 11.333 23 34l-23 137c11.333 38 22.666 57 33.999 57h57v35l-91 45l11 172v57l-11 46l23 68l-12 103v69c0 15.333 19 23 57 23v11l-34 46c8 30 23.333 45 46 45v12
c-46 0 -69 61 -69 183v11l12 12v11l-23 114l11 12l-68 11l-35 -11l-11 11v115h23l23 -23c91.333 7.33301 144.666 18.666 159.999 33.999z" />
    <glyph glyph-name="underscore" unicode="_" horiz-adv-x="980" 
d="M410 1734c136.667 0 205 -19 205 -57l34 -57l-23 -23h-22l-148 -11c-60.667 4 -91 11.667 -91 23l-80 -12h-239c-38 0 -60.667 11.667 -68 35v56l11 12v11h23v-11l250 23l23 -23h46c26.667 22.667 53 34 79 34zM843 1734l159 -11v-103l-11 -11v-12l-91 12l-205 -12v23
c0 11.333 53 30.333 159 57l-23 23h-79v23zM925 334l11.001 0.000976562l12 -11h11l-11 -80v-91l-35 -114h-102l-148 -11l-57 11l-182 -34l-79 11l-12 -11h-11c-34 15.333 -83.333 23 -148 23h-114c-18.667 0 -30 15 -34 45l11 34c-22.667 0 -34 42 -34 126
c15.333 0 30.666 22.667 45.999 68l57 11h34c15.333 0 23 -11.333 23 -34l34 11l11 -11h11l12 11h11l57 -34h11c34.667 0 72.667 23 114 69h12l307 -35c102 15.333 162.667 30.666 182 45.999zM572.001 106.001v-22h46l-23 22h-23zM69.001 -165.999h34
c15.333 0 23 -22.667 23 -68l91 45l11 -11l46 11l409 23l148 -23l103 23l68 -11v-91l-23 -23h-409l-69 11l-57 -11h-159l-68 11l-57 -23l-182 23v57c0 15.333 19 23 57 23z" />
    <glyph glyph-name="a" unicode="a" horiz-adv-x="1416" 
d="M643 1727c208 0 312 -19.333 312 -58h23c29.333 30.667 99 46 209 46c0 -16.667 31 -32 93 -46c79.333 8 129.333 19.667 150 35l12 -12v-69l-23 -23h-70l-162 -24l-324 24l-81 -12l-47 12l-11 -12h-24v12l-370 -24l-104 24l-12 -12l-58 12l-162 -24l-46 35
c0 62 57.667 93 173 93l232 11l23 -23h23l151 23l11 -11h12l46 11v-23h12zM921 1440l10.998 -11l-11 -81c4 -46 27 -92.333 69 -139v-174l116 -359v-12l-12 -34l70 -209l-12 -69c21.333 0 37 -38.667 47 -116l-12 -70h12c61.333 -22 92 -56.667 92 -104v-23l-35 -12l-57 12
c-51.333 -23.333 -105.666 -35 -162.999 -35h-34l-81 23l-209 -23c-35.333 15.333 -54.666 30.666 -57.999 45.999c38.667 48.667 58 87.334 58 116.001l-23 81l11 12v12l-23 69l12 46h-12l-139 -11c-77.333 6 -116 17.667 -116 35v69l24 23l11 -11l-11 -12v-58h34v12
l-11 34h11l35 -11l35 11l46 -11l35 23l-93 510l-11 69l23 23v35c-46.667 0 -70 38.667 -70 116v116c0 15.333 23.333 27 70 35v11l46 -11zM456.998 1128l0.000976562 -58l12 -93l-70 -255l-69 -301l11 -58c-15.333 0 -23 -30.667 -23 -92l-185 -82h-12l-23 24
c94.667 122.667 148.667 226.667 162 312l-11 12v12c0 54 23 81 69 81v34h-23v24l35 46l-23 35c34.667 78.667 61.667 175 81 289c19.333 0 30.666 19.333 33.999 58l12 12h23zM699.999 1058c0 -15.333 -15.333 -23 -46 -23l-11 -12v-11h23l139 23v23h-105zM781.999 966v-12
l57 -12h128v24l-35 34zM282.999 201h12.001c0 -40.667 46.333 -71.667 139 -93v-23c0 -42 -19.333 -72.667 -58 -92h-116l-81 23l-139 -23c-30.667 32 -46 62.667 -46 92v12c100.667 30.667 178 46 232 46h23c5.33301 38.667 16.666 58 33.999 58zM515 -135
c85.333 0 128.001 -19.332 128.001 -57.999v-23l208 58l70 -12l92 24c85.333 -8 135.666 -19.667 150.999 -35h23l35 23h11c28.667 -23.333 55.667 -35 81 -35l93 47h12l23 -24v-81c0 -22.667 -81 -34 -243 -34h-35l-47 11l-46 -11h-11l-24 23l-301 -35l-69 12h-93l-46 -12
l-47 23l-69 -11l-197 11l-243 -23l-35 12v23l12 11l-12 12v35c0 20 69.333 35.333 208 46l58 -12l128 12c0 -15.333 11.667 -23 35 -23c100 5.33301 150 20.666 150 45.999z" />
    <glyph glyph-name="b" unicode="b" horiz-adv-x="1389" 
d="M231 1726l70 -23h115l220 11l58 -23l243 23l46 -11l58 11l69 -23h35l92 23l81 -11l104 23l12 -12v-92l-23 -23l-12 11h-12l-196 -23h-46l-47 -11l-115 34l-81 -23l-127 23l-81 -23l-93 23l-34 -23l-139 12h-185l-69 11l-58 -23l-35 12l-58 -23c-46 18 -69 33.333 -69 46
v46c0 18 92.333 37.333 277 58zM234 1444l35 0.000976562l35 -23h23l69 12l93 -35l46 11l12 -11h11l-35 -139c23.333 -50.667 35 -104.667 35 -162l-11 -277l46 -289c-30.667 -78 -46 -170.667 -46 -278c22.667 -7.33301 34 -30.333 34 -69v-23
c0 -84.667 -54 -127 -162 -127c-58 7.33301 -96.333 18.666 -115 33.999l-12 -11l-58 11h-34l-127 -80h-35v23c9.33301 20.667 78.666 70.667 207.999 150v23c-30.667 0 -46 19.333 -46 58h-23c0 -30.667 -7.66699 -46 -23 -46h-24c-15.333 0 -26.666 34.667 -33.999 104
l23 162v11c0 65.333 -7.66699 115.333 -23 150l11 104l-23 81l23 93l-11 81l46 11l-12 81l24 35c-38.667 10 -58 21.667 -58 35l11 34l-11 70l11 11h12c0 28.667 -38.667 52 -116 70v11c0 42 77 76.667 231 104zM755 1444h81l138 -23v-35l-185 -46l-46 -46l-116 23
c0 84.667 42.667 127 128 127zM1044 1375l10.998 0.00292969c68.667 0 134.334 -108 197.001 -324c0 -108 -100.333 -200.333 -301 -277v-12c95.333 0 161 -42.333 197 -127c61.333 -22.667 92 -61.334 92 -116.001l23 -208c-15.333 0 -34.666 -42.333 -57.999 -127
c0 -42 -73 -88.333 -219 -139l-139 23l-173 -11l-23 35v11c0 15.333 30.667 30.666 92 45.999c38.667 50.667 58 185.667 58 405c0 26 -50 83.667 -150 173l-24 58c108 0 162 42.333 162 127l12 93c-23.333 39.333 -35 77.666 -35 114.999c0 90 23.333 144 70 162
c0 23.333 77 35 231 35l-23 35v23zM199.998 1213l0.000976562 -23c61.333 0 92 -19.333 92 -58h70c3.33301 30.667 14.666 46 33.999 46h104l12 58h-289zM823.999 277.004l-0.000976562 -12h58c0 38.667 23 58 69 58l12 11c0 28 23 47.333 69 58c0 38.667 50 58 150 58
l12 12l11 57l-11 35c-26 0 -72.333 -19.333 -139 -58c-61.333 0 -92 -19.333 -92 -58c-21.333 0 -63.666 -30.667 -126.999 -92zM603.998 -150.996l104 -45.9971c124.667 7.33301 202 18.666 232 33.999l127 -11h23l69 11l70 -23h23l69 12l58 -12l23 23h12l23 -23v-92
l-12 -12v-11l-81 11h-115l-47 12l-69 -23l-58 11l-127 -11l-277 11h-47c-90 0 -151.667 -7.66699 -185 -23l-69 23h-231l-46 -11c-77.333 7.33301 -116 18.666 -116 33.999v46c0 18 54 33.667 162 47l35 -12l23 23h104l11 -11h12l-12 -58v-12l12 12h11l47 -12l69 47
c89.333 7.33301 147 22.666 173 45.999z" />
    <glyph glyph-name="c" unicode="c" horiz-adv-x="1250" 
d="M1048 1737l68 -34h23c40 0 74.333 11.333 103 34h11l23 -23v-91l-23 -23h-68l-46 12l-45 -12c-30.667 0 -46 7.66699 -46 23l-285 -34l-68 11h-80l-68 -11l-34 23l-80 -12l-205 12l-216 -23l-35 11v80c0 18 34.333 29.333 103 34l11 -11h12l68 23l68 -12l126 12l22 -23
h12l182 23h80l91 -23l125 23l69 -12zM582 1437l22.001 -22v-91l-102 -103l-11 -171l22 -91c-38 -87.333 -57 -152 -57 -194l46 -148l-11 -125l22 -148l-34 -102c45.333 -58.667 68 -112 68 -160l35 23h11l23 -23c-8 -45.333 -19.333 -68 -34 -68
c-53.333 10 -80 21.333 -80 34l-80 -11h-34l-251 159l12 11v12l-12 34h183l57 34v23h-23l-34 -23c-76 5.33301 -114 28 -114 68h-57c0 -22.667 -7.66699 -34 -23 -34h-23c-17.333 4 -43.666 61 -78.999 171c30 4 56.333 30.667 79 80l-11 45c60.667 0 91 19 91 57
c61.333 0 110.666 23 147.999 69h80v34l-12 11v12c-98.667 0 -159.334 -19 -182.001 -57c-37.333 0 -75.333 -23 -114 -69h-34l12 -57h-35c-14.667 0 -29.667 72.333 -45 217c0 66 38 130.333 114 193v23l-12 80c36 0 97 53 183 159l102 35v22h-23v12
c15.333 30 38.333 45 69 45l34 -11c47.333 4 85.333 19 114 45zM775.001 1415l148 -80h12c68 11.333 102 34 102 68h23c22.667 -7.33301 34 -30 34 -68l-11 -46l23 -170l-12 -126l23 -79c-18 -46 -44.667 -69 -80 -69c-2.66699 20.667 -21.667 36 -57 46
c-43.333 212.667 -104 319 -182 319c0 52.667 -26.667 79 -80 79l-45 35v22l79 46zM1083 424l23 -23c0 -119.333 -34.333 -191.333 -103 -216c0 -40.667 -64.667 -82.667 -194 -126l-68 -68h-45c-30.667 12 -46 38.667 -46 80l239 114c41.333 71.333 106 151 194 239z
M277.001 -161l22 -23h114l171 11l11 -34l57 23l69 -11l11 11v11l148 -22l194 11h34l34 23h34c15.333 0 23 -11.333 23 -34h23l34 22h23v-102l-23 -23l-68 11l-160 -11h-34l-57 11l-68 -11h-34l-69 11l-11 -11h-12l-68 11h-11l-46 -11l-80 11h-148l-102 -11l-46 11l-148 -11
c-83.333 0 -125 15.333 -125 46l11 34l-11 11c45.333 10 68 21.333 68 34l80 -11z" />
    <glyph glyph-name="d" unicode="d" horiz-adv-x="1380" 
d="M265 1725c76 -7.33301 114 -18.665 114 -33.998s-11.333 -23 -34 -23v-11l22 -23h12c75.333 0 113 11.333 113 34c0 30.667 7.66699 46 23 46h34c15.333 0 23 -11.333 23 -34h56l12 34l68 -12l113 12l57 -34c130 7.33301 209.667 18.666 239 33.999l102 -12h22l103 12
c45.333 -10 68 -21.333 68 -34v-69c0 -14.667 -45.333 -26 -136 -34l-57 12l-114 -12l-306 12h-12c-88 0 -148.333 -7.66699 -181 -23l-68 23h-171c-14.667 0 -22 11.333 -22 34h-12l-56 -46l-137 23l-102 -11h-45l-23 22v46l170 57l68 -23c38 5.33301 57 16.666 57 33.999z
M129 1433l11 -11v-12c-3.33301 -20.667 -37.333 -51 -102 -91h-11l-46 46c0 23.333 49.333 46 148 68zM538 1433l11 -0.000976562l23 -23v-11l-34 -57l11 -284l-34 -91v-11l45 -136l-45 -125l45 -79l-34 -262l34 -56v-23l-11 -68l11 -12v-11l-11 -68v-23l11 -56l-193 -35
l-204 12l-79 -12c-53.333 6 -80 32.667 -80 80l136 68h12c-33.333 40.667 -60 101.334 -80 182.001l12 181v68l-23 103c50.667 0 96 22.667 136 68c76 0 114 18.667 114 56c64 0 105.333 19 124 57c46 0 69 22.667 69 68h-12c-65.333 0 -114.333 -22.667 -147 -68
c-38.667 0 -73 -19 -103 -57c-61.333 0 -110.333 -18.667 -147 -56h-34v11l45 261l-11 80l11 34l-22 159h11c38 0 83.333 26.333 136 79l57 34h11l80 -23c68.667 0 121.667 15.333 159 46zM708 1433l22.999 0.000976562c92.667 -76 168.334 -114 227.001 -114v-22h-23v-23
h11l57 11c63.333 -59.333 116.333 -150 159 -272c35.333 0 58 -56.667 68 -170l-11 -125l11 -12v-11l-11 -45l11 -46c-34.667 -163.333 -87.667 -288 -159 -374c0 -16.667 -34 -43.334 -102 -80.001c-38.667 -68 -103 -102 -193 -102l-91 -34c-38 0 -57 34 -57 102
c0 20.667 38 35.667 114 45v23h11l-11 57v136l-11 114c48 48 78 93.333 90 136c23.333 0 35 7.66699 35 23c-14.667 34 -30 52.667 -46 56l-34 -34l11 -45h-45v57c0 37.333 -7.66699 56 -23 56l12 57v46h11l11 -12h12l11 12v11l-34 57l23 159l-80 261
c-30 0 -45 7.33301 -45 22v23zM991.999 1206l-12 -12v-11h57v11zM412.999 161.001v-56l22 -23h12v23l-12 56h-22zM378.999 -148.999l11.001 -34h23l34 22h23l34 -22h147l46 11l34 -11v11l22 23h91c27.333 -32.667 76.666 -67 147.999 -103h56v23c0 15.333 -18.667 23 -56 23
v57l91 -12l124 12l69 -23h45l79 11l12 -11v-91l-23 -34l-57 11h-215l-69 12l-56 -12l-57 12l-11 -12v-11l-171 23l-56 -23l-125 11h-46l-56 -11l-69 11h-147l-57 -11l-68 11h-34l-114 -11l-11 11v80l23 23h79l68 11l34 -11l103 11l34 -11c0 14.667 22.667 26 68 34z
M935 -160.999l23 -22l-12 -12h-11l-23 23l12 11h11zM1117 -182.999v-35h22v12z" />
    <glyph glyph-name="e" unicode="e" horiz-adv-x="1204" 
d="M1064 1742l103 -11h34l23 -23v-81c0 -14.667 -30.333 -26 -91 -34v12c0 18.667 15.333 30 46 34v57l-172 -69c-84 0 -126 -11.333 -126 -34l-138 12h-91l-69 -23l-103 23l-206 -23l-35 23l-80 -12h-11l-46 12l-34 -12c-76.667 4.66699 -115 16 -115 34v35l23 23l11 -35
h12c22.667 30.667 64.667 46 126 46v12l114 -12h264l160 23l103 -11zM723 1452l11.999 -12.001v-11l-23 -69v-12l23 -22h23c0 32 15.333 62.333 46 91l114 -11l126 11l12 -11v-92l11 -252c-39.333 -38 -73.666 -57 -102.999 -57l-80 114l11 35l-126 114v12h-34l-46 -12
c-38 10.667 -57 37.334 -57 80.001v58c0 20 30.333 35.333 91 46zM287.999 1429l183.001 -58l58 35l57 -69v-57c0 -26 -11.333 -52.667 -34 -80v-46l11 -115c0 -62.667 -30.667 -104.667 -92 -126l-68 -46c-68.667 0 -114.667 -19 -138 -57l-80 -11v-12
c38 -32 57 -58.667 57 -80h12c0 34 34.333 53 103 57c0 30.667 26.667 46 80 46l103 69h12l57 -126l-80 -275l11 -46l-11 -11v-12l23 -80l-12 -11v-12l12 -11v-35h-12l12 -80v-137c0 -18 -69 -33.333 -207 -46l-103 57h-11l-138 -46c-48.667 20 -75.334 39.333 -80.001 58
v34c0 20 26.667 35.333 80 46l-11 57l34 103l-34 115c15.333 29.333 23 71.333 23 126v68l-23 172l23 126l-23 126l23 161c-0.666992 26 -42.667 75.333 -126 148c86.667 54 189.667 81 309 81zM792 1028l34.999 -0.000976562
c22.667 -93.333 45.334 -257.666 68.001 -492.999v-46l-57 -57h-11c-56 40 -105.667 108.667 -149 206l-46 46v12c0 42 30.333 76.333 91 103l23 45l-11 12v11zM1033 454.998c20 0 39 -53.334 57 -160.001l-23 -69v-183l-34 -35l-184 35l-206 -23v11
c9.33301 68.667 21 103 35 103l57 -11c0 30.667 15.333 46 46 46l34 -12c46 36.667 92 109.334 138 218.001zM1188 -144.003h11l34 -34v-92l-23 -23h-91l-103 11l-12 -11l-114 11h-12l-297 -11l-12 11h-11l-58 -11l-114 23l-92 -23l-80 11l-69 -11l-46 11l-91 -11l-46 34
l11 12v34l-11 35h11l58 22h46c76 0 114 -11.333 114 -34v-11h23v11l-11 12v11l34 11l126 -11l11 11h12l137 -22l92 22l11 -11l58 11h11l34 -22l46 11l12 -11h11l12 11h11l69 -23c34 15.333 83.667 23 149 23h114z" />
    <glyph glyph-name="f" unicode="f" 
d="M1 1727l136 -34.001l137 11l80 -11l11 11h12l68 -23l216 12h91l69 11l57 -11l45 11l91 -23h57v12h-34v11l12 12v11c113.333 -5.33301 170 -16.666 170 -33.999v-91l-11 -12v-11l-34 11l-125 -11l-126 11l-193 -11l-114 11l-80 -11l-68 11l-114 -11l-148 11l-12 -11h-11
l-11 11h-12l-45 -11c-84 0 -126 15.333 -126 46l23 45l-34 34zM932 1436c76 -8 114 -19.333 114 -34v-12l-12 -57l23 -330l-34 -23c-53.333 0 -80 26.667 -80 80l34 34v11h-57l-79 103c-136.667 57.333 -205 114.333 -205 171l125 34l91 -11c53.333 12 80 23.333 80 34z
M169 1424l112.999 -22l12 11h11c82 -5.33301 131.333 -16.666 148 -33.999h46l11 45h34l12 -79l-12 -148c20.667 -25.333 36 -90 46 -194c-22.667 0 -41.667 -79.667 -57 -239l11 -34l-11 -103v-11c2.66699 -53.333 10.334 -80 23.001 -80l-12 -57v-137l12 -68
c-10 -53.333 -21.333 -80 -34 -80h-160c-27.333 -22.667 -54 -34 -80 -34v-11l160 -12l171 12l45 -69c-12.667 -34 -35.334 -60.333 -68.001 -79h-68c-46 30 -91.667 45 -137 45h-91l-171 -45c-83.333 0 -125 41.667 -125 125c60.667 0 91 22.667 91 68l57 12v11
c-30.667 0 -46 11.333 -46 34v12c0 17.333 19 28.666 57 33.999l12 -12v23c-49.333 0 -80 68.333 -92 205l23 103l-11 79l11 12v11l-11 46l23 34l-23 68c12.667 0 24 23 34 69h34v34l-57 102l34 69c-14.667 16 -22 57.667 -22 125c-29.333 30 -63.666 45 -102.999 45l-11 12
v34zM407.999 1288c0 -23.333 -19 -35 -57 -35v-11h57l23 23h68v23h-91zM817.999 1026h23c15.333 -3.33301 30.333 -22.333 45 -57h11l-11 -80v-11l11 -148l-11 -46l11 -148l-68 -57h-34c-16 3.33301 -31.333 22.333 -46 57l12 46l-91 113l34 46c-45.333 0 -68 19 -68 57
c83.333 20 125 58 125 114c0 53.333 15 80 45 80zM225.999 991.999v-23h34l-23 23h-11zM407.999 865.999v-23h34l-23 23h-11zM225.999 250.999v-23h79v23h-79zM911.999 -140.001c68 -7.33301 102 -30.001 102 -68.001l46 34l11 -11h12c29.333 15.333 71 23 125 23l11 -12
v-102h-11l-91 -12l-228 23l-137 -23l-57 12l-11 -12l-57 12h-148c-38 -2 -57 -9.66699 -57 -23l-193 23h-183l-57 -12l-11 12v68c0 18.667 34 30 102 34l103 -11l80 34c90.667 -7.33301 136 -18.666 136 -33.999l114 11h160l125 12l68 -23z" />
    <glyph glyph-name="g" unicode="g" horiz-adv-x="1310" 
d="M186 1735l92 0.000976562c22.667 0 34 -19 34 -57l12 11h57l34 -23h12v12l-12 34l35 23c60.667 0 91 -15.333 91 -46l80 35l57 -23l81 11l125 -11c126 0 202.333 11.333 229 34h23l46 -11l34 11c0 -61.333 34.333 -92 103 -92l23 -22
c0 -18.667 -34.333 -30.334 -103 -35.001l-57 23c-46 -5.33301 -69 -13 -69 -23l-114 12h-172l-183 11l-34 -11l-103 11l-35 -11l-45 11l-103 -11l-69 11l-149 -11h-34c-56 0 -86.667 11.333 -92 34v46c0 18 30.667 29.333 92 34l92 -11c0 22.667 7.33301 34 22 34z
M472 1441l12 -0.000976562l91 -46v-23c-68.667 -102.667 -103 -175 -103 -217l12 -46l-12 -80l12 -149l-12 -91l12 -35l-23 -91v-252c0 -17.333 -45.667 -32.666 -137 -45.999c0 -22.667 -7.66699 -34 -23 -34h-57l-138 -12c-6.66699 38 -41 87.667 -103 149l23 160l-23 23
v92l35 114h11l-11 46c0 94 68.667 212.333 206 355c0 12 38 38.667 114 80v80l57 11l12 -34h11c4 30.667 15.333 46 34 46zM1079 1441l46.001 -46v-126l34 -137c-15.333 -145.333 -38.333 -218 -69 -218h-45c-21.333 0 -48 72.667 -80 218l-206 183
c-41.333 0 -68.333 15.333 -81 46v23l23 22h115c27.333 0 57.666 -15 90.999 -45h46c52.667 53.333 94.667 80 126 80zM850.001 1269v-11h46v11h-46zM129.001 811v-10.999c6 -68.667 25 -103 57 -103c30.667 0 50 23 58 69c38 9.33301 57 20.666 57 33.999v11h-172z
M1067 777.001c40.667 0 82.667 -30.332 126 -90.999l-45 -126l11 -46l-23 -103v-114l12 -46c0 -84 -42 -126 -126 -126c-66 -58.667 -180.667 -104.334 -344 -137.001c-34.667 14.667 -53.667 29.667 -57 45v12l126 91l-11 321l11 80c-32.667 76 -74.667 114 -126 114v23
c0 18 72.667 33.333 218 46l23 23l183 -23c0 38 7.33301 57 22 57zM484.001 342.002l34 -137l-11 -46l68 -68c0 -53.333 -26.667 -80 -80 -80c-228.667 53.333 -343 129.333 -343 228l46 35h23v-12l80 12h80c36 45.333 70.333 68 103 68zM183.001 -149.998l12 -12l80 12
c76 -2 114 -9.66699 114 -23l218 23h91l-114 -92h-172l12 -11v-35l-58 -11l-205 23l-172 -23l-23 34c0 53.333 23 80 69 80l11 12v11l80 -11h23zM996.001 -149.998h91.002l23 -23v-57h80c39.333 0 77.666 22.667 114.999 68h11l23 -23v-68
c0 -13.333 -49.667 -28.666 -149 -45.999l-331 23l-46 -12l-149 12h-11l-23 23c15.333 15.333 64.666 26.666 147.999 33.999c0 18 30.667 33.333 92 46l69 -12h11z" />
    <glyph glyph-name="h" unicode="h" horiz-adv-x="1501" 
d="M163 1728l103 0.000976562l23 -23l-115 -12c0 -28 46 -54.667 138 -80c0 15.333 57.667 30.666 173 45.999c0 22.667 107.333 41.667 322 57l12 12h11l23 -35l230 12h58v23h12c84 0 126 -11.667 126 -35v-57c71.333 0 121.333 23 150 69l92 11l11 -11v-92l-23 -23h-391
l-104 11l-69 -11l-11 11l-58 -11h-57l-104 11l-57 -23l-139 23l-46 -11h-46l-57 11l-69 -11h-92l-184 11l-46 -11l-12 11v23c34 54 76.333 81 127 81l69 -12v35zM876 1451l127 -33.999l103 11l70 -23l184 35l23 -35c0 -47.333 -34.667 -85.666 -104 -114.999l-11 -92
l23 -149l-23 -185l23 -92l-23 -126l23 -104l-23 -34l11 -46l-11 -115l23 -47l-12 -46l12 -80l-12 -81h46l12 12h11l12 -12v-23l-35 -34l-115 23l-81 -12l-115 23c-4 -30.667 -92 -49.667 -264 -57l-23 34c8.66699 61.333 24 92 46 92l11 -34h23l12 34l-12 115l23 162l58 -12
c15.333 0 23 30.667 23 92l69 12v11c-107.333 0 -161 15.333 -161 46l23 104v11h-127c-53.333 0 -80 27 -80 81v11c0 23.333 49.667 38.666 149 45.999l12 -11c0 46 7.66699 69 23 69c22.667 -28 34 -58.667 34 -92c18 0 29.667 26.667 35 80
c-15.333 35.333 -30.666 54.666 -45.999 57.999l-12 -11l-11 11l11 12v115l-34 115l57 80c-12.667 41.333 -66.334 95 -161.001 161c0 18 61.333 33.333 184 46zM220 1440l414.997 -0.000976562l34 -35v-34l-115 -115l23 -276v-69c-23.333 -28.667 -35 -55.667 -35 -81v-12
c0 -25.333 11.667 -52 35 -80l-23 -127l35 -149c-23.333 -8 -35 -31 -35 -69v-23l23 -127v-23l-23 -35v-23c30.667 0 73 -38.333 127 -115c-3.33301 -15.333 -22.666 -30.666 -57.999 -45.999l-276 58l-299 -46c-30.667 32 -46 62.667 -46 92c22.667 0 34 15.333 34 46
l46 23v138l-23 81c25.333 0 52.333 134 81 402l-12 35c40.667 0 71.334 27 92.001 81l-11 46h-23c-15.333 0 -30.666 -23.333 -45.999 -70h-35c-15.333 0 -23 11.667 -23 35l12 104c-15.333 0 -23 11.333 -23 34l46 138l-46 127v11h23v23l-23 35l23 23l34 -12zM242.997 1313
c30.667 -41.333 46 -75.667 46 -103h12c44.667 53.333 90.667 80 138 80c0 30.667 34.333 46 103 46c0 15.333 11.667 23 35 23l12 12v11l-208 12c-48.667 0 -94.667 -27 -138 -81zM231.997 1095l-12 -12v-34l12 -81h23l11 81zM910.997 1037l-23 -34v-23l23 -69l46 57
c0 38.667 -15.333 61.667 -46 69zM196.997 393l0.000976562 -23l46 -35c46 8 69 27.333 69 58c59.333 10.667 101.666 33.667 126.999 69c68.667 8.66699 103 20 103 34v58h-34l-150 -46c0 -30.667 -26.667 -46 -80 -46c0 -40 -27 -63 -81 -69zM150.998 300v-11l23 -23
l35 34l-12 35h-11zM308.998 -141c8 -22.667 31 -34 69 -34l150 23l11 -12h12l35 12l11 -46l35 23h11l35 -23h46c0 22.667 7.66699 34 23 34l46 -23l230 12c0 15.333 11.333 23 34 23l12 -12h11l46 12h12l23 -23l-11 -69h34c14 46 83 69 207 69h69l35 23h11l23 -23v-81
c0 -22.667 -111 -38 -333 -46l-70 23l-115 -11l-161 11l-11 -11v-12l-104 23l-92 -11l-57 11l-58 -11l-69 11l-12 -11h-11l-69 11h-92v12l11 11v12l-23 23l23 34l-23 23v12zM44.998 -152h23c37.333 -38.667 87 -58 149 -58l12 -11v-69l-81 -12l-103 35l-46 -12l-23 23
c0 15.333 15.333 23 46 23v35l-12 11v12z" />
    <glyph glyph-name="i" unicode="i" horiz-adv-x="772" 
d="M337 1734l161 -46.001l162 23l58 -12l70 23l11 -11v-93c0 -15.333 -11.667 -23 -35 -23l-115 12l-12 -12h-11l-70 12l-92 -12l-35 12l-185 -12h-69l-47 12l-161 -23l-12 11v81c0 18.667 38.667 30.334 116 35.001l208 -12c0 13.333 19.333 25 58 35zM368 1447
l80.999 0.000976562l35 -23l11 12h12l12 -12h11l81 23c46 -40 69 -74.667 69 -104c-76.667 0 -115 -46 -115 -138l-23 -81v-93c0 -58.667 15.333 -93.334 46 -104.001l-12 -58v-115l12 -104l-46 -128l58 -242l-12 -104c54 -38.667 81 -69.667 81 -93
c-25.333 -61.333 -52.333 -92 -81 -92l-116 57l-115 -23l-104 23l-116 -34c-65.333 0 -111.666 23 -138.999 69v12l23 23h58c30.667 103.333 46 219 46 347h47l-12 57c0 23.333 27 35 81 35v12c-92.667 0 -139 27 -139 81v127l-11 127l23 116l-12 46l12 104v69l-104 104v12
c0 23.333 111.667 46.333 335 69zM298.999 511c0 -23.333 -11.667 -35 -35 -35v-11c74 0 128 -8 162 -24l69 12h24v58h-220zM284.999 -155c15.333 0 23 -11.333 23 -34h35l46 34l115 -11l81 11l104 -11l105 11l11 -11v-58c0 -15.333 -42.333 -27 -127 -35l11 -11v-12
l-11 -11h-35l-69 11l-35 -23l-81 12h-81l-58 -12l-289 35l-57 -23l-12 11v23c0 55.333 54 90 162 104h162z" />
    <glyph glyph-name="j" unicode="j" horiz-adv-x="1119" 
d="M75 1728l111.999 -33l223 33l66 -22h12l345 22v-45h45l-12 12v22l56 11c37.333 -14.667 93 -22 167 -22l23 22h11l22 -22v-89l-22 -23h-78l-179 11l-11 -11h-11l-44 11l-45 -11l-11 11l-56 -11h-200l-90 23l-89 -23h-22l-67 11l-56 -11l-33 11l-67 -11h-44
c-15.333 0 -26.666 33.667 -33.999 101zM902.999 1442c82 -12.667 123 -46.333 123 -101c-60 -40.667 -90 -77.667 -90 -111h-11l11 -89l-22 -335l11 -78l11 -423c-55.333 -98 -170.333 -176 -345 -234c-26.667 -22.667 -64 -34 -112 -34c0 12.667 -22 24 -66 34l-12 56v22
c67.333 47.333 101 118 101 212l11 11v11l-11 33l11 11v12l-11 44l11 11h167l56 11v67c0 16.667 -33.667 28 -101 34l-144 -11l-23 66l45 491l-112 212v11c0 17.333 59.667 32 179 44l11 11l167 -44c50 0 98.333 18.667 145 56zM300.999 572.001
c66.667 -30.667 100 -78.999 100 -144.999v-33c-36 -36 -58 -80.667 -66 -134c-15.333 0 -30.333 -18.333 -45 -55v-12c44.667 -4.66699 67 -15.667 67 -33v-45c0 -22 -37.333 -36.667 -112 -44c-152 137.333 -233.667 222.666 -245 255.999c0 68.667 55.667 143 167 223z
M653.999 -150.998l56 -10.999l78 11l133 -22h56l89 22l11 -11h12l33 11l11 -11v-101c0 -14.667 -11 -22 -33 -22l-45 11l-100 -11h-11l-45 11l-45 -11l-100 11l-44 -11l-90 11l-33 -22l-134 11h-89l-100 -11l-34 22l-55 -11h-78l-134 11v23c62.667 59.333 125.667 89 189 89
l246 -23l66 12l56 -12c76 9.33301 120.667 20.666 134 33.999z" />
    <glyph glyph-name="k" unicode="k" horiz-adv-x="1437" 
d="M1351 1731l10.999 -45h11c0 22.667 7.66699 34 23 34h45l22 -23v-101h-79l-78 11l-23 -23h-11l-34 12l-68 -12l-237 12l-146 -12l-12 12l-56 -12h-147l-124 -11l-124 23l-102 -12l-90 12l-158 -23l-11 11v91l79 45c38.667 -22.667 76.334 -34 113.001 -34h67
c56 0 86.333 11.333 91 34c90 -8 135 -19.333 135 -34l169 11h57l101 -11l68 22l34 -22h34l90 22h11l45 -22zM216.999 1421l102 -56.001l180 11h68l34 22h22l23 -22v-45l-79 -91v-609l11 -214c-14.667 -34 -22 -83 -22 -147v-22c0 -59.333 33.667 -116 101 -170l11 -33
l-112 -34l-68 11l-169 -11l-79 11l-45 -11l-34 11l-57 -23l-124 57v11c40 52.667 74 79 102 79l22 -22v11l-11 56c6 60.667 25 91 57 91c-6 74.667 -17.333 112 -34 112l11 34l-34 215l11 11v11l-11 34l11 147l-22 56l22 102l-22 259c-46 16.667 -72.333 39.334 -79 68.001z
M1300 1398l34 -56.002c0 -24.667 -56.333 -54.667 -169 -90l-102 -91c0 -16 -33.667 -64.667 -101 -146v-11c30 -52 45 -97.333 45 -136c0 -18.667 -37.667 -48.667 -113 -90c0 -15.333 -37.667 -26.666 -113 -33.999c0 -30 -22.333 -45 -67 -45l-46 -23
c0 -30 -7.33301 -45 -22 -45l-23 23v34c42.667 90 125.667 187.667 249 293l45 203v23l-113 112v23c0 22.667 165.333 41.334 496 56.001zM1029 788.997l23 -22v-79c0 -28 26.333 -80.667 79 -158l135 -361c15.333 0 23 -11.333 23 -34c0 -30 -18.667 -45 -56 -45l-12 -45
h45c40.667 30 74.667 45 102 45l11 -12v-11c0 -22 -60 -44.667 -180 -68l-192 23h-11l-237 -11c-34.667 14.667 -53.667 29.667 -57 45v22c0 15.333 15 23 45 23v90c0 90.667 -37.333 215 -112 373v11l33 11l12 -11h11c14 0 32.667 22.667 56 68
c44.667 0 78.667 18.667 102 56c51.333 0 111.333 30 180 90zM205.999 506.997v-79h11v79h-11zM216.999 -158.003h79l226 -11v-11c-57.333 -75.333 -106.333 -113 -147 -113l-79 11l-68 -11l-11 11h-11l-11 -11h-12l-158 11h-33l-23 23v45c0 15.333 37.667 30.333 113 45h45
l34 -22h34c0 22 7.33301 33 22 33zM1063 -158.003l45 -45.001l350 34l11 -11v-90c0 -15.333 -11 -23 -33 -23l-12 11l-56 -11h-45l-136 11l-101 -11l-124 11l-215 -11l-90 11l-101 -11l-12 11v12c0 14.667 45.333 33.334 136 56.001l34 34h101l45 11l34 -11z
M329.999 -180.004v-23h56v12z" />
    <glyph glyph-name="l" unicode="l" 
d="M1069 1736c61.333 0 92 -19 92 -57h11c0 30.667 7.66699 46 23 46l12 -12v-91c0 -23.333 -15.333 -35 -46 -35l-57 12l-103 -12l-92 12l-34 -12l-80 12l-57 -12l-80 12c-30.667 -2 -46 -9.66699 -46 -23l-138 11h-91l-114 -11l-12 11v12l-80 -12h-80
c-84 0 -126 11.667 -126 35v34c0 28 65 47 195 57l11 12c12 -14 96 -25.667 252 -35l68 12l80 -12c0 23.333 7.66699 35 23 35h46c15.333 0 23 -19.333 23 -58l80 -11c0 15.333 11.333 23 34 23c0 15.333 19.333 23 58 23v11l80 -11h80zM57 1399h22.999v-11l114 11h81
c96 -14.667 164.333 -33.667 205 -57c66.667 15.333 112.667 34.333 138 57c40 0 62.667 -38 68 -114l-22 -23h-58c-22.667 -56.667 -34 -117.667 -34 -183l34 -275v-11l-34 -34l11 -35l-11 -34l23 -240c-29.333 -137.333 -56 -206 -80 -206
c-31.333 0 -69.666 -46 -114.999 -138v-34h58c0 33.333 15 60 45 80l35 57h23l34 -148l-149 -57l-91 34l-103 -23l-172 23l-46 -12l-23 35c0 15.333 34.333 30.333 103 45l12 12v126l-23 103l46 160v23l-23 69l11 251l-23 126l12 12h11l-11 80v23h11
c15.333 0 23 -11.667 23 -35h69v12c-38 0 -57 7.66699 -57 23v22c0 15.333 11.333 23 34 23l11 12v11c-76 0 -114 38.333 -114 115c-68.667 20 -103 35 -103 45v12zM296.999 1102v-23h35v23h-35zM159.999 690l-10.999 -34c11.333 -30.667 22.666 -46 33.999 -46l34 11
c0 46 -19 69 -57 69zM961 484c42 0 76.332 -22.999 102.999 -68.999v-91c0 -15.333 -11.333 -23 -34 -23l-12 -34l46 -229c-5.33301 -38 -16.666 -57 -33.999 -57h-12l-80 57l-252 -23l-34 46v11l126 57c7.33301 28.667 45.333 70.667 114 126l23 57h-34
c36 111.333 62.667 168.666 80 171.999zM190.999 -156.999h81l45 -34h23l34 23h115c56 0 86.333 -11.333 91 -34l172 22l160 -11l252 34h23l23 -23v-80c0 -22.667 -49.667 -34 -149 -34h-240l-183 11l-35 -11l-91 11l-46 -11l-69 11l-91 -11l-57 11l-161 -11l-114 11v69
l80 46l80 -23zM362.999 -247.999v-12h69v12h-69z" />
    <glyph glyph-name="m" unicode="m" horiz-adv-x="1561" 
d="M-4 1728l10.999 -11h12l11 11h11l34 -11l12 11h11l57 -23l114 12l262 -23l159 34h45l23 -23l-11 -45c28.667 -22.667 62.667 -34 102 -34h12c0 37.333 15 56 45 56c0 23.333 7.66699 35 23 35h45l35 -23c80.667 22.667 148.667 34 204 34h160v-34l-137 -12h-34v-11
c4.66699 -18 31.334 -37 80.001 -57c38.667 0 141 30.333 307 91v-79c-8 -23.333 -30.667 -35 -68 -35h-57l-57 12l-68 -12h-12l-159 12l-91 -12l-125 12l-205 -12l-114 12l-80 -12l-68 12l-91 -12l-159 12l-12 -12h-11l-11 12h-12l-34 -12l-125 12h-46l12 79l-23 23z
M200.999 1434c121.333 -30.667 181.999 -57.333 181.999 -80v-11h45v11c-22.667 0 -34 7.66699 -34 23l125 34c10 0 32.667 -53 68 -159l-22 -23v-45l34 22c0 -22.667 15 -34 45 -34l-11 -91c38 -61.333 57 -114.333 57 -159v-57h34c0 45.333 26.667 98.333 80 159l45 -170
c-8 -69.333 -42 -149 -102 -239c0 -33.333 -19 -90.333 -57 -171l11 -57v-80l-45 -113l11 -46c-28 -15.333 -58.333 -61 -91 -137h-11c-34.667 0 -76.334 95 -125.001 285c-13.333 2.66699 -40 55.667 -80 159l11 80c-63.333 100 -108.666 225 -135.999 375
c-18.667 0 -34 49.333 -46 148c-10.667 0 -37 68.333 -79 205c-40 0 -74.333 22.667 -103 68v23c12.667 30.667 39.334 46 80.001 46l34 -23h11c0 38 23 57 69 57zM1156 1400c58 -19.333 92.333 -46 103 -80l-23 -34c30.667 -41.333 46 -75.333 46 -102
c98.667 92 148 152.667 148 182h22l12 -46c-68.667 -48.667 -106.667 -82.667 -114 -102v-46l11 -102l-11 -103l11 -148l-45 -102l68 -125c-22.667 -20.667 -37.667 -66.334 -45 -137.001c-61.333 -4 -92 -26.667 -92 -68l-56 -11v-23l45 -34c38 0 64.667 22.667 80 68
l34 11l34 -102l-11 -68v-46l79 -114c-18 -45.333 -40.667 -68 -68 -68l-148 23l-11 -12h-12l-91 23l-136 -45c-136.667 33.333 -205 56 -205 68v11c0 12.667 45.333 43 136 91l-11 160l11 364c74 8 123.333 30.667 148 68c58.667 0 108 49.333 148 148l-11 34h-23
c-86.667 -98.667 -151 -148 -193 -148c0 -17.333 -19 -28.666 -57 -33.999l-23 91v273l-23 46c0 98.667 11.333 148 34 148h126c0 60.667 37.667 91 113 91zM1350 1400c53.333 -8 80 -19.333 80 -34h-114v22zM803.998 1093h34v-12l-23 -23l-11 12v23zM1225 1070l-12 -12v-34
l12 -79h11l23 22v34c0 40 -11.333 63 -34 69zM165.998 842.001c25.333 -32.667 44.334 -89.667 57.001 -171v-79c22.667 -28 34 -81 34 -159l-22 -171h11l91 -114c27.333 0 57.666 -22.667 90.999 -68v-12c0 -16 -41.667 -38.667 -125 -68h-91l-34 23h-80l-79 -12l-12 12v57
l137 114l-12 56v35c0 53.333 7.66699 95 23 125l-23 296l12 11v11l-12 69v11zM1145 285.001v-12l23 -23l34 35l-11 34h-12zM29.999 -157.999l113.999 -11l79 11v-34c-31.333 0 -61.666 -22.667 -90.999 -68h-136l-23 22v34zM552.998 -157.999
c53.333 0 80.002 -22.667 80.002 -68c0 -15.333 15.333 -23 46 -23c35.333 0 114.666 30.333 237.999 91l35 -11l182 11h22v-34h-56v-12c35.333 0 61.666 -7.33301 78.999 -22l34 11l12 -11v-69h-12l-91 12l-11 -12h-11l-35 12l-136 -12l-103 12l-56 -23l-137 23l-91 -12
l-57 12l-102 -12h-80c-98.667 0 -148 11.667 -148 35c114 9.33301 171 32 171 68h159zM1270 -157.999l125 -34l91 34h69l34 -34v-80l-12 -11v-12h-22v12l-114 -12h-148l-46 57l12 46l-23 23l11 11h23z" />
    <glyph glyph-name="n" unicode="n" horiz-adv-x="1410" 
d="M46 1733l81 -23l12 12h11c46 -11.333 69 -23 69 -35l231 23l70 -11l92 11l104 -11l104 11l46 -11l58 23c46 -23.333 92 -35 138 -35l69 23l70 -11l23 34c84.667 0 127 -15.333 127 -46l-12 -34h12l69 11l11 -11v-46l-23 -24l-69 24l-138 -24l-58 24l-116 -35l-277 35
l-196 -24h-23l-138 24l-116 -24l-58 12l-57 -12l-104 12l-69 -12l-12 12v81c0 15.333 15.333 23 46 23c0 22.667 7.66699 34 23 34zM93 1445l34.001 0.000976562l139 -46l23 34c254 0 381 -42.333 381 -127c0 -26.667 38.333 -72.667 115 -138l127 -346
c146 -158 219 -273.667 219 -347l-11 -11l11 -58v-81c23.333 -30.667 35 -69 35 -115c-11.333 -115.333 -38.333 -173 -81 -173h-23c0 -23.333 -7.66699 -35 -23 -35c-134.667 27.333 -219.334 66 -254.001 116v23h23v23h-23v-23l-46 57l11 12v11
c-15.333 0 -30.666 23.333 -45.999 70c-34.667 30.667 -61.667 80.667 -81 150c-42 19.333 -95.667 115.333 -161 288c38.667 0 58 15.333 58 46c76.667 4 115 35 115 93v34l-35 12c-22.667 0 -34 -19.333 -34 -58l-162 -23c-76.667 100 -134.334 211.667 -173.001 335
c-108 123.333 -185 188.666 -231 195.999v35c62 4 93 19.333 93 46zM1039 1422c30.667 -15.333 73 -23.001 127 -23.001l23 23h23c58 -8 88.667 -23.333 92 -46v-35c-100 -69.333 -150 -123.333 -150 -162v-103l12 -70c-26.667 -207.333 -49.667 -311 -69 -311
c-38.667 30.667 -58 65.334 -58 104.001l23 115l-35 150l24 81l-70 81c0 84.667 -15.333 127 -46 127l-11 11v35h23zM196.001 1064c62 -96 93.001 -180.666 93.001 -253.999l-12 -150l35 -150l-35 -219c23.333 -38.667 35 -81 35 -127h34c42.667 0 69.667 -15.333 81 -46
v-35c0 -38.667 -11.333 -61.667 -34 -69l-220 11l-34 -11c-77.333 7.33301 -116 22.666 -116 45.999c0 15.333 15.333 23 46 23c19.333 38.667 42.666 61.667 69.999 69l-12 12v11c15.333 119.333 42.333 200.333 81 243l11 46l-69 265v127h58v12
c-30.667 0 -46 7.66699 -46 23v35l23 34v12l-23 34v23zM658.002 972.001v-46h12v46h-12zM739.002 452.001l0.000976562 -11l58 -46l34 23h243v23l-12 11v12l-115 -12h-12l-23 23c0 19.333 15.333 31 46 35v12l-81 11c-22.667 0 -53.334 -19.333 -92.001 -58
c-30.667 0 -46 -7.66699 -46 -23zM-10.9971 -132.999h10.999l35 -35l11 12l173 -24c0 23.333 42.333 39 127 47l12 -35h12l34 23h46c77.333 0 116 -7.66699 116 -23l265 23l12 -11v-12c0 -23.333 -19.333 -35 -58 -35v-46h81l127 81h81l161 23l81 -35l104 12l11 -12v-80
l-11 -12v-11l-81 11l-138 -23c-131.333 15.333 -320 23 -566 23h-81l-46 -11l-11 11h-12l-12 -11h-11l-69 23c-31.333 -15.333 -73.666 -23 -126.999 -23l-70 11l-69 -11l-11 11h-12l-46 -11h-23c-54 0 -81 42.333 -81 127z" />
    <glyph glyph-name="o" unicode="o" horiz-adv-x="1386" 
d="M75 1727h47c46.667 0 70 -15.333 70 -46l92 23l12 -12l244 35l69 -35l128 35l197 -23l47 11l174 -11l46 11l70 -23h70l46 35l35 -35v-69c0 -19.333 -19.333 -31 -58 -35l-70 11l-336 -23l-163 23h-46l-105 -23l-185 23l-12 -11h-12l-35 11l-46 -11l-46 11l-58 -11l-58 11
l-70 -11l-81 11l-58 -11l-12 11v35l12 12c0 11.333 23 19 69 23c0 38.667 7.66699 58 23 58zM563 1448l12 -10.999v-12c0 -42.667 -81.333 -127.667 -244 -255c0 -8 -50.333 -15.667 -151 -23c-62 7.33301 -93 18.666 -93 33.999c46.667 62 151 131.667 313 209
c74 38.667 128.333 58 163 58zM842 1425c42 0 88.333 -30.999 139 -92.999c77.333 0 127.666 -50.333 150.999 -151c42.667 0 89 -123.667 139 -371c0 -100.667 -27 -151 -81 -151c-38.667 0 -58 -19.333 -58 -58l-116 -12h-140v-23c46.667 0 70 -7.66699 70 -23
c0 -30.667 -23.333 -46 -70 -46v-12l117 -12c88.667 0 154.334 23.333 197.001 70h23c0 23.333 7.66699 35 23 35h12v-81c0 -19.333 -19.333 -58.333 -58 -117c0 -119.333 -116 -231.333 -348 -336c-42.667 0 -104.667 -15.667 -186 -47h-12v58
c77.333 62 116 104.667 116 128l35 128v81l-23 128v23h35v12c-38.667 3.33301 -58 14.666 -58 33.999v35c19.333 104.667 46.333 162.667 81 174l35 -11l69 11l-11 12v12c0 46 27 69 81 69v12h-186v-23l12 -12v-12l-12 -11h-11c-31.333 50 -47 88.667 -47 116l24 139
c-12 15.333 -23.667 81.333 -35 198l-70 69v23zM482 1205l23.001 0.000976562v-174c-15.333 -19.333 -27 -58.333 -35 -117l23 -139l-23 -69l23 -24l-23 -418l139 -185c-11.333 -54.667 -26.666 -82 -45.999 -82c-294 85.333 -441 197.666 -441 336.999l-12 12v11l35 35v12
c-62 0 -104.667 42.333 -128 127l-34 35v23c22.667 31.333 34 66.333 34 105l-11 104c15.333 23.333 34.666 101 57.999 233c127.333 15.333 208.666 38.333 243.999 69c84.667 0 127 19.333 127 58c31.333 0 47 15.667 47 47zM934.001 -152.997
c8 -46.667 27.668 -70 59.001 -70c92.667 26.667 139 46 139 58l139 -12l47 12l11 -12h12l46 12l23 -35v-81l-11 -12v-11l-70 11l-93 -11l-69 23h-58l-70 -23l-46 11l-47 -11l-244 23l-116 -23l-58 11h-244c-38.667 0 -58 -7.66699 -58 -23l-162 23h-70l-23 23v58l93 47h46
l93 -12l93 12l12 -12v-11l-35 -35c7.33301 -31.333 26.666 -47 57.999 -47c26.667 62 111.667 93 255 93l12 12h11l24 -23h81l35 23l58 -12z" />
    <glyph glyph-name="p" unicode="p" horiz-adv-x="1343" 
d="M312 1725l11 -12l-11 -57v-23h23l11 46l12 -12h11l185 46l58 -11l81 11l23 -23l265 12l58 23l69 -23l127 23l92 -23l35 11l11 -11v-92l-23 -23h-80v23h57v34h-92l-23 -23l23 -34h-23l-219 11l-243 -23l-92 12l-127 -12l-35 23l-127 -23l-138 23l-242 -23l-23 35v80l23 23
l23 -23l11 12h12l57 -12c84.667 23.333 158 35 220 35zM889 1448c42 0 76.668 -22.999 104.001 -68.999l-12 -116l12 -34h11c11.333 0 23 27 35 81l46 23c92 -50 138 -142.333 138 -277l-11 -12v-11c23.333 -62 35 -127.667 35 -197
c-188.667 -200 -373.334 -300 -554.001 -300l-24 23l12 104v12c46 0 80.667 80.667 104 242c92 0 138 19.333 138 58h197v58c-54 0 -81 19 -81 57h-104c0 -38 -46.333 -57 -139 -57h-23l-23 23c12 30.667 35.333 46 70 46c0 76.667 -58 165 -174 265v12
c0 11.333 23.333 22.666 70 33.999l57 -11zM543.001 1436l11.002 0.000976562l12 -11h11l-11 -58c7.33301 -192 18.666 -288 33.999 -288c0 -115.333 -34.667 -200 -104 -254l-23 -46v-23l35 -35l58 35v-23l-12 -47l23 -69v-58l-23 -92l46 -115v-127l-11 -81
c61.333 -8 92 -38.667 92 -92l-185 -46l-196 34h-57c-27.333 0 -54.333 -11.333 -81 -34c-108 11.333 -162 30.333 -162 57v23h35c76.667 0 115 31 115 93v23l-23 127v23l116 11v23c-50.667 0 -104.667 46.333 -162 139l23 173l-12 11v12l24 58l-12 69l12 58l-12 92v12
c0 18.667 46.333 37.667 139 57c0 23.333 92 42.666 276 57.999l-11 11v12l23 69h-196c-30.667 0 -69.334 -15.333 -116.001 -46l-34 -11c-38.667 0 -65.667 30.667 -81 92l-115 127l23 23c46 0 69 -15.333 69 -46h115c0 38 61.667 57 185 57l127 -11zM889.003 1206v-23h46
l-12 34zM450.003 398.002v-12c8 -22.667 31 -34 69 -34h35v46c-30.667 22.667 -46 45.667 -46 69h-23c-23.333 -7.33301 -35 -30.333 -35 -69zM1267 -147.998h81.001l34 -35v-34c-18.667 -54 -49.334 -81 -92.001 -81l-485 23l-80 -11l-150 23l-162 -23l-11 11h-12l-46 -11
l-35 11l-69 -23l-162 12h-80l-35 34c0 54 54 81 162 81l161 -12l196 23l23 -23v-57h23v11l-11 35l35 11l11 -11h12l46 23l46 -12l219 12h12l57 -12l197 23l23 -23h69c0 23.333 7.66699 35 23 35z" />
    <glyph glyph-name="q" unicode="q" horiz-adv-x="1383" 
d="M-13 1725l117 -12l71 12l106 -24l47 12l12 -35h24l82 23l12 -11h12l12 11l70 -11c63.333 0 118.333 11.667 165 35l106 -35l36 23h71l70 -12l59 12l36 -12l23 24h83c15.333 0 23 -11.667 23 -35h12c0 23.333 8 35 24 35l94 -47v12l23 23l24 -23v-83l-24 -23l-58 11
l-307 -23l-165 23l-71 -11h-35l-106 11l-71 -23l-177 12h-176l-236 11v12l23 35c-23.333 0 -35 8 -35 24v35zM433 1439h128l24 -23c-85.333 -93.333 -128 -202 -128 -326l23 -163c-100.667 -108.667 -190 -163 -268 -163c-34.667 0 -61.667 -15.333 -81 -46l-105 -12l-12 12
v46c0 112.667 35 205.667 105 279l35 94v34l-12 59l222 139zM782 1439c116.667 -27.333 175.001 -58.333 175.001 -93c46.667 0 97 -42.667 151 -128c35.333 -15.333 54.666 -31 57.999 -47v-23c-77.333 0 -116 -23.333 -116 -70c0 -19.333 -19.333 -31 -58 -35v-11h151
c0 23.333 7.66699 35 23 35c62.667 -50.667 94 -140 94 -268v-46c0 -248.667 -81.667 -431 -245 -547v-24c0 -19.333 46.667 -38.666 140 -57.999c54 15.333 81 38.666 81 69.999h12l23 -23v-12c0 -96.667 -100.667 -154.667 -302 -174l-82 -12c0 27.333 -27 54.333 -81 81
l-117 -35l-11 12v93c0 15.333 19.333 23 58 23v47c0 11.333 -58.333 38.333 -175 81v35c0 27.333 54.333 47 163 59l24 -24h23l-23 221l34 245l-34 221v23c0 62 15.333 93 46 93v35l-23 35c0 15.333 15.333 23 46 23v24c-46 0 -92.333 27 -139 81l-12 70v11zM992.001 1137
v-12h46v12h-46zM457.001 846l23 -23.999v-104l35 -93l-35 -222l23 -81l-11 -12l11 -58v-23l-23 -35l-12 12h-198l-46 -12c-147.333 85.333 -221 236.666 -221 453.999l11 11l47 -11c70 0 139.667 23.333 209 70c70 0 105 19.333 105 58c46.667 0 70 23.333 70 70h12z
M1085 636.001v-46c23.333 0 35 -15.667 35 -47h23c0 31.333 15.667 47 47 47l35 93l-24 23h-11c-35.333 -46.667 -70.333 -70 -105 -70zM294.001 159.001l11 -12h117l139 12c31.333 -38.667 47 -69.667 47 -93h-12l-58 12l-151 -24l-105 93zM123.001 -148.999
c55.333 0 98.668 -11.667 130.001 -35c23.333 15.333 70.666 27 141.999 35l35 -35l23 23l59 -23l154 23l70 -23h59l95 23l11 -11l59 11h83l12 -11l11 11h36l35 -23l118 12l71 -12l70 23l24 -23v-94l-12 -12v-12l-59 12h-59l-141 -12l-118 12l-82 -12l-130 24l-24 -24
l-259 24l-271 -12h-259l-24 23v24c0 23.333 47 35 141 35l-23 36z" />
    <glyph glyph-name="r" unicode="r" horiz-adv-x="1452" 
d="M350 1727l23 -23.002h34l35 12l57 -12h58l92 23l46 -34l103 11h23v-11l81 11h184l69 23c95.333 -7.33301 149 -18.666 161 -33.999l46 34c84 -7.33301 126 -18.666 126 -33.999v-104h-11l-92 12l-115 -23l-69 11h-12l-80 -11l-357 23l-103 -12l-115 12l-46 -12l-115 12
l-92 -12l-35 12l-69 -23l-103 11h-58l-34 35v34c0 26.667 76.667 46 230 58l57 -12zM459 1451l69 0.000976562l34 -35v-34c-11.333 -23.333 -65 -50.333 -161 -81c0 -22.667 -42 -34 -126 -34h-161l-58 11v35h23v11c-53.333 0 -80 27 -80 81l34 11l207 -23
c146 15.333 219 34.666 219 57.999zM700 1428l34.999 -35l-12 -80l23 -81h23l12 58l-35 80l12 12h11l46 -35c42.667 38.667 85 58 127 58c168.667 -84.667 253 -176.667 253 -276l-12 -219l-138 -138h-46l-34 12l-58 -12h-149l-35 23l35 184l-23 150l11 46
c-7.33301 61.333 -41.666 115 -102.999 161v23zM561.999 1313l11.999 -12v-172l-35 -173c30.667 -57.333 46 -114.666 46 -171.999c-18.667 -149.333 -37.667 -249 -57 -299l11 -69l-11 -35c15.333 0 38.333 -84.333 69 -253c22.667 0 41.667 -15.333 57 -46v-23l-34 -34
h-35l-149 -12l-115 23l-276 -34c-38.667 11.333 -58 22.666 -58 33.999v12c0 46 34.667 80.333 104 103c34.667 92 61.334 138 80.001 138v35l-46 11l12 58v11c-30.667 0 -46 30.667 -46 92l11 58l-11 149l11 81l-11 11v12l23 161v172l-12 81h334
c30.667 0 72.667 30.667 126 92zM699.998 760.999l23.002 -0.000976562c19.333 -23.333 38.666 -35 57.999 -35v-11c0 -15.333 -11.667 -23 -35 -23l-11 -12v-11h138l80 69l12 -12v-11l-35 -35v-11c149.333 0 241.333 -50 276 -150l12 -57l-12 -35l12 -34l-23 -92v-58
l34 -34h23c26.667 0 53.667 11.333 81 34h23l11 -46c-34.667 -76.667 -111.334 -145.667 -230.001 -207l-34 12l-58 -12c-184 42.667 -276 123.334 -276 242.001l12 46c-11.333 46 -23 69 -35 69l12 115c0 107.333 -30.667 161 -92 161l-12 57v12zM873 208.998v-69h11
c0 68.667 53.667 103 161 103c0 30.667 27 46 81 46c22.667 0 34 7.66699 34 23v35h-138c-42 0 -65 -19.333 -69 -58c-34 0 -60.667 -26.667 -80 -80zM981 -152.002h46c15.333 0 23 -11.333 23 -34h46l-12 11v12l12 11l322 -34l23 23h11l23 -23v-81l-23 -23h-34l-46 12
l-92 -23l-483 23l-69 -12l-161 12l-150 -12l-34 12l-12 -12h-11l-35 12l-103 -23c-69.333 4 -104 11.667 -104 23l-57 -12h-69l-23 23v46c46 38.667 118.667 58 218 58v-12c0 -30.667 19.333 -46 58 -46l241 46l69 -11l81 11l46 -11l264 23l12 -12z" />
    <glyph glyph-name="s" unicode="s" horiz-adv-x="1107" 
d="M159 1725l103.001 -10.998l58 11l11 -34l12 11h11l34 -11l230 23l91 -23c84 7.33301 133.667 18.666 149 33.999l69 -34c103.333 7.33301 160.666 18.666 171.999 33.999h11l23 -23v-92l-23 -22h-160l-126 -12l-103 23l-69 -11l-12 11l-57 -11h-91l-46 11l-35 -11l-34 11
l-34 -11l-103 11l-253 -11l-11 11v57c0 11.333 61 34.333 183 69zM423.001 1461l34 -34.001l35 12l11 -12v-23c0 -42 -42 -87.667 -126 -137l-23 -92c53.333 -122 141.333 -183 264 -183l80 -46v-23c-11.333 -46 -38 -69 -80 -69l-104 -11l-45 11v-23
c45.333 0 68 -22.667 68 -68l-11 -12h103c0 30.667 26.667 46 80 46l69 69c53.333 0 114.333 -38.333 183 -115v-57c23.333 0 35 -7.66699 35 -23l-12 -34c23.333 -38.667 35 -77 35 -115v-11c-15.333 -145.333 -53.666 -244.666 -114.999 -297.999
c-61.333 -114.667 -134 -172 -218 -172c-64.667 -22.667 -125.667 -34 -183 -34l-23 57c0 30.667 61 65 183 103v126c0 122 -76.333 190.667 -229 206l-309 172l-126 275c19.333 0 30.666 26.667 33.999 80l-23 80l115 115h-46v11c22.667 42 103 99.333 241 172h46
c0 38 19 57 57 57zM915.001 1450l34.999 -0.000976562l23 -92v-57l-23 -114l34 -149c-11.333 -34.667 -34.333 -61.667 -69 -81h-22c-15.333 0 -27 46 -35 138c-53.333 95.333 -152.666 179.333 -297.999 252v23c0 22.667 38.333 41.667 115 57c61.333 -4 111 -23 149 -57
h23c45.333 30.667 68 57.334 68 80.001zM91 556c45.333 -38 68 -95.001 68 -171.001c15.333 0 46 -57.333 92 -172c38 0 99 -42 183 -126v-35c-7.33301 -22.667 -30 -34 -68 -34h-23l-69 46l-12 -12h-11l-57 35h-12c-34 0 -68.333 -23 -103 -69h-11
c-19.333 0 -42.333 72.667 -69 218l11 126v91c0 38.667 23 69.334 69 92.001zM927 533.999c0 -30.667 -26.667 -50.001 -80 -58.001v-23l68 -46c46 30.667 69 61.334 69 92.001l-11 35h-46zM113 223.998c0 -22.667 -26.667 -41.667 -80 -57v-12l35 -34h80v80l11 12v11h-46z
M10 -144.002l12 -11.999h11l35 12l172 -34c60.667 3.33301 91 14.666 91 33.999l35 -12l91 12l241 -23l252 23l11 -12v-11c0 -34.667 -22.667 -57.667 -68 -69v-11l11 -12v-11l-57 -23l-138 23l-46 -23l-297 23l-115 -12l-11 12l-58 -12h-183l-23 23v92
c0 15.333 11.333 23 34 23zM1099 -167.001h34v-92c0 -18.667 -49.667 -30 -149 -34v46l12 11c0 15.333 26.667 23 80 23c0 30.667 7.66699 46 23 46z" />
    <glyph glyph-name="t" unicode="t" horiz-adv-x="1358" 
d="M71 1725h12l113 -11l-11 -57h11l285 11c0 30.667 7.66699 46 23 46h91l34 -23h12l79 11l23 -23l69 23h113l69 12l57 -12l91 23h91c38 0 72.333 -11.333 103 -34l34 23l22 -23v-80l-22 -23l-160 12l-262 -23l-114 23l-125 -23l-114 23l-114 -12l-114 23l-136 -23l-148 12
h-103v68c0 15.333 19 23 57 23zM45 1454l160 -10.999l45 11c61.333 -30.667 92 -72.334 92 -125.001c-76 -30.667 -114 -87.667 -114 -171c-19.333 0 -38.333 -68.333 -57 -205l-46 -34h-34c-26.667 0 -45.667 41.667 -57 125v91c0 15.333 11.333 23 34 23v45
c-22.667 0 -34 7.66699 -34 23s15.333 23 46 23v34c-53.333 4 -80 53.333 -80 148zM809 1431c37.333 -11.333 56 -30.333 56 -57c0 -114 -22.667 -171 -68 -171c-38 -38 -98.667 -57 -182 -57c-114 0 -171 15.333 -171 46l-11 137c34 0 125 30.333 273 91zM991 1431v-23
l-34 -11l-12 11v12l12 11h34zM1184 1431c30.667 -56.667 46 -113.668 46 -171.001l-23 -102l12 -103c-23.333 -90.667 -42.333 -136 -57 -136h-35c-11.333 0 -26.333 26.333 -45 79l11 103c0 56.667 -30.333 121.334 -91 194.001l-11 34l136 91zM831 1146l34 0.000976562
c0 -37.333 -7.33301 -56 -22 -56l22 -160l-22 -80l11 -34l-23 -45l12 -46l-12 -182l34 -217l-22 -148h11l103 -68v-23l-69 -68l-57 11l-125 -23l-80 23l-102 -23l-91 46l-91 -11l-35 11v23c60.667 45.333 91 117.333 91 216v103c23.333 45.333 46.333 68 69 68
c0 11.333 -19 22.666 -57 33.999v23l23 46c-8 60.667 -27 110 -57 148l34 45l-23 274c30.667 7.33301 61 26.333 91 57h23v-12l-11 -11v-12h170c23.333 30.667 73 46 149 46zM649 -127.999c22.667 -15.333 53 -22.998 91 -22.998c0 -26.667 -11.333 -53.334 -34 -80.001
l11 -34l-11 -11h-68l-46 11l-11 -11h-12l-11 11h-11l-80 -11l-46 11l-102 -11h-34l-103 11l-68 -23c-91.333 8 -137 19.667 -137 35v45c0 15.333 34.333 30.666 103 45.999l91 -12l45 12l80 -12l91 34l68 -34c91.333 4 156 19.333 194 46zM1298 -139.997l91.001 -34v-102
h-22c-53.333 0 -95.333 -7.66699 -126 -23l-68 11l-68 -11l-80 11l-80 -11c0 15.333 -11.333 23 -34 23l-11 -12l-57 12l-80 -12l-11 12v11c0 30.667 19 46 57 46l34 11c11.333 30.667 22.666 46 33.999 46h102l126 -23h34c18.667 15.333 71.667 30.333 159 45z" />
    <glyph glyph-name="u" unicode="u" horiz-adv-x="1316" 
d="M-31 1728c53.333 0 80 -7.66699 80 -23l57 12h92l34 -23c80 0 133.333 11.333 160 34h92l23 -23l11 12h58c15.333 0 23 -11.667 23 -35l194 35l69 -23l103 23l34 -23h23l80 23l69 -12l23 23l69 -11l34 11l46 -34v-80l-23 -23h-149l-263 11l-218 -11l-46 11l-57 -11
l-23 23l-297 -35l-69 12h-92l-46 -12l-68 23l-35 -11l-11 11v103zM553 1455c0 -61.333 -26.668 -99.667 -80.001 -115c-15.333 0 -34.666 -15.333 -57.999 -46h-114l-172 -11v11c0 15.333 11.667 23 35 23v35h-69c-57.333 0 -88 11.333 -92 34c11.333 30.667 23 46 35 46h34
l286 -12zM1091 1443c38 -30.667 76 -45.998 114 -45.998l12 -11v-11c-99.333 -122.667 -149 -233.334 -149 -332.001l-23 -35l34 -137l-34 -218c22.667 -38 34 -76 34 -114c0 -187.333 -57 -351.333 -171 -492l-35 -12c-99.333 4 -149 15.333 -149 34v35l184 103l68 206v11
l-34 229c4 160.667 19.333 241 46 241l-23 206c38 0 68.333 19 91 57v46h-11l-34 -23h-35c-18.667 11.333 -49 53.333 -91 126c-42 0 -68.667 15.333 -80 46c0 15.333 95.333 45.666 286 90.999zM598.999 1375h11v-23l-46 -35v23zM529.999 1306l23 -0.000976562v-12
c-23.333 -45.333 -42.333 -125.333 -57 -240l22 -126l-11 -103l11 -69l-22 -80l11 -149l-160 -91c-61.333 0 -103.333 -19 -126 -57c-53.333 -4 -80 -11.667 -80 -23c3.33301 -19.333 22.333 -34.666 57 -45.999v-34h11c0 30 26.667 45 80 45l12 12l23 46
c72.667 0 130 22.667 172 68h22v-80c0 -144.667 42 -224.667 126 -240v-69c0 -11.333 -64.667 -26.666 -194 -45.999h-12c-84 61.333 -168 99.666 -252 114.999c-68.667 49.333 -103 137 -103 263l12 229c-19.333 0 -31 26.667 -35 80l23 321l-34 148c0 54 30.667 81 92 81
l263 -12c49.333 0 91.333 23 126 69zM598.999 -143l45.001 -0.000976562l35 -23l68 11c19.333 -15.333 80.666 -26.666 183.999 -33.999l114 34l34 -11l12 11h11l69 -23h103l34 23h12l23 -23v-80c0 -15.333 -11.667 -23 -35 -23l-137 -11l-229 11h-11l-252 -11l-149 11
l-46 -11l-57 23l-57 -12h-92l-126 -11l-11 11h-12l-34 -11l-12 11l-57 -11h-11c-38.667 0 -61.667 11.333 -69 34v69l149 23l103 -12h103l23 23l103 -23c38 23.333 95.333 35 172 35z" />
    <glyph glyph-name="v" unicode="v" horiz-adv-x="1316" 
d="M221 1725l136 -22.999h57v-34c-72 0 -117.333 -22.667 -136 -68l-228 -34c-52.667 18.667 -79 33.667 -79 45v23c4 11.333 87.333 41.666 250 90.999zM754 1725l57 -22.999l114 12c60.667 -4 91 -15.333 91 -34l79 11h159l34 23h46v-91c-19.333 -30.667 -65 -46 -137 -46
l-340 12l-12 11v11l34 46h-79v-11l23 -35c-38 -22.667 -79.667 -34 -125 -34l-12 12l-136 -23l-170 23v22h79c83.333 0 136.333 26.667 159 80c0 11.333 45.333 22.666 136 33.999zM1072 1452l33.998 -11.001l46 11c34 -14.667 53 -29.667 57 -45v-23
c-11.333 -68 -45.666 -102 -102.999 -102c-68 -64 -102 -124.333 -102 -181c0 -38 -22.667 -114 -68 -228c0 -79.333 -19 -189 -57 -329h-34v12l23 68c-30 41.333 -45 83 -45 125v158c52.667 30.667 79 129.334 79 296.001v22l34 12v22
c-41.333 0 -86.666 34.333 -135.999 103v11l45 57h46zM367.998 1430l273 -11.999l11 -11v-57l-68 -79v-23l23 -23l-12 -79c26.667 -178 68.334 -299 125.001 -363c26.667 -64.667 49.667 -182 69 -352l22 -34c-18.667 -166.667 -52.667 -280.334 -102 -341.001
c-18.667 -18.667 -75.334 -33.667 -170.001 -45l-114 34v79c0 45.333 -15 87 -45 125v23h91v11c-34.667 0 -65 11.333 -91 34l34 57c-53.333 0 -80 19 -80 57l-125 352c49.333 37.333 95 56 137 56v23h-114c-75.333 128.667 -113 253.667 -113 375l-125 102v11
c0 15.333 18.667 23 56 23l12 34l79 -11zM856.998 1350v-22l34 11v11h-34zM322.998 771.002v-11h148l68 45h-114c-34 -22.667 -68 -34 -102 -34zM560.998 692.002h34v22h-11zM140.998 -149.998l91.001 -12.001l68 12l125 -12l91 12l11 -12v-11
c-41.333 -30.667 -75.333 -46 -102 -46v-34h68c30.667 0 102.667 30.333 216 91l102 -11l114 11l57 -22l249 34c68.667 -11.333 103 -26.666 103 -45.999v-91h-80l-45 12l-46 -23l-125 11l-91 -11l-227 23l-283 -12h-23l-23 23c-90.667 -15.333 -204.334 -23 -341.001 -23
h-68v34h34v23c0 15.333 -11.333 23 -34 23v23zM61.999 -195.999v-34h79v23z" />
    <glyph glyph-name="w" unicode="w" horiz-adv-x="1812" 
d="M739 1728l92.001 -23.001h162l23 -23c-108 -19.333 -162 -34.666 -162 -45.999c0 -19.333 -57.667 -38.666 -173 -57.999v-11l-81 11l-69 -11l-46 11l-162 -11l-92 11l-47 -11l-46 11l-92 -11c-54 11.333 -81 26.666 -81 45.999v81l23 23h23l35 -35l11 12l162 -23l243 34
h115c15.333 0 23 -11.333 23 -34c27.333 0 73.666 19 138.999 57zM1801 1694h34.999v-93c0 -15.333 -11.667 -23 -35 -23l-242 -11l-150 11l-35 -11l-104 11h-23l-277 -11l-47 11v23l255 12h381c30.667 0 111.334 27 242.001 81zM1027 1440
c27.333 0 73.667 -92.3311 139 -276.998l46 -47l-23 -127c0 -34.667 27 -111.667 81 -231l23 -92l-12 -12v-11l35 -150l-11 -69l11 -197c0 -61.333 -61.667 -142 -185 -242c-122.667 22.667 -184 84 -184 184c-27.333 42.667 -46.666 116 -57.999 220l11 46
c-84.667 134.667 -127 231 -127 289c131.333 19.333 197 34.666 197 45.999s57.667 30.666 173 57.999c0 22.667 15.333 34 46 34v47h-81c-15.333 -38.667 -77 -58 -185 -58c0 -38.667 -34.333 -58 -103 -58h-35l-23 23v220l69 288c61.333 77.333 126.666 116 195.999 116z
M1663 1428l34 -33.998v-12c-11.333 -26.667 -57.333 -61.334 -138 -104.001c-92.667 -238.667 -139 -404 -139 -496l-58 -70l-69 150l12 12h69v23l11 81l-46 11l23 104l-11 35c46 0 69 23 69 69c0 69.333 -54 119.333 -162 150v12c0 11.333 31 26.666 93 45.999l69 -11
l46 11l70 -23c42 0 84.333 15.333 127 46zM369.001 1417c65.333 0 111.67 -11.666 139.003 -34.999h34c38.667 0 58 11.667 58 35h23c15.333 0 30.666 -27 45.999 -81c-34.667 0 -61.334 -42.333 -80.001 -127c38 -119.333 84 -323.333 138 -612l35 -70
c-30.667 -169.333 -69.334 -319.333 -116.001 -450c0 -46 -11.333 -69 -34 -69c-134.667 0 -215.667 42.333 -243 127v23l12 81c-62 72.667 -93 122.667 -93 150l-11 69l11 93v11c23.333 0 35 11.667 35 35l58 81c-84.667 0 -127 11.333 -127 34l-93 173v12l35 46v35
c-54 0 -81 50 -81 150c-19.333 15.333 -31 65.333 -35 150v35c-53.333 15.333 -80 30.666 -80 45.999v11l23 24l11 -12l58 12h35l57 -12c0 23.333 61.667 35 185 35zM508.005 770.004v-23c61.333 0 92 -19.333 92 -58h58l11 58l-11 46h-127zM1801 -141.996l35.001 -35v-58
c-8 -22.667 -35 -41.667 -81 -57l-127 11l-127 -11l-12 11h-11l-104 -11h-12l-46 11l-35 -11l-150 11l-11 -11h-12l-46 11h-46l-23 -23l-139 12h-92l-104 -12l-35 23l-81 -11h-46v34h-81l-69 -46l-219 23l-162 -11v92l23 23h162l69 23l46 -11l93 11
c34.667 -38.667 80.667 -61.667 138 -69l35 11v12c-69.333 0 -104 7.66699 -104 23l46 23l162 -11l34 11c81.333 -7.33301 127.666 -19 138.999 -35c69.333 23.333 146.333 35 231 35h23c23.333 0 35 -15.333 35 -46l11 11h12l369 24l58 -12l231 12z" />
    <glyph glyph-name="x" unicode="x" horiz-adv-x="1364" 
d="M557 1728l35 -35.001h92l35 23l92 -23l127 23l35 -11l69 11l23 -23l-57 -23v-46h69c0 34.667 100 61.667 300 81l12 -12v-92l-23 -23l-81 11l-81 -11l-69 23h-58l-58 -12l-23 23c-46 -3.33301 -69 -14.666 -69 -33.999l-254 23l-81 -12l-12 12l-58 -12h-265
c-38.667 0 -58 -7.66699 -58 -23l-196 23h-12l-23 23v58l69 46c81.333 -7.33301 131.333 -18.666 150 -33.999c69.333 7.33301 112 18.666 128 33.999h69l69 -11zM407 1451l114.998 -57.999h24c26.667 0 53.334 11.667 80.001 35h12l23 -23v-35
c-23.333 -30.667 -35 -65.334 -35 -104.001l104 -231c0 -62 27 -116 81 -162l127 -300c38.667 -73.333 73.334 -112 104.001 -116c46.667 -157.333 112.334 -269 197.001 -335l-58 -92l-81 11h-35c-26.667 -22.667 -53.334 -34 -80.001 -34c-31.333 0 -47 7.66699 -47 23
l12 46l-35 46h-127l23 -23l35 12l11 -12v-34l-46 -47h-104c-57.333 0 -111 23.333 -161 70c0 15.333 19 23 57 23v104c0 57.333 -38.333 122.666 -115 195.999c-27.333 38.667 -62 127.334 -104 266.001c-11.333 0 -38.333 42.333 -81 127l23 23v12
c-46 26.667 -88.333 99.667 -127 219c-54 50 -81 92.333 -81 127v104c-76.667 11.333 -115 46 -115 104c46 11.333 69 23 69 35l81 -12h23zM914.998 1439l57.999 -23.002l81 12l69 -12l12 12h11c30.667 -12 46 -23.667 46 -35v-12c0 -57.333 -46 -95.666 -138 -114.999
c-23.333 -15.333 -65.666 -80.666 -126.999 -195.999l-81 -70h-12l-46 46v12l23 46l-11 46l34 58v81l-57 69v23c0 12 46 31.333 138 58zM337.997 491.998l11.002 -0.00292969c23.333 0 42.666 -34.667 57.999 -104c-65.333 -69.333 -100 -134.666 -104 -195.999
c92.667 -69.333 139 -111.666 139 -126.999c-12 -31.333 -31.333 -54.666 -58 -69.999c-42.667 23.333 -85 35 -127 35l-127 -12c-69.333 8 -104 23.667 -104 47v11c146 80.667 219 154 219 220c54 15.333 81 38.333 81 69c-38.667 11.333 -58 23 -58 35
c27.333 57.333 50.666 88 69.999 92zM360.999 -161.005l115.001 -35l116 23l58 -11h150l92 23l69 -23h12l139 23l208 -12l57 12l12 -12v-104l-23 -23l-12 12l-81 -12h-11c-27.333 0 -54.333 11.667 -81 35h-12c0 -23.333 -7.66699 -35 -23 -35h-69l-139 12l-104 -12l-127 12
l-196 -12l-116 12l-80 -12l-70 12l-104 -12c-115.333 0 -173 11.667 -173 35v46l23 23h231c15.333 15.333 61.666 27 138.999 35zM1204 -208.005c4 -38 11.667 -57 23 -57c84.667 0 127 19 127 57h-150z" />
    <glyph glyph-name="y" unicode="y" horiz-adv-x="1374" 
d="M1035 1727c34.667 -15.333 54 -30.666 58 -45.999l242 46l58 -35l-11 -46l11 -57l-11 -12h-12l-115 12l-47 -12l-103 12l-104 -12l-12 12h-11l-69 -24l-104 12l-127 -12l-185 24l-219 -24l-69 12l-58 -12c-115.333 4 -173 15.667 -173 35v46
c0 27.333 104 46.666 312 57.999c0 -19.333 19 -31 57 -35l104 23l58 -11l80 23l70 -23h34v23h58v-12l-12 -11v-12h70v12h-23v34l57 -11h116zM615 1439l11.001 -0.000976562c15.333 0 27 -38.667 35 -116l-46 -23c0 -96 65.333 -280.667 196 -554
c7.33301 -122.667 26.333 -241.667 57 -357l-34 -139v-11c0 -38.667 38.333 -81 115 -127c-22.667 -69.333 -42 -104 -58 -104l-230 23l-116 -35c-46 0 -69 15.667 -69 47h-104l-80 -12l-12 12v34c0 15.333 15.333 23 46 23l58 46l11 35l-23 138c0 77.333 27 116 81 116
l-12 58v11l24 35c-46.667 0 -70 26.667 -70 80c-38 0 -68.667 34.667 -92 104c-11.333 4 -57.333 131 -138 381v12c26.667 0 45.667 19 57 57c62 0 93 15.333 93 46c3.33301 38.667 22.333 58 57 58v12h-92c-34.667 -15.333 -77 -57.666 -127 -126.999h-23
c-15.333 0 -50 53.667 -104 161l-34 35l23 23l11 -12h12l11 12h12l92 -12c69.333 38.667 115.666 58 138.999 58l115 -23c126.667 4 196 15.667 208 35zM1191 1439l35 0.000976562c15.333 0 27 -23.333 35 -70c-12 -34.667 -66 -77 -162 -127l-161 -392
c-23.333 0 -35 -15.333 -35 -46h-35v81l-23 46c69.333 150 104 250 104 300c0 26.667 -42.333 69 -127 127v11c0 15.333 80.667 34.666 242 57.999l58 -12zM626.001 262c-15.333 -19.333 -23 -46.333 -23 -81c-30.667 0 -46 -15.333 -46 -46l-69 -58v-23h34
c38.667 0 77.334 30.667 116.001 92c3.33301 31.333 18.666 47 45.999 47c-8 34 -27.333 57 -58 69zM9.00098 -163l81 -22.999l208 23l34 -34l35 23l23 -23l150 23l150 -12l127 12l69 -12l138 23l58 -23l104 12l138 -12l81 12v-92l-11 -12v-11l-162 11l-196 -11l-35 11
l-427 -23l-115 12l-35 -12l-103 12h-162l-46 -12c-84.667 11.333 -127 30.666 -127 57.999v57z" />
    <glyph glyph-name="z" unicode="z" horiz-adv-x="1156" 
d="M313 1730l81 0.000976562c15.333 0 23 -15.333 23 -46l58 34l34 -23l197 12h69l104 -12l92 23l115 -11l23 23h58l23 -23v-81l-23 -34l-115 11h-46l-47 -11l-11 11l-58 -11h-46l-127 11l-150 -11h-104l-46 -12l-115 23l-104 -11l-127 11l-92 -11l-12 11v46
c0 23.333 38.333 42.666 115 57.999h197zM134 1441l300 -46v-12l-92 -92h-254c-15.333 0 -23 19.333 -23 58c-38.667 0 -58 11.333 -58 34c0 34.667 42.333 54 127 58zM630 1406l104.001 -34.001l196 34h47l34 -23l-81 -300c-76.667 -100 -119 -211.333 -127 -334
c-46 0 -88.333 -73.333 -127 -220c-26.667 -18.667 -72.667 -122.334 -138 -311.001c-19.333 -8 -46.333 -81 -81 -219h-23l-346 34l-46 -11c-30.667 0 -50 30.667 -58 92c8 54 19.667 81 35 81h11v-23h12c0 53.333 11.333 80 34 80h58c0 31.333 27 58.333 81 81
c0 23.333 30.667 35 92 35c50 46 96.333 69 139 69c0 46 19 69 57 69l23 70v11l-46 23c-50 -57.333 -123 -119 -219 -185h-81l-23 24v11c8 34.667 65.667 142.334 173 323.001c27.333 130.667 69.666 242.334 126.999 335.001l12 35l-12 11v12c15.333 84.667 50 150 104 196
zM284.001 1279h23v-11c-69.333 -61.333 -104 -111.333 -104 -150l-138 -139h-23l-35 24c0 153.333 27 230 81 230l35 12l11 -12h12c57.333 0 103.333 15.333 138 46zM607.001 1026v-12l23 -23h70c0 46 38.333 69 115 69c0 38.667 30.667 58 92 58l23 58h-11
c-100 0 -177 -23.333 -231 -70c-23.333 0 -50.333 -26.667 -81 -80zM573.001 899l11 -35h35v69l-12 58c-22.667 -4 -34 -34.667 -34 -92zM526.001 714l-11 -46l11 -58h12l23 23l-23 81h-12zM930.001 460c27.333 0 54.333 -11.667 81 -35l-23 -138l46 -254l-138 -34h-35
l-46 11l-92 -23c-131.333 8 -197 23.333 -197 46v23c31.333 30.667 120 77 266 139c54 30.667 81 92 81 184c22.667 54 41.667 81 57 81zM564.001 -155l23 -22.999l58 11c38.667 0 58 -7.66699 58 -23l115 12h208l69 -12l69 23l12 -11v-92l-23 -23h-12l-81 11l-104 -11h-34
l-208 11l-150 -23l-11 12v11l-174 -11h-57l-46 11l-47 -11h-103c-100 0 -150 11.333 -150 34v35c0 15.333 38.333 30.666 115 45.999l58 -12l11 12h12l69 -23h46v11h-46v23h12z" />
    <glyph glyph-name="braceleft" unicode="{" horiz-adv-x="236" 
d="M250 1728l23 -23v-91c0 -15.333 -11.333 -23 -34 -23l-11 11h-12l-68 -11l11 -46c0 -38 -45.667 -57 -137 -57l-23 23c0 76 23 114 69 114c0 38 49.333 61 148 69zM125 1419h11v-91l12 -92l-12 -45l12 -160l-12 -57l12 -126v-160l11 -69l-11 -57v-46l11 -68l-23 -92
l12 -137l-12 -299c4 -53.333 11.667 -80 23 -80l103 12l11 -12v-91c0 -23.333 -38 -35 -114 -35c-99.333 0 -149 11.667 -149 35l46 103v11h-11l-12 -11h-11l-12 11l12 57l-23 208l23 80l-12 57l12 11v12l-12 34l12 126v45c0 15.333 19 23 57 23v35l-23 68
c-30.667 0 -46 7.66699 -46 23v23l12 114l-12 46l12 69l-12 91l58 23v11c-38.667 0 -58 30.667 -58 92l-11 11l23 23l-12 80v137h23v-34h23c0 22.667 23 53 69 91zM159 -206v-22h23l57 11v11h-80z" />
    <glyph glyph-name="bar" unicode="|" horiz-adv-x="342" 
d="M381 1735l11 0.000976562v-23l-11 -12l22 -79l-45 -23l-80 11l-148 -11l-45 11l-46 -11h-45l-23 23v57c0 11.333 22.667 22.666 68 33.999l57 -12c144 8 239 19.667 285 35zM91 1486l35 0.00195312c56.667 0 87 -11.333 91 -34v-205h-23v23h-46
c-38 0 -57 -7.66699 -57 -23l35 -91h68v34h23v-11l11 -159l-23 -228l23 -91l-11 -11h-12l23 -285l-11 -68l11 -57l-23 -284l12 -57l-69 -23c-75.333 0 -113 60.667 -113 182l-12 137l12 34l-12 57c0 14.667 15.333 22 46 22v12l-34 45l11 34l-23 205v80
c0 121.333 11.333 182 34 182h114v79l11 12v11c-121.333 11.333 -182 26.666 -182 45.999c23.333 79.333 35 147.666 35 204.999v22l-12 103c34 68 56.667 102 68 102zM91 405.003v-11l80 -12v23h-80zM137 314.003l23 -23h11v23h-34zM341 -144.997h11l35 -34
c-19.333 -72 -38.333 -110 -57 -114h-12l-113 11l-57 -11l-91 11l-69 -11l-11 11v103l23 23l79 -80c46 38 125.667 60.667 239 68z" />
    <glyph glyph-name="braceright" unicode="}" horiz-adv-x="260" 
d="M151 1734l11.0029 0.000976562c19.333 0 30.666 -38 33.999 -114l-11 -12v-11l11 -57l-11 -92l11 -11h12l-23 -217l23 -115l-23 -68v-92l11 -114l-11 -91l11 -81l-11 -45l11 -35l-11 -102v-35l11 -91l-11 -69l11 -274l-11 -69l11 -68l-11 -160h-11l-138 -12
c-60.667 4 -91 15.667 -91 35v45c4 23.333 34.333 35 91 35h35v34h-12l12 69l-23 377c15.333 0 23 11.333 23 34l-23 137c11.333 38 22.666 57 33.999 57h57v35l-91 45l11 172v57l-11 46l23 68l-12 103v69c0 15.333 19 23 57 23v11l-34 46c8 30 23.333 45 46 45v12
c-46 0 -69 61 -69 183v11l12 12v11l-23 114l11 12l-68 11l-35 -11l-11 11v115h23l23 -23c91.333 7.33301 144.666 18.666 159.999 33.999z" />
    <glyph glyph-name="cent" unicode="&#xa2;" horiz-adv-x="917" 
d="M620 1736h34l80 -69h12c38 46 99 69 183 69l11 -11v-92c0 -11.333 -15.333 -22.666 -46 -33.999l-103 11l-11 -11h-11c-61.333 0 -92 19 -92 57h-11c0 -30.667 -27 -46 -81 -46l-68 -11l-492 23l-35 -12l-11 12v57c0 15.333 42 30.666 126 45.999l80 -12h137l103 12
l80 -12zM423 1481h23l23 -23v-23c-4 -22.667 -42.333 -41.667 -115 -57v-35h-23v103c4 23.333 34.667 35 92 35zM457 1355h12v-12c-26.667 -53.333 -46 -80 -58 -80h-11l-34 35zM743 1263c23.333 0 42.335 -83.668 57.002 -251.001v-81c0 -41.333 -15 -68 -45 -80h-46
c-15.333 183.333 -84 286.333 -206 309l-46 23c-84 0 -126 -84 -126 -252c23.333 0 38.666 -38 45.999 -114l-34 -194c0 -183.333 34.333 -275 103 -275l34 -23l57 11c8 -22.667 31 -34 69 -34c0 30.667 19 57.334 57 80.001l23 -23c22.667 92 49.334 138 80.001 138l23 -23
c0 -42 -65 -122.333 -195 -241l-80 12l-91 -34c-110.667 45.333 -183.334 68 -218.001 68c-49.333 0 -110.333 99.333 -183 298l-23 160c30.667 259.333 95.667 389 195 389c118 76 194.333 114 229 114h11l69 -11l11 11h12l114 -45h46c15.333 0 30.666 22.667 45.999 68h11
zM125.002 953.999c0 -18.667 -19 -41.333 -57 -68c30.667 -42 46 -76.333 46 -103h11c19.333 45.333 61.333 68 126 68c0 38.667 19 58 57 58v45h-183zM45.002 668l23 -114h12l11 57c-4 38 -15.333 57 -34 57h-12zM343.002 188h68c23.333 -4 35 -34.667 35 -92v-57l-35 -34
h-45l-23 23c0 14.667 15 22 45 22l12 12v46c0 38 -19 57 -57 57v23zM537.002 -137c15.333 -45.333 34.332 -72 56.999 -80l91 57h81l80 -11l34 34c38 -11.333 57 -22.666 57 -33.999v-80l-23 -23l-45 11l-172 -23l-34 12l-12 -12h-11l-46 12l-69 -12l-80 12l-46 -23l-57 23
l-46 -12l-91 12l-126 -23c0 15.333 -34.333 26.666 -103 33.999v58c0 14.667 38 26 114 34v11l115 -11h240c34.667 22.667 65.334 34 92.001 34z" />
    <glyph glyph-name="brokenbar" unicode="&#xa6;" horiz-adv-x="336" 
d="M130 1725l56 -23l68 12l56 -23l46 11v-112h-12l-67 11l-136 -34c-105.333 4 -158 15.333 -158 34v56c0 11.333 49 34 147 68zM79 1530h12l45 -34h11l34 23l34 -34v-23c0 -14.667 -19 -22 -57 -22c0 -30 -18.667 -52.667 -56 -68c0 -30 -19 -45 -57 -45v-11l12 -34h-12
c-10.667 0 -21.667 15 -33 45l11 56l-11 124zM215 1327l22 -34c-22 -34 -33 -68 -33 -102l22 -45l-11 -101v-12l11 -56c-11.333 0 -26.333 -26.333 -45 -79l-124 -12l-34 34l11 57v34l-34 90c34 52.667 79.333 94 136 124c0 30 11.333 45 34 45zM57 627h123.999
c18.667 0 37.334 -49 56.001 -147l-33 -79l11 -124l-11 -34l22 -113c-4 -56.667 -19 -98 -45 -124l-57 11h-79l-22 23v11c22.667 30 34 67.667 34 113c-30 98 -45 180.667 -45 248c11.333 45.333 30 68 56 68v11c-30 0 -45 11.333 -45 34v68zM306.999 -150h12l34 -34v-90
l-23 -23l-90 23l-91 -23h-146l-23 23v79l23 22h33l23 -22c165.333 7.33301 248 22.333 248 45z" />
    <glyph glyph-name="section" unicode="&#xa7;" horiz-adv-x="986" 
d="M221 1724l69 0.000976562l162 -35l12 12v11l46 -11l104 11l151 -11l104 23l57 -23l70 23h11v-116l-115 -11h-197l-58 -12l-69 12h-104l-46 11l-58 -34l-128 23l-69 -12l-58 12l-58 -23c-46 19.333 -69 34.666 -69 45.999v46c0 23.333 42.333 35 127 35h81zM507 1455
c170 -27.333 254.999 -77.3301 254.999 -149.997v-12l-116 -104h-23c-69.333 77.333 -142.666 116 -219.999 116l-46 -35v-81c0 -23.333 23.333 -35 70 -35c0 -22.667 7.66699 -34 23 -34l23 23h11c38.667 -54 92.667 -92.667 162 -116c116 -88.667 174 -142.667 174 -162
l-12 -58l70 -92c-12 -150.667 -39 -235.667 -81 -255h-70l-104 174c-42 65.333 -130.667 134.666 -266 207.999l-139 162c-15.333 54 -30.666 81 -45.999 81l-23 -151c0 -80.667 81 -165.334 243 -254.001l23 -46h35c57.333 0 115 -61.667 173 -185l81 -93h12
c15.333 0 23 11.667 23 35l11 11h24l23 -23c0 -57.333 -73.333 -130.333 -220 -219l-70 -81h-289l-34 -24h-12c-38.667 0 -61.667 11.667 -69 35l57 23v23c-30.667 0 -46 11.667 -46 35v23c4 15.333 42.667 34.666 116 57.999l11 12h12l127 -116h12
c76.667 0 115 30.667 115 92c-53.333 0 -126.333 58 -219 174c-88.667 0 -181.334 77 -278.001 231h-11l11 81v12l-11 69c22.667 58 38 127.333 46 208c23.333 0 35 31 35 93c65.333 62 115.333 139 150 231l11 12h35v-58h23l12 81h11l197 23v12l-23 34zM634.999 1351v-12
l69 -11v23h-69zM345.999 32.0039v-23l-128 -11l-11 11v12l11 11h128zM995.999 -144.996l11 -11v-104c-7.33301 -23.333 -30.333 -35 -69 -35l-127 12l-104 -12l-58 23l-116 -11l-46 11l-35 -11l-34 11l-347 -23c-62 8 -93 19.667 -93 35v81l12 11v12l57 -12l58 12
c0 -19.333 19.333 -31 58 -35l116 35l58 -12h46l58 12l150 -23l12 11l34 -11l243 11h23z" />
    <glyph glyph-name="plusminus" unicode="&#xb1;" horiz-adv-x="1026" 
d="M1015 1731h12l22 -23v-91l-22 -23l-92 11l-240 -11l-91 11l-91 -11l-69 11l-137 -22l-57 22l-80 -11l-11 11h-12l-11 -11h-12l-148 11v103l80 12l80 -12l91 12l206 -23l308 11h160l80 -11zM399 1377l182 -56.999l23 -34l-23 -183l23 -103l11 12h46
c53.333 0 80 -19.333 80 -58l12 12h11l46 -12l68 46h12l11 -11h11l-34 -183l-103 -11l-102 22l-92 -11l12 -114v-183l11 -57l-183 -34h-45c-19.333 0 -31 15 -35 45l-11 160l11 149l-11 11l-114 -11h-160c-30.667 0 -46 53.333 -46 160v22c0 12 26.667 27.333 80 46l240 -11
v57c11.333 152 34.333 239.333 69 262v23l-58 -11v11c4 15.333 23.333 30.666 58 45.999zM433 1331v-23h45l-22 23h-23zM581 372.001l240.001 -10.999l57 11c22.667 -18.667 38 -75.667 46 -171c-26.667 -26.667 -99 -57.334 -217 -92.001c-38 23.333 -76 35 -114 35h-35
c-26.667 -23.333 -53.334 -35 -80.001 -35c-83.333 38.667 -182 58 -296 58l-92 -35h-23c0 23.333 -11.333 35 -34 35c0 114 15.333 171 46 171l80 23h80l34 -23l46 23l125 -23zM444.001 -155.998l23 -22h183l182 11l58 -23c53.333 0 95 11.333 125 34l23 -22v-80l-23 -23
l-45 11l-69 -23l-103 12l-45 -12l-126 12h-69l-45 -12l-137 23l-149 -34l-80 34l-80 -11h-68l-23 23v45c0 23.333 42 35 126 35h217z" />
    <glyph glyph-name="paragraph" unicode="&#xb6;" horiz-adv-x="914" 
d="M13 1731l68.999 -22.999h160l183 -11l80 34h23l80 -69c56.667 23.333 163.334 42.666 320.001 57.999l11 -12v-103h-103l-45 -11l-46 11h-34l-58 -11l-34 11l-217 -11h-46l-45 11l-46 -11h-46l-160 11l-69 -23l-11 12v114c0 15.333 11.333 23 34 23zM824.999 1457
l22.999 -35c0 -38 -11.667 -60.667 -35 -68h-11l-57 11c-11.333 -30.667 -38 -46 -80 -46v-137l23 -91l-23 -480l23 -92c-30.667 -152 -57.334 -228 -80.001 -228l-57 -12l-12 12v103l23 171c-7.33301 53.333 -18.666 80 -33.999 80l-195 -57h-34
c-46 38 -126 83.667 -240 137c-19.333 19.333 -34.666 65 -45.999 137l12 69l-23 57c26.667 167.333 57 251 91 251c46 76.667 126 115 240 115c0 30.667 164 65 492 103zM241.998 279.001c0 -56.667 64.667 -94.667 194 -114c0 -22.667 19 -34 57 -34l23 23h12v-12
c-88 -72.667 -160.333 -114.667 -217 -126h-46c-53.333 0 -103 46 -149 138c4 38 23 57 57 57zM630.998 245.001v-11l-58 -58l-22 23c34 30.667 60.667 46 80 46zM361.998 -150.999l44.999 0.000976562c15.333 0 23 -15.333 23 -46l57 23l35 -12l194 35l23 -23l183 23
l11 -12v-103l-23 -23l-57 23l-137 -34l-217 34l-286 -34l-80 23l-149 -12l-11 12v68c0 19.333 64.667 34.666 194 45.999l69 -23h46c26.667 0 53.334 11.667 80.001 35z" />
    <glyph glyph-name="periodcentered" unicode="&#xb7;" horiz-adv-x="551" 
d="M87 1734l46 -12.001l34 12l159 -34c34 14.667 87 22 159 22l11 -11h12l45 11c22.667 -3.33301 34 -33.666 34 -90.999v-11l-22 -23l-34 12l-35 -12l-181 12l-125 -12l-159 12l-69 -12l-11 12v56c0 12 45.333 31 136 57v12zM261 885.999
c113.333 -64 170 -139.667 170 -227c-49.333 -83.333 -91 -136.333 -125 -159h-102c-26.667 22.667 -79.667 41.667 -159 57l-34 136h23c0 -22.667 7.33301 -34 22 -34c0 38 30.333 57 91 57h68v34c-37.333 0 -56 7.33301 -56 22v12l22 34c-38 0 -57 7.66699 -57 23z
M93 -152.001l80 -12l34 12v-34h-23v-12c0 -22.667 15.333 -34 46 -34l91 57l68 -11l68 11l91 -11l23 22h11l23 -22v-91l-12 -12v-11l-56 11h-91l-171 -11l-23 23h-79v11l11 11v12h-11l-34 -34l-171 -12l-11 12v68c0 11.333 45.333 30.333 136 57z" />
    <glyph glyph-name="periodcentered" unicode="&#x2219;" horiz-adv-x="551" 
d="M87 1734l46 -12.001l34 12l159 -34c34 14.667 87 22 159 22l11 -11h12l45 11c22.667 -3.33301 34 -33.666 34 -90.999v-11l-22 -23l-34 12l-35 -12l-181 12l-125 -12l-159 12l-69 -12l-11 12v56c0 12 45.333 31 136 57v12zM261 885.999
c113.333 -64 170 -139.667 170 -227c-49.333 -83.333 -91 -136.333 -125 -159h-102c-26.667 22.667 -79.667 41.667 -159 57l-34 136h23c0 -22.667 7.33301 -34 22 -34c0 38 30.333 57 91 57h68v34c-37.333 0 -56 7.33301 -56 22v12l22 34c-38 0 -57 7.66699 -57 23z
M93 -152.001l80 -12l34 12v-34h-23v-12c0 -22.667 15.333 -34 46 -34l91 57l68 -11l68 11l91 -11l23 22h11l23 -22v-91l-12 -12v-11l-56 11h-91l-171 -11l-23 23h-79v11l11 11v12h-11l-34 -34l-171 -12l-11 12v68c0 11.333 45.333 30.333 136 57z" />
    <glyph glyph-name="fraction" unicode="&#x2044;" horiz-adv-x="660" 
d="M-13 1731l10 -0.000976562c116 -7.33301 189 -18.666 219 -33.999l104 12h10l47 -12l35 12l68 -12l46 12l81 -12l80 12v-93l-22 -22h-24l-34 11l-58 -11h-57l-35 11l-57 -11h-310l-46 -12l-11 12h-12l-34 -12l-12 12v11l22 92zM675 1490
c0 -96 -37.999 -203.001 -113.999 -321.001c-38.667 -150.667 -100 -303.667 -184 -459l-11 -116l11 -34l-115 -207c-30.667 -34 -46 -76 -46 -126l12 -46c-28 0 -55 -69 -81 -207l-46 -23c-69.333 25.333 -104 48.333 -104 69l36 68l-12 47
c53.333 59.333 80 105.333 80 138v92c54 56.667 81 98.667 81 126l34 34v115c9.33301 61.333 32.666 92 69.999 92l-12 80v24c9.33301 60.667 32 91 68 91v12c0 66 19.333 127.333 58 184c0 72.667 34.333 145.334 103 218.001l-11 57v12c0 45.333 30.333 68 91 68z
M296.001 846.998v-35h24v12zM348.001 -159.002l115 -23l103 23l47 -12l68 12v-92l-34 -34l-58 10l-34 -10l-58 10l-298 -10l-104 10l-114 -22l-12 12v92l218 22l93 -11z" />
    <glyph glyph-name="fraction" unicode="&#x2215;" horiz-adv-x="660" 
d="M-13 1731l10 -0.000976562c116 -7.33301 189 -18.666 219 -33.999l104 12h10l47 -12l35 12l68 -12l46 12l81 -12l80 12v-93l-22 -22h-24l-34 11l-58 -11h-57l-35 11l-57 -11h-310l-46 -12l-11 12h-12l-34 -12l-12 12v11l22 92zM675 1490
c0 -96 -37.999 -203.001 -113.999 -321.001c-38.667 -150.667 -100 -303.667 -184 -459l-11 -116l11 -34l-115 -207c-30.667 -34 -46 -76 -46 -126l12 -46c-28 0 -55 -69 -81 -207l-46 -23c-69.333 25.333 -104 48.333 -104 69l36 68l-12 47
c53.333 59.333 80 105.333 80 138v92c54 56.667 81 98.667 81 126l34 34v115c9.33301 61.333 32.666 92 69.999 92l-12 80v24c9.33301 60.667 32 91 68 91v12c0 66 19.333 127.333 58 184c0 72.667 34.333 145.334 103 218.001l-11 57v12c0 45.333 30.333 68 91 68z
M296.001 846.998v-35h24v12zM348.001 -159.002l115 -23l103 23l47 -12l68 12v-92l-34 -34l-58 10l-34 -10l-58 10l-298 -10l-104 10l-114 -22l-12 12v92l218 22l93 -11z" />
    <glyph glyph-name="Euro" unicode="&#x20ac;" horiz-adv-x="1135" 
d="M848 1737l22 -22.999h137l34 -22h57l45 34l23 -23v-80c0 -22.667 -26.667 -34 -80 -34v-11l-79 11h-91l-46 -11l-45 23l-125 -23l-80 23v11c0 15.333 26.667 23 80 23c0 11.333 26.333 22.666 79 33.999v11l-11 12h-79v22zM291 1726h11l114 -12l102 12l46 -91l22 -23
l-113 -23l-12 12l-136 -23l-34 23l-57 -12l-193 12l-46 -12l-11 12v68c0 18.667 49.333 33.667 148 45h34l34 -22h68c0 22.667 7.66699 34 23 34zM822 1437c128.667 -72 193 -124.996 193 -158.996l11 -57v-34c0 -38 -11.333 -60.667 -34 -68c-37.333 18.667 -56 49 -56 91
v34c-76 45.333 -171 68 -285 68c-34 0 -71.667 -136.333 -113 -409l45 -34c53.333 0 95 7.33301 125 22c114 -18.667 171 -33.667 171 -45c0 -68 -57 -102 -171 -102l-79 11l-46 -11l-57 22v-102c46 0 69 -19 69 -57h11c0 30.667 7.66699 46 23 46h34l45 -34l103 57h22v-12
c-45.333 -90.667 -79.333 -140 -102 -148l-193 12v-34l11 -34l-11 -57v-34c38 -136.667 106 -205 204 -205c26.667 -30 57 -45 91 -45h12c68 0 105.667 60.667 113 182c0 30 7.66699 45 23 45s23 -11.333 23 -34l-12 -114l12 -68l-125 -102h-91l-137 -23
c0 19.333 -18.667 30.666 -56 33.999l-114 -11c0 11.333 -53 41.666 -159 90.999c0 38 -34 72 -102 102l-23 45l68 12v11c-22.667 0 -41.667 15.333 -57 46v11l23 34v11h-80c-18.667 0 -33.667 49.333 -45 148c-68 0 -102 11.333 -102 34c0 11.333 37.667 34 113 68v23
c0 76 -22.667 114 -68 114c-22.667 0 -34 7.66699 -34 23v22c0 11.333 22.667 22.666 68 33.999l34 -11v11c8 136.667 31 205 69 205l-12 34c15.333 60.667 30.666 91 45.999 91l22 -23v46l-11 56c98.667 68.667 159.334 103 182.001 103l11 -12l68 69h12
c14.667 0 22 -11.667 22 -35c197.333 15.333 296 30.666 296 45.999zM484 -145.995l102 -34.001l114 23l114 -23l68 23h11l34 -23h12c37.333 0 60 11.333 68 34c41.333 0 94.333 -34 159 -102v-11l-23 -23h-79l-194 11l-193 -11l-273 11l-125 -22l-56 11l-114 -11l-45 11
l-57 -11l-23 22v91l23 23h11c22.667 0 34 -22.667 34 -68h34l57 34l11 -11c193.333 22.667 303.333 41.334 330 56.001z" />
    <glyph glyph-name="trademark" unicode="&#x2122;" horiz-adv-x="1616" 
d="M1563 1737c60.667 -8 90.999 -23.333 90.999 -46v-68l-23 -23h-114l-45 -11l-137 23l-56 -12h-216l-69 -11l-56 23l-57 -12h-57l-57 12l-34 -34l-136 22l-57 -11l-68 11l-68 -22c0 14.667 -11.667 22 -35 22l-68 -11l-91 11l-11 -11h-11l-34 11l-80 -11
c-76 7.33301 -114 18.666 -114 33.999v45c0 23.333 38 35 114 35l34 11v11l57 -11h79l69 11l91 -22h170l45 11l46 -11l250 22c45.333 -26 68 -48.667 68 -68h23c22.667 26.667 98.334 49.334 227.001 68.001l46 -22l170 22l45 -11zM84.999 1464h23l23 -23v-23
c-42 -158.667 -80 -238 -114 -238h-23v11l23 91h-11c-22.667 0 -34 38 -34 114zM164.999 1464h23c34 0 75.667 -15.333 125 -46l91 12l11 -12v-125c0 -14.667 -30.333 -22 -91 -22c-30 -22.667 -45 -53 -45 -91l11 -12h125v-11l-23 -102v-46l12 -56l-80 -57
c30 -42 45 -76.333 45 -103h23v35h23l68 -91l-23 -34h-22v11l-114 -11h-45l-171 11v23c0 18.667 15.333 30 46 34v68c30 26.667 45 91 45 193h-11c-22.667 0 -34 11.333 -34 34l11 57l-11 102v12l22 91zM1188 1464l67.999 0.000976562l125 -23l79 12l23 -35
c0 -14.667 -15 -22 -45 -22c0 -38 -26.667 -64.667 -80 -80l-11 -57v-45l22 -23c0 15.333 15.333 23 46 23v23h34l-11 -57l11 -91l-23 -68v-91c0 -102.667 30.333 -174.667 91 -216v-11l-23 -23l-56 23l-125 -12l-69 23l-113 -11l-12 11v11
c34.667 0 61.334 60.667 80.001 182v11c0 57.333 -11.333 110.666 -34 159.999l45 215c-45.333 57.333 -68 99 -68 125zM516.998 1453l80 -35c-8 -60 -23.333 -90 -46 -90h-45c-11.333 0 -34 30 -68 90v12zM959.998 1453l125 -273.001h34c8 45.333 19.667 68 35 68l11 -11
v-23c-22.667 -34 -34 -68 -34 -102l11 -12c0 -64 -34 -154.667 -102 -272l-11 -46l11 -34l-11 -80h-35c-143.333 310.667 -219 534.334 -227 671.001l-34 45v12h46zM584.998 1293l22.999 -34.001c0 -41.333 -15 -67.666 -45 -78.999c-19.333 0 -30.666 30.333 -33.999 91
l11 11h11l12 -11zM755.997 1146h11c34 -15.333 60.667 -114 80 -296l-12 -45c22.667 0 45.667 -19 69 -57v-34c0 -18.667 -53.333 -30 -160 -34l-11 11h-11l-46 -11l-11 11v12c68 34 113.333 68 136 102l-11 11v12l23 79h-12c-14.667 0 -29.667 79.667 -45 239z
M797.997 -140.001c15.333 -45.333 34.333 -71.668 57 -79.001l159 57l137 -23l34 34h11l45 -11l46 11l114 -23l90 23l80 -23l68 12l12 -12v-91l-12 -11v-11l-57 11l-91 -11l-79 22l-159 -22l-12 11l-34 -11l-306 11l-103 -11l-11 11h-11l-103 -11l-250 11l-11 -11l-57 11
h-23l-193 -23l-68 23h-102l-23 23v34c0 22.667 56.667 45.334 170 68.001c49.333 0 95 -19 137 -57h11l80 46h11l102 -23c76 0 144.333 11.333 205 34l57 -11z" />
    <glyph glyph-name="minus" unicode="&#x2212;" horiz-adv-x="666" 
d="M187 1731h46c44.667 0 67 -26.333 67 -79c28 38 50.667 57 68 57l46 -23l57 23l170 -23l22 23h34v-80c0 -22 -41.667 -33 -125 -33l-34 10l-67 -10h-12l-56 10l-69 -10h-34l-57 10l-67 -10h-182c-15.333 0 -23 11 -23 33l12 11v12l-12 34l91 23l91 -12h11
c0 22.667 7.66699 34 23 34zM368 835l34.999 -0.000976562c39.333 -52.667 81 -79 125 -79l34 -114c0 -43.333 -41.667 -69.666 -125 -78.999h-23l-114 22l-67 -11l-115 11h-10l-91 -22l-12 11v158c0 32 72 58.667 216 80l46 -34c32.667 0 66.334 19 101.001 57z
M470.999 731.999v-10l11 -12l-11 -57v-22h22l12 57v44h-34zM320.999 -144.001l272.999 -11.001l11 11h11c45.333 -10 68 -21.333 68 -34v-79l-22 -22h-46l-91 10l-67 -10l-46 10l-283 -22l-57 12l-11 -12h-12c-47.333 15.333 -73.666 34.333 -78.999 57v11
c10 34.667 85.333 57.334 226 68.001l46 -23z" />
    <glyph glyph-name=".null" horiz-adv-x="0" 
 />
    <glyph glyph-name="nonmarkingreturn" horiz-adv-x="508" 
 />
  </font>
</defs>
</svg>
