<?xml version="1.0" encoding="UTF-8"?><svg xmlns="http://www.w3.org/2000/svg" xmlns:xlink="http://www.w3.org/1999/xlink" width="810" zoomAndPan="magnify" viewBox="0 0 810 809.999993" height="809.999993" preserveAspectRatio="xMidYMid meet" version="1.0"><defs><clipPath id="clip-0"><path d="M 634 258 L 722.890625 258 L 722.890625 294 L 634 294 Z M 634 258 " clip-rule="nonzero"/></clipPath><clipPath id="clip-1"><path d="M 86.890625 258 L 176 258 L 176 294 L 86.890625 294 Z M 86.890625 258 " clip-rule="nonzero"/></clipPath></defs><path fill="rgb(4.309082%, 30.979919%, 21.179199%)" d="M 401.945312 93.136719 C 392.414062 93.136719 384.613281 85.335938 384.613281 75.800781 L 384.613281 21.453125 C 384.613281 11.917969 392.414062 4.117188 401.945312 4.117188 C 411.476562 4.117188 419.273438 11.917969 419.273438 21.453125 L 419.273438 75.800781 C 419.273438 85.335938 411.476562 93.136719 401.945312 93.136719 Z M 401.945312 93.136719 " fill-opacity="1" fill-rule="nonzero"/><g clip-path="url(#clip-0)"><path fill="rgb(4.309082%, 30.979919%, 21.179199%)" d="M 705.996094 293.1875 L 651.664062 293.1875 C 642.132812 293.1875 634.335938 285.386719 634.335938 275.851562 C 634.335938 266.316406 642.132812 258.515625 651.664062 258.515625 L 705.996094 258.515625 C 715.527344 258.515625 723.324219 266.316406 723.324219 275.851562 C 723.324219 285.386719 715.527344 293.1875 705.996094 293.1875 Z M 705.996094 293.1875 " fill-opacity="1" fill-rule="nonzero"/></g><g clip-path="url(#clip-1)"><path fill="rgb(4.309082%, 30.979919%, 21.179199%)" d="M 158.550781 293.1875 L 104.21875 293.1875 C 94.6875 293.1875 86.890625 285.386719 86.890625 275.851562 C 86.890625 266.316406 94.6875 258.515625 104.21875 258.515625 L 158.550781 258.515625 C 168.082031 258.515625 175.878906 266.316406 175.878906 275.851562 C 175.878906 285.386719 168.082031 293.1875 158.550781 293.1875 Z M 158.550781 293.1875 " fill-opacity="1" fill-rule="nonzero"/></g><path fill="rgb(4.309082%, 30.979919%, 21.179199%)" d="M 226.480469 167.503906 C 222.0625 167.503906 217.644531 165.769531 214.265625 162.390625 L 175.878906 123.992188 C 169.121094 117.230469 169.121094 106.222656 175.878906 99.460938 C 182.636719 92.703125 193.640625 92.703125 200.402344 99.460938 L 238.785156 137.859375 C 245.542969 144.621094 245.542969 155.628906 238.785156 162.390625 C 235.320312 165.769531 230.902344 167.503906 226.480469 167.503906 Z M 226.480469 167.503906 " fill-opacity="1" fill-rule="nonzero"/><path fill="rgb(4.309082%, 30.979919%, 21.179199%)" d="M 581.308594 167.503906 C 576.886719 167.503906 572.46875 165.769531 569.089844 162.390625 C 562.332031 155.628906 562.332031 144.621094 569.089844 137.859375 L 607.476562 99.460938 C 614.234375 92.703125 625.238281 92.703125 631.996094 99.460938 C 638.753906 106.222656 638.753906 117.230469 631.996094 123.992188 L 593.613281 162.390625 C 590.230469 165.769531 585.8125 167.503906 581.308594 167.503906 Z M 581.308594 167.503906 " fill-opacity="1" fill-rule="nonzero"/><path fill="rgb(4.309082%, 30.979919%, 21.179199%)" d="M 516.839844 581.5625 L 296.753906 581.5625 C 287.222656 581.5625 279.425781 573.761719 279.425781 564.226562 L 279.425781 554.777344 C 279.425781 517.246094 266.6875 480.0625 242.597656 447.125 C 216.949219 412.109375 203.347656 370.589844 203.347656 327.078125 C 203.347656 271.171875 226.742188 217.082031 267.554688 178.773438 C 308.882812 139.941406 363.039062 120.4375 419.792969 123.992188 C 524.898438 130.578125 608.515625 218.296875 610.246094 323.695312 C 611.027344 370.414062 596.382812 414.621094 567.875 451.460938 C 546.214844 479.542969 534.257812 516.378906 534.257812 555.210938 L 534.257812 564.3125 C 534.171875 573.847656 526.457031 581.5625 516.839844 581.5625 Z M 313.996094 546.890625 L 499.769531 546.890625 C 501.417969 503.464844 515.714844 462.292969 540.496094 430.222656 C 564.152344 399.625 576.28125 362.960938 575.675781 324.21875 C 574.203125 236.757812 504.882812 163.949219 417.714844 158.578125 C 370.578125 155.628906 325.695312 171.75 291.382812 203.996094 C 257.070312 236.238281 238.09375 280.011719 238.09375 327.078125 C 238.09375 363.222656 249.355469 397.632812 270.585938 426.667969 C 297.359375 463.332031 312.261719 504.765625 313.996094 546.890625 Z M 313.996094 546.890625 " fill-opacity="1" fill-rule="nonzero"/><path fill="rgb(4.309082%, 30.979919%, 21.179199%)" d="M 518.921875 648.390625 L 294.761719 648.390625 C 285.230469 648.390625 277.429688 640.589844 277.429688 631.054688 C 277.429688 621.519531 285.230469 613.71875 294.761719 613.71875 L 518.832031 613.71875 C 528.363281 613.71875 536.164062 621.519531 536.164062 631.054688 C 536.164062 640.589844 528.453125 648.390625 518.921875 648.390625 Z M 518.921875 648.390625 " fill-opacity="1" fill-rule="nonzero"/><path fill="rgb(4.309082%, 30.979919%, 21.179199%)" d="M 406.796875 805.796875 C 351.949219 805.796875 307.238281 761.15625 307.238281 706.203125 L 307.238281 692.941406 C 307.238281 683.40625 315.035156 675.605469 324.566406 675.605469 L 488.941406 675.605469 C 498.472656 675.605469 506.269531 683.40625 506.269531 692.941406 L 506.269531 706.203125 C 506.355469 761.15625 461.730469 805.796875 406.796875 805.796875 Z M 342.070312 710.277344 C 344.148438 744.167969 372.398438 771.125 406.796875 771.125 C 441.195312 771.125 469.445312 744.167969 471.523438 710.277344 Z M 342.070312 710.277344 " fill-opacity="1" fill-rule="nonzero"/><path fill="rgb(4.309082%, 30.979919%, 21.179199%)" d="M 440.15625 581.5625 L 373.523438 581.5625 C 365.550781 581.5625 358.621094 576.1875 356.714844 568.472656 L 307.84375 373.796875 C 306.113281 366.949219 308.710938 359.753906 314.34375 355.59375 C 319.976562 351.433594 327.601562 351.085938 333.664062 354.726562 L 363.820312 373.015625 L 391.460938 319.101562 C 394.40625 313.296875 400.386719 309.65625 406.882812 309.65625 C 413.382812 309.65625 419.359375 313.296875 422.308594 319.101562 L 449.949219 373.015625 L 480.101562 354.726562 C 486.082031 351.085938 493.707031 351.433594 499.425781 355.59375 C 505.054688 359.753906 507.65625 366.949219 505.921875 373.796875 L 457.054688 568.472656 C 455.058594 576.1875 448.128906 581.5625 440.15625 581.5625 Z M 387.042969 546.890625 L 426.726562 546.890625 L 461.992188 406.300781 L 452.027344 412.367188 C 447.867188 414.882812 442.929688 415.574219 438.335938 414.273438 C 433.746094 412.972656 429.84375 409.765625 427.59375 405.519531 L 406.882812 365.042969 L 386.175781 405.519531 C 384.007812 409.765625 380.109375 412.972656 375.429688 414.273438 C 370.839844 415.574219 365.8125 414.882812 361.738281 412.367188 L 351.773438 406.300781 Z M 387.042969 546.890625 " fill-opacity="1" fill-rule="nonzero"/></svg>